SplineFontDB: 3.0
FontName: KisStM
FullName: Sorts Mill Kis
FamilyName: Sorts Mill Kis
Weight: Regular
Copyright: Copyright (C) 2010 Barry Schwartz
UComments: "Cut 3200-dpi samples to 640 pixels high. Scale by a factor of 1.1.+AAoACgAA-Cut 6400-dpi samples to 1280 pixels high. Scale by a factor of 1.1." 
Version: 001.000
ItalicAngle: 0
UnderlinePosition: -100
UnderlineWidth: 49
Ascent: 700
Descent: 300
Descent: 300
LayerCount: 3
Layer: 0 0 "Back"  1
Layer: 1 0 "Fore"  0
Layer: 2 0 "backup"  0
NeedsXUIDChange: 1
XUID: [1021 658 797806517 2478896]
FSType: 0
OS2Version: 0
OS2_WeightWidthSlopeOnly: 0
OS2_UseTypoMetrics: 1
CreationTime: 1263111985
ModificationTime: 1266833231
OS2TypoAscent: 0
OS2TypoAOffset: 1
OS2TypoDescent: 0
OS2TypoDOffset: 1
OS2TypoLinegap: 90
OS2WinAscent: 0
OS2WinAOffset: 1
OS2WinDescent: 0
OS2WinDOffset: 1
HheadAscent: 0
HheadAOffset: 1
HheadDescent: 0
HheadDOffset: 1
OS2Vendor: 'PfEd'
Lookup: 3 0 0 "'aalt' Access All Alternates lookup 0"  {"'aalt' Access All Alternates lookup 0 subtable"  } ['aalt' ('DFLT' <'dflt' > ) ]
Lookup: 3 0 0 "'aalt' Access All Alternates in Latin lookup 0"  {"'aalt' Access All Alternates in Latin lookup 0 subtable"  } ['aalt' ('latn' <'TRK ' 'AZE ' 'CRT ' 'dflt' > ) ]
Lookup: 1 0 0 "turkish"  {"turkish subtable"  } ['locl' ('latn' <'TRK ' 'AZE ' 'CRT ' > ) ]
Lookup: 1 0 0 "'ss01' Style Set 1 in Latin lookup 1"  {"'ss01' Style Set 1 in Latin lookup 1 subtable"  } ['ss01' ('latn' <'dflt' > 'DFLT' <'dflt' > ) ]
Lookup: 260 0 0 "spacing anchors"  {"spacing anchors-1"  } []
Lookup: 260 0 0 "accent anchors"  {"accent anchors-1"  } []
Lookup: 258 0 0 "'kern' Horizontal Kerning in Latin lookup 2"  {"'kern' Horizontal Kerning in Latin lookup 2 subtable"  } ['kern' ('latn' <'dflt' > 'DFLT' <'dflt' > ) ]
MarkAttachClasses: 1
DEI: 91125
KernClass2: 11 10 "'kern' Horizontal Kerning in Latin lookup 2 subtable" 
 75 dotlessi i i.TRK iacute ibreve icircumflex idieresis igrave imacron itilde 
 6 q q.ld

StartChar: a
Encoding: 97 97 0
Width: 402
VWidth: 0
Flags: HW
HStem: -13 40<101.5 204.392> -8 52<296.5 363.943> 369 35<133.897 276.492>
VStem: 32 75<255.858 336.81> 38 85<34.394 122.745> 247 77<51.4188 187 203.22 353.691>
AnchorPoint: "top" 197 540 basechar 0
AnchorPoint: "l;bl" 0 10 basechar 0
AnchorPoint: "l;x" 20 385 basechar 0
AnchorPoint: "l;o" 0 200 basechar 0
AnchorPoint: "r;bl" 402 10 basechar 0
AnchorPoint: "r;x" 377 385 basechar 0
AnchorPoint: "r;o" 392 200 basechar 0
LayerCount: 3
Fore
SplineSet
38 71 m 0xac
 38 125 95 168 247 209 c 1
 247 282 l 2
 247 327 242 369 177 369 c 0
 133 369 107 350 107 333 c 0
 107 328 112 314 112 296 c 0
 112 265 95 250 75 250 c 0
 54 250 32 266 32 297 c 0
 32 341 129 404 225 404 c 0
 324 404 324 357 324 231 c 2
 324 125 l 2
 324 75 325 44 344 44 c 0
 367 44 365 65 379 65 c 0
 384 65 386 59 386 52 c 0
 386 17 336 -8 309 -8 c 0x74
 284 -8 260 0 251 48 c 1
 230 17 186 -13 126 -13 c 0
 77 -13 38 16 38 71 c 0xac
247 187 m 1
 238 184 217 178 193 167 c 0
 159 151 123 133 123 81 c 0
 123 51 141 27 167 27 c 0xac
 177 27 247 40 247 98 c 2
 247 187 l 1
EndSplineSet
EndChar

StartChar: M
Encoding: 77 77 1
Width: 900
VWidth: 0
Flags: W
HStem: 0 21G<39.5 186.5 410 421.5 607.5 871.5> 626 20G<92.5 259 699 849.5>
VStem: 100 32<33.4542 185.967> 698 92<34.1605 349.683>
DStem2: 275 630 225 486 0.335746 -0.941953<44.8308 536.12> 455 125 433 10 0.411253 0.911521<0 483.517>
LayerCount: 3
Fore
SplineSet
849 646 m 1
 850 644 852 640 852 636 c 0
 852 614 795 635 778 609 c 0
 770 597 769 573 769 530 c 0
 769 503 786 113 787 104 c 2
 790 75 l 2
 797 3 873 35 873 10 c 0
 873 6 872 2 871 0 c 1
 608 0 l 1
 607 2 605 6 605 10 c 0
 605 28 650 17 677 30 c 0
 696 40 698 56 698 77 c 2
 698 96 l 2
 698 133 681 555 678 555 c 0
 673 555 646 489 612 412 c 2
 433 10 l 2
 428 -2 426 -4 417 -4 c 2
 415 -4 l 2
 405 -4 404 -3 398 12 c 2
 225 486 l 2
 210 528 199 555 198 555 c 0
 197 555 186 503 177 441 c 0
 155 300 132 118 132 60 c 0
 132 31 143 29 162 24 c 0
 175 21 188 19 188 10 c 0
 188 6 187 2 186 0 c 1
 40 0 l 1
 39 2 37 6 37 10 c 0
 37 28 73 16 89 39 c 0
 94 47 98 60 100 75 c 0
 124 274 178 592 178 598 c 0
 178 605 176 609 173 613 c 0
 157 630 91 615 91 636 c 0
 91 640 92 644 93 646 c 1
 253 646 l 2
 265 646 270 644 275 630 c 2
 455 125 l 1
 626 506 l 1
 686 637 l 2
 689 644 695 646 703 646 c 2
 849 646 l 1
EndSplineSet
EndChar

StartChar: b
Encoding: 98 98 2
Width: 469
VWidth: 0
Flags: HW
HStem: -13 24<193.873 276.93> 376 28<193.786 285.122> 643 20G<82.5 137.5>
VStem: 66 77<52.375 337.438 362 594.22> 347 87<97.3074 301.59>
AnchorPoint: "l;bl" 0 10 basechar 0
AnchorPoint: "l;x" 0 385 basechar 0
AnchorPoint: "l;o" 0 200 basechar 0
AnchorPoint: "r;bl" 449 10 basechar 0
AnchorPoint: "r;x" 449 385 basechar 0
AnchorPoint: "r;o" 469 200 basechar 0
LayerCount: 3
Fore
SplineSet
66 551 m 2
 66 622 5 583 5 608 c 0
 5 639 29 606 136 663 c 1
 139 663 144 661 145 657 c 0
 145 655 143 608 143 604 c 2
 143 362 l 1
 166 376 l 2
 186 388 218 404 260 404 c 0
 374 404 434 302 434 199 c 0
 434 94 371 -13 240 -13 c 0
 154 -13 128 23 113 23 c 0
 102 23 89 6 76 4 c 0
 66 2 63 4 63 13 c 0
 63 21 66 62 66 80 c 2
 66 551 l 2
141 262 m 2
 141 177 l 2
 141 66 172 11 239 11 c 0
 312 11 347 107 347 201 c 0
 347 290 313 376 239 376 c 0
 189 376 141 332 141 262 c 2
EndSplineSet
EndChar

StartChar: c
Encoding: 99 99 3
Width: 403
VWidth: 0
Flags: HWO
HStem: -13 58<164.196 285.183> 379 25<175.04 251.25>
VStem: 25 79<110.824 293.65>
AnchorPoint: "cedilla" 212 -80 basechar 0
AnchorPoint: "top" 219 540 basechar 0
AnchorPoint: "l;bl" 30 10 basechar 0
AnchorPoint: "l;x" 30 385 basechar 0
AnchorPoint: "l;o" 0 200 basechar 0
AnchorPoint: "r;bl" 383 10 basechar 0
AnchorPoint: "r;x" 403 385 basechar 0
AnchorPoint: "r;o" 403 200 basechar 0
LayerCount: 3
Fore
SplineSet
368 94 m 1
 322 6 245 -13 207 -13 c 0
 147 -13 25 18 25 197 c 0
 25 316 105 404 232 404 c 0
 318 404 368 360 368 325 c 0
 368 310 354 289 332 289 c 0
 276 289 280 379 219 379 c 0
 161 379 104 322 104 217 c 0
 104 75 181 45 233 45 c 0
 280 45 317 64 352 108 c 1
 361 104 365 100 368 94 c 1
EndSplineSet
EndChar

StartChar: d
Encoding: 100 100 4
Width: 473
VWidth: 0
Flags: HW
HStem: -13 40<182.465 276.753> 380 24<180.55 275.95> 643 20G<335.5 390.5>
VStem: 25 85<109.904 285.851> 319 77<52.9294 349.5 391 594.22>
AnchorPoint: "commaright" 449 540 basechar 0
AnchorPoint: "l;bl" 20 10 basechar 0
AnchorPoint: "l;x" 20 385 basechar 0
AnchorPoint: "l;o" 0 200 basechar 0
AnchorPoint: "r;bl" 473 10 basechar 0
AnchorPoint: "r;x" 473 385 basechar 0
AnchorPoint: "r;hi" 473 610 basechar 0
AnchorPoint: "r;o" 473 200 basechar 0
LayerCount: 3
Fore
SplineSet
247 404 m 0
 276 404 298 396 319 391 c 1
 319 551 l 2
 319 622 258 583 258 608 c 0
 258 639 282 606 389 663 c 1
 392 663 397 661 398 657 c 0
 398 655 396 608 396 604 c 2
 396 92 l 2
 396 9 457 60 457 28 c 0
 457 4 426 26 334 -13 c 1
 325 -13 l 1
 325 42 l 1
 294 16 259 -13 199 -13 c 0
 88 -13 25 86 25 188 c 0
 25 295 93 404 247 404 c 0
321 127 m 2
 321 256 l 2
 321 340 290 380 225 380 c 0
 148 380 110 298 110 214 c 0
 110 122 155 27 241 27 c 0
 284 27 321 60 321 127 c 2
EndSplineSet
EndChar

StartChar: e
Encoding: 101 101 5
Width: 409
VWidth: 0
Flags: HW
HStem: -13 58<163.563 294.477> 251 21<111 288.015> 379 25<169.088 250.018>
VStem: 25 78<111.422 251> 291 81<272.88 337.101>
AnchorPoint: "top" 213 540 basechar 0
AnchorPoint: "l;bl" 30 10 basechar 0
AnchorPoint: "l;x" 30 385 basechar 0
AnchorPoint: "l;o" 0 200 basechar 0
AnchorPoint: "r;bl" 389 10 basechar 0
AnchorPoint: "r;x" 389 385 basechar 0
AnchorPoint: "r;o" 409 200 basechar 0
LayerCount: 3
Fore
SplineSet
213 404 m 0
 347 404 372 296 372 279 c 0
 372 251 371 251 284 251 c 2
 107 251 l 1
 104 234 103 218 103 202 c 0
 103 113 145 45 239 45 c 0
 266 45 320 48 361 107 c 1
 367 105 375 99 377 94 c 1
 346 29 282 -13 206 -13 c 0
 128 -13 25 30 25 200 c 0
 25 300 92 404 213 404 c 0
211 379 m 0
 181 379 125 358 111 272 c 1
 238 272 l 2
 290 272 291 275 291 291 c 0
 291 333 262 379 211 379 c 0
EndSplineSet
EndChar

StartChar: f
Encoding: 102 102 6
Width: 280
VWidth: 0
Flags: HW
HStem: 0 21G<16.5 224.5> 349 44<154 264.971> 623 41<193.527 300>
VStem: 77 77<23.2333 349>
AnchorPoint: "l;bl" 0 10 basechar 0
AnchorPoint: "l;x" 0 385 basechar 0
AnchorPoint: "l;o" 0 200 basechar 0
AnchorPoint: "r;bl" 245 10 basechar 0
AnchorPoint: "r;x" 280 385 basechar 0
AnchorPoint: "r;k;hi" 380 610 basechar 0
AnchorPoint: "r;o" 270 200 basechar 0
LayerCount: 3
Fore
SplineSet
17 0 m 1
 16 2 15 5 15 8 c 0
 15 30 77 -2 77 62 c 2
 77 350 l 1
 77 350 49 351 35 351 c 0
 27 351 21 352 21 362 c 0
 21 377 61 374 69 401 c 0
 90 467 76 520 145 607 c 0
 174 643 230 664 275 664 c 0
 325 664 365 647 365 613 c 0
 365 591 348 575 327 575 c 0
 276 575 266 623 224 623 c 0
 170 623 154 562 154 474 c 2
 154 393 l 1
 252 393 l 2
 263 393 265 389 265 369 c 0
 265 352 255 349 238 349 c 2
 154 349 l 1
 154 62 l 2
 154 -3 226 31 226 8 c 0
 226 5 225 2 224 0 c 1
 17 0 l 1
EndSplineSet
EndChar

StartChar: g
Encoding: 103 103 7
Width: 457
VWidth: 0
Flags: HW
HStem: -222 56<118.214 276.391> -22 65<113.78 343.093> 120 19<178.054 240.667> 368 37<344.801 420.5> 380 24<172.411 244.09>
VStem: 38 49<-179.5 -76.6374> 45 81<182.737 332.207> 57 49<36 102.335> 287 80<193.157 338.982> 357 45<-124.379 -37.0976>
AnchorPoint: "top" 212 540 basechar 0
AnchorPoint: "l;bl" 0 10 basechar 0
AnchorPoint: "l;x" 20 385 basechar 0
AnchorPoint: "l;o" 0 200 basechar 0
AnchorPoint: "l;lo" 20 -200 basechar 0
AnchorPoint: "r;bl" 437 10 basechar 0
AnchorPoint: "r;x" 457 385 basechar 0
AnchorPoint: "r;o" 427 200 basechar 0
AnchorPoint: "r;lo" 417 -200 basechar 0
LayerCount: 3
Fore
SplineSet
287 261 m 0xea80
 287 341 248 380 208 380 c 0
 167 380 126 340 126 263 c 0
 126 182 169 139 210 139 c 0
 250 139 287 179 287 261 c 0xea80
134 -20 m 1
 106 -41 87 -71 87 -93 c 0
 87 -136 131 -166 216 -166 c 0
 297 -166 357 -134 357 -77 c 0xe440
 357 -37 334 -22 208 -22 c 2
 173 -22 l 2
 162 -22 164 -22 134 -20 c 1
336 352 m 1
 348 339 367 305 367 268 c 0
 367 196 308 120 210 120 c 0
 160 120 143 130 138 130 c 0
 125 130 106 101 106 89 c 0xf180
 106 57 132 43 182 43 c 2
 280 43 l 2
 347 43 402 12 402 -55 c 0
 402 -166 266 -222 157 -222 c 0
 122 -222 38 -211 38 -148 c 0xf440
 38 -89 86 -37 106 -19 c 1
 70 -8 57 23 57 49 c 0xf1
 57 93 114 140 114 140 c 1
 67 163 45 210 45 258 c 0
 45 330 100 404 214 404 c 0xea
 259 404 295 390 320 367 c 1
 346 393 379 405 406 405 c 0
 435 405 457 392 457 367 c 0
 457 348 440 330 421 330 c 0
 396 330 383 368 358 368 c 0xf2
 350 368 343 363 336 352 c 1
EndSplineSet
AlternateSubs2: "'aalt' Access All Alternates lookup 0 subtable" g.ld
AlternateSubs2: "'aalt' Access All Alternates in Latin lookup 0 subtable" g.ld
Substitution2: "'ss01' Style Set 1 in Latin lookup 1 subtable" g.ld
EndChar

StartChar: h
Encoding: 104 104 8
Width: 486
VWidth: 0
Flags: HW
HStem: 0 21G<16.5 214.5 271.5 469.5> 354 50<208.315 307.907> 643 20G<93.5 148.5>
VStem: 77 77<22.8749 325.642 332 594.22> 332 77<22.8749 331.235>
AnchorPoint: "top" 238 740 basechar 0
AnchorPoint: "l;bl" 0 10 basechar 0
AnchorPoint: "l;x" 20 385 basechar 0
AnchorPoint: "l;o" 10 200 basechar 0
AnchorPoint: "r;bl" 486 10 basechar 0
AnchorPoint: "r;x" 476 385 basechar 0
AnchorPoint: "r;o" 476 200 basechar 0
LayerCount: 3
Fore
SplineSet
17 0 m 1
 16 2 15 5 15 8 c 0
 15 30 77 -2 77 62 c 2
 77 551 l 2
 77 622 16 583 16 608 c 0
 16 639 40 606 147 663 c 1
 150 663 155 661 156 657 c 0
 156 655 154 608 154 604 c 2
 154 332 l 1
 158 338 167 344 173 352 c 0
 193 377 231 404 286 404 c 0
 399 404 409 346 409 227 c 2
 409 62 l 2
 409 0 471 30 471 8 c 0
 471 5 470 2 469 0 c 1
 272 0 l 1
 271 2 270 5 270 8 c 0
 270 30 332 -2 332 62 c 2
 332 221 l 2
 332 318 317 354 250 354 c 0
 193 354 154 314 154 288 c 2
 154 62 l 2
 154 0 216 30 216 8 c 0
 216 5 215 2 214 0 c 1
 17 0 l 1
EndSplineSet
EndChar

StartChar: i
Encoding: 105 105 9
Width: 231
VWidth: 0
Flags: HW
HStem: 0 21<16.5 214.5> 392 20<93.5 148.5> 568 93<78.2803 158.557>
VStem: 70 96<576.49 653.508> 77 77<22.8749 341.22>
AnchorPoint: "l;x" 0 385 basechar 0
AnchorPoint: "r;bl" 231 10 basechar 0
AnchorPoint: "r;o" 231 200 basechar 0
AnchorPoint: "l;o" 0 200 basechar 0
AnchorPoint: "l;bl" 0 10 basechar 0
AnchorPoint: "r;x" 221 385 basechar 0
LayerCount: 3
Fore
Refer: 174 775 N 1 0 0 1 347 0 2
Refer: 175 305 N 1 0 0 1 0 0 2
Layer: 2
SplineSet
158 351 m 6xe8
 158 62 l 6
 158 0 220 30 220 8 c 4
 220 5 219 2 218 0 c 5
 21 0 l 5
 20 2 19 5 19 8 c 4
 19 30 81 -2 81 62 c 6
 81 298 l 6
 81 369 20 330 20 355 c 4
 20 386 44 352 151 412 c 5
 154 412 159 410 160 406 c 4
 160 404 158 355 158 351 c 6xe8
120 661 m 4
 154 661 170 637 170 614 c 4
 170 591 155 568 124 568 c 4
 93 568 74 592 74 617 c 4xf0
 74 637 87 661 120 661 c 4
EndSplineSet
AlternateSubs2: "'aalt' Access All Alternates in Latin lookup 0 subtable" i.TRK
Substitution2: "turkish subtable" i.TRK
EndChar

StartChar: j
Encoding: 106 106 10
Width: 233
VWidth: 0
Flags: HW
HStem: -222 21<29.5 48> 392 20<95.5 150.5> 568 93<65.2803 145.557>
VStem: 57 96<576.49 653.508> 79 77<-81.5746 341.22>
AnchorPoint: "l;x" 0 385 basechar 0
AnchorPoint: "r;bl" 233 10 basechar 0
AnchorPoint: "r;lo" 193 -200 basechar 0
AnchorPoint: "r;o" 233 200 basechar 0
AnchorPoint: "l;o" 0 200 basechar 0
AnchorPoint: "l;bl" 0 10 basechar 0
AnchorPoint: "l;lo" 0 -200 basechar 0
AnchorPoint: "r;x" 233 385 basechar 0
LayerCount: 3
Fore
Refer: 174 775 N 1 0 0 1 334 0 2
Refer: 176 567 N 1 0 0 1 0 0 2
Layer: 2
SplineSet
132 661 m 4xf0
 166 661 182 637 182 614 c 4
 182 591 167 568 136 568 c 4
 105 568 86 592 86 617 c 4
 86 637 99 661 132 661 c 4xf0
185 351 m 6xe8
 185 45 l 6
 185 -124 91 -198 63 -222 c 5
 54 -217 47 -212 44 -202 c 5
 103 -142 108 -119 108 48 c 6
 108 298 l 6
 108 369 47 330 47 355 c 4
 47 386 71 352 178 412 c 5
 181 412 186 410 187 406 c 4
 187 404 185 355 185 351 c 6xe8
EndSplineSet
AlternateSubs2: "'aalt' Access All Alternates lookup 0 subtable" j.ld
AlternateSubs2: "'aalt' Access All Alternates in Latin lookup 0 subtable" j.ld
Substitution2: "'ss01' Style Set 1 in Latin lookup 1 subtable" j.ld
EndChar

StartChar: k
Encoding: 107 107 11
Width: 471
VWidth: 0
Flags: HW
HStem: 0 21G<16.5 214.5 256.5 454.5> 170 21<154 198.072> 373 20G<260.5 440.5> 643 20G<93.5 148.5>
VStem: 77 77<22.8749 169 191.001 594.22>
DStem2: 220 221 265 231 0.654447 0.756108<21.4343 150.214> 263 212 222 135 0.601435 -0.798922<-15.3008 160.981>
AnchorPoint: "cedilla" 237 -80 basechar 0
AnchorPoint: "l;bl" 0 10 basechar 0
AnchorPoint: "l;x" 20 385 basechar 0
AnchorPoint: "l;o" 10 200 basechar 0
AnchorPoint: "r;bl" 471 10 basechar 0
AnchorPoint: "r;x" 461 385 basechar 0
AnchorPoint: "r;o" 441 200 basechar 0
LayerCount: 3
Fore
SplineSet
335 315 m 2
 265 231 l 2
 260 226 258 219 263 212 c 2
 369 68 l 2
 383 49 389 41 397 34 c 0
 421 12 456 25 456 8 c 0
 456 5 455 2 454 0 c 1
 257 0 l 1
 256 2 255 5 255 8 c 0
 255 24 292 13 292 32 c 0
 292 39 286 49 272 68 c 2
 222 135 l 2
 210 150 196 170 170 170 c 0
 165 170 154 169 154 169 c 1
 154 62 l 2
 154 0 216 30 216 8 c 0
 216 5 215 2 214 0 c 1
 17 0 l 1
 16 2 15 5 15 8 c 0
 15 30 77 -2 77 62 c 2
 77 551 l 2
 77 622 16 583 16 608 c 0
 16 639 40 606 147 663 c 1
 150 663 155 661 156 657 c 0
 156 655 154 608 154 604 c 2
 154 192 l 1
 154 192 158 191 164 191 c 0
 177 191 199 195 220 221 c 2
 286 301 l 2
 303 322 308 336 308 346 c 0
 308 356 303 361 300 364 c 0
 282 381 259 369 259 385 c 0
 259 388 260 391 261 393 c 1
 440 393 l 1
 441 391 442 388 442 385 c 0
 442 365 414 391 368 350 c 0
 359 342 348 330 335 315 c 2
EndSplineSet
EndChar

StartChar: l
Encoding: 108 108 12
Width: 231
VWidth: 0
Flags: HW
HStem: 0 21G<16.5 214.5> 643 20G<93.5 148.5>
VStem: 77 77<22.8749 594.22>
AnchorPoint: "commaright" 207 540 basechar 0
AnchorPoint: "cedilla" 117 -80 basechar 0
AnchorPoint: "top" 108 740 basechar 0
AnchorPoint: "l;bl" 0 10 basechar 0
AnchorPoint: "l;x" 20 385 basechar 0
AnchorPoint: "l;o" 10 200 basechar 0
AnchorPoint: "r;bl" 231 10 basechar 0
AnchorPoint: "r;x" 221 385 basechar 0
AnchorPoint: "r;hi" 231 610 basechar 0
AnchorPoint: "r;o" 221 200 basechar 0
LayerCount: 3
Fore
SplineSet
77 62 m 2
 77 551 l 2
 77 622 16 583 16 608 c 0
 16 639 40 606 147 663 c 1
 150 663 155 661 156 657 c 0
 156 655 154 608 154 604 c 2
 154 62 l 2
 154 0 216 30 216 8 c 0
 216 5 215 2 214 0 c 1
 17 0 l 1
 16 2 15 5 15 8 c 0
 15 30 77 -2 77 62 c 2
EndSplineSet
EndChar

StartChar: m
Encoding: 109 109 13
Width: 721
VWidth: 0
Flags: HW
HStem: 0 21G<16.5 214.5 261.5 459.5 506.5 704.5> 354 50<203.957 302.356 447.132 548.571> 392 20G<93.5 148.5>
VStem: 77 77<22.8749 341.22> 322 77<22.8749 325.915> 567 77<22.8749 335.299>
CounterMasks: 1 1c
AnchorPoint: "l;bl" 0 10 basechar 0
AnchorPoint: "l;x" 0 385 basechar 0
AnchorPoint: "l;o" 0 200 basechar 0
AnchorPoint: "r;bl" 721 10 basechar 0
AnchorPoint: "r;x" 711 385 basechar 0
AnchorPoint: "r;o" 711 200 basechar 0
LayerCount: 3
Fore
SplineSet
644 62 m 2xdc
 644 0 706 30 706 8 c 0
 706 5 705 2 704 0 c 1
 507 0 l 1
 506 2 505 5 505 8 c 0
 505 30 567 -2 567 62 c 2
 567 221 l 2
 567 318 561 354 485 354 c 0
 441 354 427 334 413 317 c 0
 400 301 398 294 398 282 c 0
 398 273 399 263 399 245 c 2
 399 62 l 2
 399 0 461 30 461 8 c 0
 461 5 460 2 459 0 c 1
 262 0 l 1
 261 2 260 5 260 8 c 0
 260 30 322 -2 322 62 c 2
 322 221 l 2
 322 318 314 354 240 354 c 0xdc
 183 354 154 314 154 288 c 2
 154 62 l 2
 154 0 216 30 216 8 c 0
 216 5 215 2 214 0 c 1
 17 0 l 1
 16 2 15 5 15 8 c 0
 15 30 77 -2 77 62 c 2
 77 298 l 2
 77 369 16 330 16 355 c 0
 16 386 40 352 147 412 c 1xbc
 150 412 155 410 156 406 c 1
 155 400 150 371 148 323 c 1
 148 323 156 334 161 340 c 0
 180 365 212 404 276 404 c 0
 351 404 378 376 391 320 c 1
 394 326 400 334 407 343 c 0
 429 371 460 404 521 404 c 0
 627 404 644 346 644 227 c 2
 644 62 l 2xdc
EndSplineSet
EndChar

StartChar: n
Encoding: 110 110 14
Width: 486
VWidth: 0
Flags: HW
HStem: 0 21G<16.5 214.5 271.5 469.5> 354 50<210.49 310.861> 392 20G<93.5 148.5>
VStem: 77 77<22.8749 341.22> 332 77<22.8749 331.802>
AnchorPoint: "top" 248 540 basechar 0
AnchorPoint: "l;bl" 0 10 basechar 0
AnchorPoint: "l;x" 0 385 basechar 0
AnchorPoint: "l;o" 0 200 basechar 0
AnchorPoint: "r;bl" 486 10 basechar 0
AnchorPoint: "r;x" 476 385 basechar 0
AnchorPoint: "r;o" 476 200 basechar 0
LayerCount: 3
Fore
SplineSet
77 298 m 2xd8
 77 369 16 330 16 355 c 0
 16 386 40 352 147 412 c 1xb8
 150 412 155 410 156 406 c 1
 155 400 150 371 148 323 c 1
 161 339 l 1
 185 364 221 404 286 404 c 0
 399 404 409 346 409 227 c 2
 409 62 l 2
 409 0 471 30 471 8 c 0
 471 5 470 2 469 0 c 1
 272 0 l 1
 271 2 270 5 270 8 c 0
 270 30 332 -2 332 62 c 2
 332 221 l 2
 332 318 320 354 250 354 c 0
 193 354 154 314 154 288 c 2
 154 62 l 2
 154 0 216 30 216 8 c 0
 216 5 215 2 214 0 c 1
 17 0 l 1
 16 2 15 5 15 8 c 0
 15 30 77 -2 77 62 c 2
 77 298 l 2xd8
EndSplineSet
EndChar

StartChar: o
Encoding: 111 111 15
Width: 454
VWidth: 0
Flags: HW
HStem: -13 28<170.524 276.38> 376 28<183.008 280.259>
VStem: 25 88<91.6263 288.9> 341 88<101.274 302.69>
AnchorPoint: "top" 226 540 basechar 0
AnchorPoint: "l;bl" 30 10 basechar 0
AnchorPoint: "l;x" 30 385 basechar 0
AnchorPoint: "l;o" 0 200 basechar 0
AnchorPoint: "r;bl" 424 10 basechar 0
AnchorPoint: "r;x" 424 385 basechar 0
AnchorPoint: "r;o" 454 200 basechar 0
LayerCount: 3
Fore
SplineSet
429 200 m 0
 429 79 344 -13 222 -13 c 0
 120 -13 25 51 25 196 c 0
 25 305 107 404 235 404 c 0
 364 404 429 314 429 200 c 0
228 376 m 0
 162 376 113 306 113 194 c 0
 113 96 134 15 222 15 c 0
 314 15 341 103 341 194 c 0
 341 328 292 376 228 376 c 0
EndSplineSet
EndChar

StartChar: p
Encoding: 112 112 16
Width: 471
VWidth: 0
Flags: HW
HStem: -211 21G<16.5 224.5> -13 29<198.028 292.568> 363 41<204.723 301.507> 392 20G<88.5 143.5>
VStem: 77 75<-186.761 12 53.2485 331.913> 362 84<102.097 293.237>
AnchorPoint: "l;bl" 0 10 basechar 0
AnchorPoint: "l;x" 0 385 basechar 0
AnchorPoint: "l;o" 0 200 basechar 0
AnchorPoint: "l;lo" 0 -200 basechar 0
AnchorPoint: "r;bl" 451 10 basechar 0
AnchorPoint: "r;x" 451 385 basechar 0
AnchorPoint: "r;o" 471 200 basechar 0
LayerCount: 3
Fore
SplineSet
154 -149 m 2xec
 154 -171 161 -182 173 -187 c 0
 194 -196 226 -189 226 -203 c 0
 226 -206 225 -209 224 -211 c 1
 17 -211 l 1
 16 -209 15 -206 15 -203 c 0
 15 -181 77 -213 77 -149 c 2
 77 298 l 2
 77 369 16 330 16 355 c 0
 16 386 35 352 142 412 c 1xdc
 145 412 150 410 151 406 c 1
 150 400 148 388 146 340 c 1
 155 349 209 404 282 404 c 0
 393 404 446 303 446 201 c 0
 446 94 377 -13 246 -13 c 0
 219 -13 180 -4 154 12 c 1
 154 -149 l 2xec
242 363 m 0xec
 193 363 152 319 152 291 c 2
 152 112 l 2
 152 69 189 16 243 16 c 0
 324 16 362 103 362 190 c 0
 362 277 324 363 242 363 c 0xec
EndSplineSet
AlternateSubs2: "'aalt' Access All Alternates lookup 0 subtable" p.ld
AlternateSubs2: "'aalt' Access All Alternates in Latin lookup 0 subtable" p.ld
Substitution2: "'ss01' Style Set 1 in Latin lookup 1 subtable" p.ld
EndChar

StartChar: q
Encoding: 113 113 17
Width: 475
VWidth: 0
Flags: HW
HStem: -211 21G<250.5 458.5> -14 35<180.425 304.893> 377 27<169.231 268.573>
VStem: 25 84<96.1264 294.589> 323 75<-186.761 12 35.0584 339.681>
AnchorPoint: "l;bl" 20 10 basechar 0
AnchorPoint: "l;x" 20 385 basechar 0
AnchorPoint: "l;o" 0 200 basechar 0
AnchorPoint: "r;bl" 475 10 basechar 0
AnchorPoint: "r;x" 475 385 basechar 0
AnchorPoint: "r;o" 475 200 basechar 0
AnchorPoint: "r;lo" 475 -200 basechar 0
LayerCount: 3
Fore
SplineSet
321 -149 m 2
 321 12 l 1
 321 12 285 -14 221 -14 c 0
 88 -14 25 87 25 189 c 0
 25 304 91 404 231 404 c 0
 300 404 358 378 362 378 c 1
 388 407 l 2
 389 408 392 409 394 409 c 0
 397 409 399 408 400 406 c 1
 398 356 398 307 398 179 c 2
 398 -149 l 2
 398 -213 460 -181 460 -203 c 0
 460 -206 459 -209 458 -211 c 1
 251 -211 l 1
 250 -209 249 -206 249 -203 c 0
 249 -189 281 -196 302 -187 c 0
 314 -182 321 -171 321 -149 c 2
249 21 m 0
 282 21 323 33 323 83 c 2
 323 289 l 2
 323 337 269 377 216 377 c 0
 163 377 109 336 109 214 c 0
 109 57 182 21 249 21 c 0
EndSplineSet
AlternateSubs2: "'aalt' Access All Alternates lookup 0 subtable" q.ld
AlternateSubs2: "'aalt' Access All Alternates in Latin lookup 0 subtable" q.ld
Substitution2: "'ss01' Style Set 1 in Latin lookup 1 subtable" q.ld
EndChar

StartChar: r
Encoding: 114 114 18
Width: 339
VWidth: 0
Flags: HW
HStem: 0 21G<16.5 214.5> 344 60<206.27 277.5> 392 20G<93.5 148.5>
VStem: 77 77<22.8749 341.22>
AnchorPoint: "cedilla" 116 -80 basechar 0
AnchorPoint: "top" 180 540 basechar 0
AnchorPoint: "l;bl" 0 10 basechar 0
AnchorPoint: "l;x" 0 385 basechar 0
AnchorPoint: "l;o" 0 200 basechar 0
AnchorPoint: "r;bl" 309 10 basechar 0
AnchorPoint: "r;x" 339 385 basechar 0
AnchorPoint: "r;o" 319 200 basechar 0
LayerCount: 3
Fore
SplineSet
147 412 m 1xb0
 150 412 155 410 156 406 c 1
 155 400 150 371 148 323 c 1
 157 332 162 341 169 349 c 0
 196 380 235 404 258 404 c 0
 297 404 314 378 314 352 c 0
 314 328 299 304 274 304 c 0
 237 304 246 344 212 344 c 0xd0
 183 344 154 314 154 271 c 2
 154 62 l 2
 154 0 216 30 216 8 c 0
 216 5 215 2 214 0 c 1
 17 0 l 1
 16 2 15 5 15 8 c 0
 15 30 77 -2 77 62 c 2
 77 298 l 2
 77 369 16 330 16 355 c 0
 16 386 40 352 147 412 c 1xb0
EndSplineSet
EndChar

StartChar: s
Encoding: 115 115 19
Width: 327
VWidth: 0
Flags: HW
HStem: -13 27<126.246 210.276> 381 23<125.986 198.463>
VStem: 30 24<112.839 137.888> 37 68<282.09 365.206> 233 59<35.3088 128.416>
AnchorPoint: "cedilla" 157 -80 basechar 0
AnchorPoint: "top" 164 540 basechar 0
AnchorPoint: "l;bl" 0 10 basechar 0
AnchorPoint: "l;x" 10 385 basechar 0
AnchorPoint: "l;o" 10 200 basechar 0
AnchorPoint: "r;bl" 327 10 basechar 0
AnchorPoint: "r;x" 327 385 basechar 0
AnchorPoint: "r;o" 327 200 basechar 0
LayerCount: 3
Fore
SplineSet
157 -13 m 0xd8
 106 -13 102 -3 84 -3 c 0
 76 -3 66 -5 49 -10 c 1
 45 -9 42 -7 41 -4 c 0
 40 29 42 69 30 133 c 1
 33 137 45 143 54 139 c 1xe8
 72 97 99 14 171 14 c 0
 221 14 233 59 233 82 c 0
 233 178 37 175 37 305 c 0
 37 358 77 404 164 404 c 0
 219 404 227 392 243 392 c 0
 249 392 255 394 265 397 c 0
 269 398 274 395 274 392 c 0
 274 332 275 328 280 288 c 1
 275 283 267 282 262 284 c 1
 242 317 222 381 157 381 c 0
 127 381 105 357 105 325 c 0
 105 240 292 242 292 102 c 0
 292 43 249 -13 157 -13 c 0xd8
EndSplineSet
EndChar

StartChar: t
Encoding: 116 116 20
Width: 303
VWidth: 0
Flags: HW
HStem: -12 44<168.161 254.147> 349 44<148.67 280.663>
VStem: 71.6704 77<51.5977 344>
AnchorPoint: "commaright" 233.672 540 basechar 0
AnchorPoint: "cedilla" 172.672 -80 basechar 0
AnchorPoint: "l;bl" 0 10 basechar 0
AnchorPoint: "l;x" 0 385 basechar 0
AnchorPoint: "l;o" 0 200 basechar 0
AnchorPoint: "r;bl" 303 10 basechar 0
AnchorPoint: "r;x" 303 385 basechar 0
AnchorPoint: "r;o" 283 200 basechar 0
LayerCount: 3
Fore
SplineSet
148.671875 349 m 1
 148.671875 192 l 2
 148.671875 77 155.671875 32 214.671875 32 c 0
 238.671875 32 261.671875 40 280.671875 46 c 1
 287.671875 41 288.671875 34 287.671875 29 c 1
 259.671875 10 214.671875 -12 172.671875 -12 c 0
 81.671875 -12 71.671875 52 71.671875 196 c 2
 71.671875 344 l 1
 28.671875 345 24.671875 343 24.671875 353 c 0
 24.671875 362 26.671875 361 115.671875 450 c 0
 123.671875 458 129.671875 466 139.671875 466 c 0
 146.671875 466 148.671875 459 148.671875 450 c 2
 148.671875 393 l 1
 269.671875 393 l 2
 280.671875 393 280.671875 389 280.671875 369 c 0
 280.671875 352 270.671875 349 254.671875 349 c 0
 243.671875 349 148.671875 349 148.671875 349 c 1
EndSplineSet
EndChar

StartChar: u
Encoding: 117 117 21
Width: 485
VWidth: 0
Flags: HW
HStem: -13 47<185.079 286.33> 372 20G<119.5 148 374.5 403>
VStem: 76 77<69.3069 354.28> 331 77<54.4961 354.28>
AnchorPoint: "top" 231 540 basechar 0
AnchorPoint: "l;bl" 20 10 basechar 0
AnchorPoint: "l;x" 0 385 basechar 0
AnchorPoint: "l;o" 10 200 basechar 0
AnchorPoint: "r;bl" 485 10 basechar 0
AnchorPoint: "r;x" 475 385 basechar 0
AnchorPoint: "r;o" 475 200 basechar 0
LayerCount: 3
Fore
SplineSet
408 331 m 2
 408 92 l 2
 408 9 469 60 469 28 c 0
 469 4 438 24 346 -8 c 1
 337 -8 l 1
 337 49 l 1
 337 49 296 14 285 8 c 0
 264 -4 239 -13 209 -13 c 0
 87 -13 76 86 76 177 c 2
 76 311 l 2
 76 382 15 343 15 369 c 0
 15 383 20 385 34 385 c 0
 102 387 93 383 146 392 c 1
 147 392 l 2
 149 392 153 391 155 386 c 0
 155 384 153 335 153 331 c 2
 153 195 l 2
 153 100 164 34 241 34 c 0
 284 34 331 58 331 83 c 2
 331 311 l 2
 331 382 270 343 270 369 c 0
 270 383 275 385 289 385 c 0
 357 387 348 383 401 392 c 1
 402 392 l 2
 404 392 408 391 410 386 c 0
 410 384 408 335 408 331 c 2
EndSplineSet
EndChar

StartChar: v
Encoding: 118 118 22
Width: 458
VWidth: 0
Flags: HW
HStem: -13 21G<211.5 227.5> 373 20G<16.5 213.5 272.5 441.5>
AnchorPoint: "l;bl" 30 10 basechar 0
AnchorPoint: "l;x" 0 385 basechar 0
AnchorPoint: "l;o" 10 200 basechar 0
AnchorPoint: "r;bl" 408 10 basechar 0
AnchorPoint: "r;x" 458 385 basechar 0
AnchorPoint: "r;o" 428 200 basechar 0
LayerCount: 3
Fore
SplineSet
15 385 m 0
 15 388 16 391 17 393 c 1
 213 393 l 1
 214 391 215 388 215 385 c 0
 215 371 197 377 175 371 c 0
 166 368 158 364 158 356 c 0
 158 332 218 165 247 94 c 1
 266 134 339 296 339 346 c 0
 339 359 334 367 324 370 c 0
 302 377 271 370 271 385 c 0
 271 388 272 391 273 393 c 1
 441 393 l 1
 442 391 443 388 443 385 c 0
 443 369 423 381 403 368 c 0
 389 359 380 341 369 315 c 2
 369 315 273 86 265 68 c 0
 244 22 235 -13 220 -13 c 2
 218 -13 l 2
 205 -13 208 -12 175 68 c 0
 114 214 73 334 64 350 c 0
 41 388 15 363 15 385 c 0
EndSplineSet
EndChar

StartChar: w
Encoding: 119 119 23
Width: 707
VWidth: 0
Flags: HW
HStem: -13 21G<227.5 244 447 463.5> 373 20G<16.5 215.5 266.5 456.5 519.5 690.5>
DStem2: 261 86 265 27 0.443514 0.896268<0 165.347>
AnchorPoint: "r;o" 677 200 basechar 0
AnchorPoint: "r;x" 707 385 basechar 0
AnchorPoint: "r;bl" 657 10 basechar 0
AnchorPoint: "l;o" 10 200 basechar 0
AnchorPoint: "l;x" 0 385 basechar 0
AnchorPoint: "l;bl" 30 10 basechar 0
AnchorPoint: "top" 355 540 basechar 0
LayerCount: 3
Fore
SplineSet
458 385 m 0
 458 365 403 386 403 353 c 0
 403 324 455 172 486 93 c 1
 535 202 591 308 591 345 c 0
 591 359 577 368 571 370 c 0
 549 377 518 370 518 385 c 0
 518 388 519 391 520 393 c 1
 690 393 l 1
 691 391 692 388 692 385 c 0
 692 369 670 381 650 368 c 0
 641 362 627 339 619 320 c 0
 577 223 530 120 485 27 c 0
 467 -10 468 -13 459 -13 c 2
 452 -13 l 2
 442 -13 442 -11 428 27 c 0
 402 98 386 147 361 221 c 1
 265 27 l 2
 247 -9 248 -13 240 -13 c 2
 232 -13 l 2
 223 -13 222 -10 205 27 c 0
 65 350 68 343 64 350 c 0
 41 388 15 363 15 385 c 0
 15 388 16 391 17 393 c 1
 215 393 l 1
 216 391 217 388 217 385 c 0
 217 371 199 377 177 371 c 0
 169 368 162 364 162 354 c 0
 162 329 217 191 261 86 c 1
 292 149 324 200 348 263 c 1
 328 326 l 2
 320 353 316 363 300 369 c 0
 279 377 265 370 265 385 c 0
 265 388 266 391 267 393 c 1
 456 393 l 1
 457 391 458 388 458 385 c 0
EndSplineSet
EndChar

StartChar: x
Encoding: 120 120 24
Width: 450
VWidth: 0
Flags: HW
HStem: 0 21G<16.5 183.5 231.5 433.5> 373 20G<25.5 219.5 259.5 421.5>
DStem2: 193 311 115 312 0.525969 -0.850504<-45.1097 86.4044 133.764 276.425> 148 129 175 117 0.602453 0.798154<-89.5248 63.2844 138.418 275.557>
AnchorPoint: "l;bl" 0 10 basechar 0
AnchorPoint: "l;x" 0 385 basechar 0
AnchorPoint: "l;o" 20 200 basechar 0
AnchorPoint: "r;bl" 450 10 basechar 0
AnchorPoint: "r;x" 450 385 basechar 0
AnchorPoint: "r;o" 430 200 basechar 0
LayerCount: 3
Fore
SplineSet
122 36 m 0
 122 11 185 26 185 8 c 0
 185 5 184 2 183 0 c 1
 17 0 l 1
 16 2 15 5 15 8 c 0
 15 22 41 15 60 25 c 0
 79 35 100 64 148 129 c 2
 168 156 l 1
 193 186 l 1
 172 219 l 1
 115 312 l 2
 106 327 96 343 88 352 c 0
 69 373 54 372 43 374 c 0
 31 376 24 374 24 385 c 0
 24 388 25 391 26 393 c 1
 219 393 l 1
 220 391 221 388 221 385 c 0
 221 369 198 381 180 364 c 0
 177 361 176 356 176 354 c 0
 176 344 182 330 193 311 c 2
 214 276 l 1
 236 236 l 1
 263 276 l 2
 297 325 308 343 308 354 c 0
 308 361 303 366 296 369 c 0
 277 378 258 371 258 385 c 0
 258 388 259 391 260 393 c 1
 421 393 l 1
 422 391 423 388 423 385 c 0
 423 370 408 380 382 371 c 0
 377 369 357 361 332 325 c 2
 253 213 l 1
 334 83 l 2
 338 77 357 46 379 30 c 0
 406 11 435 24 435 8 c 0
 435 5 434 2 433 0 c 1
 232 0 l 1
 231 2 230 5 230 8 c 0
 230 27 277 6 277 37 c 0
 277 56 239 112 228 130 c 2
 208 163 l 1
 175 117 l 2
 152 84 122 45 122 36 c 0
EndSplineSet
EndChar

StartChar: y
Encoding: 121 121 25
Width: 495
VWidth: 0
Flags: HW
HStem: -224 81<73.2939 141.303> 373 20G<16.5 216.5 309.5 478.5>
AnchorPoint: "l;o" 10 200 basechar 0
AnchorPoint: "l;x" 0 385 basechar 0
AnchorPoint: "l;bl" 30 10 basechar 0
AnchorPoint: "r;o" 445 200 basechar 0
AnchorPoint: "r;x" 495 385 basechar 0
AnchorPoint: "r;bl" 395 10 basechar 0
AnchorPoint: "top" 256 540 basechar 0
AnchorPoint: "l;lo" 20 -200 basechar 0
LayerCount: 3
Fore
SplineSet
139 -143 m 0
 158 -143 207 -44 207 -6 c 0
 207 15 197 19 106 248 c 0
 73 331 70 341 64 350 c 0
 41 388 15 363 15 385 c 0
 15 388 16 391 17 393 c 1
 216 393 l 1
 217 391 218 388 218 385 c 0
 218 371 200 377 178 371 c 0
 169 368 161 364 161 356 c 0
 161 334 191 236 237 126 c 0
 248 98 252 84 256 84 c 0
 260 84 265 98 279 126 c 0
 343 251 376 327 376 347 c 0
 376 356 373 367 361 370 c 0
 339 377 308 370 308 385 c 0
 308 388 309 391 310 393 c 1
 478 393 l 1
 479 391 480 388 480 385 c 0
 480 369 460 381 440 368 c 0
 432 363 407 324 392 294 c 8
 308.278320312 132.537109375 235.346679688 -34.541015625 193 -115 c 0
 142 -214 130 -224 93 -224 c 0
 61 -224 47 -198 47 -175 c 0
 47 -150 63 -126 91 -126 c 0
 121 -126 126 -143 139 -143 c 0
EndSplineSet
AlternateSubs2: "'aalt' Access All Alternates lookup 0 subtable" y.ld
AlternateSubs2: "'aalt' Access All Alternates in Latin lookup 0 subtable" y.ld
Substitution2: "'ss01' Style Set 1 in Latin lookup 1 subtable" y.ld
EndChar

StartChar: z
Encoding: 122 122 26
Width: 421
VWidth: 0
Flags: HW
HStem: -7 21G<356 365> 0 30<144.863 320.067> 365 28<110.144 266.09> 392 20G<70.5 101>
VStem: 35 19<287.947 297.434>
DStem2: 38 17 145 36 0.5547 0.83205<75.1619 411.033>
AnchorPoint: "top" 227 540 basechar 0
AnchorPoint: "l;bl" 20 10 basechar 0
AnchorPoint: "l;x" 0 385 basechar 0
AnchorPoint: "l;o" 0 200 basechar 0
AnchorPoint: "r;bl" 421 10 basechar 0
AnchorPoint: "r;x" 421 385 basechar 0
AnchorPoint: "r;o" 421 200 basechar 0
LayerCount: 3
Fore
SplineSet
370 -2 m 2x68
 369 -6 367 -7 363 -7 c 0x88
 349 -7 307 0 293 0 c 2
 51 0 l 2
 38 0 34 1 34 5 c 0
 34 8 36 14 38 17 c 2
 266 359 l 2
 268 362 265 365 262 365 c 2
 177 365 l 2x68
 104 365 100 345 54 287 c 1
 48 284 37 289 35 294 c 1
 44 320 55 361 65 407 c 0
 66 410 69 412 72 412 c 1x18
 101 400 l 2
 114 395 118 393 127 393 c 2
 362 393 l 2
 375 393 379 389 379 385 c 0
 379 381 376 377 374 374 c 2
 145 36 l 2
 142 31 144 30 149 30 c 2
 221 30 l 2
 286 30 311 35 331 53 c 0
 348 68 381 121 389 121 c 0
 396 121 406 118 406 113 c 0
 406 112 402 101 393 73 c 2
 370 -2 l 2x68
EndSplineSet
EndChar

StartChar: A
Encoding: 65 65 27
Width: 725
VWidth: 0
Flags: W
HStem: 0 21G<32.5 259.5 420.5 688.5> 240 36<226.095 415.999> 630 20G<338.5 360.5>
VStem: 30 116<8 60.5>
DStem2: 116 79 161 114 0.342815 0.939403<-12.6237 187.203 227.592 502.367> 411 540 333 515 0.367428 -0.930052<-32.101 243.519 281.956 489.34>
AnchorPoint: "top" 346 740 basechar 0
LayerCount: 3
Fore
SplineSet
309 515 m 2
 232 304 l 2
 228 295 225 284 226 281 c 0
 228 275 232 276 237 276 c 2
 401 276 l 2
 415 276 416 277 416 280 c 0
 416 283 416 287 414 293 c 2
 333 515 l 2
 326 535 323 539 321 539 c 0
 319 539 316 535 309 515 c 2
418 10 m 0
 418 35 502 5 502 49 c 0
 502 66 492 94 440 223 c 0
 434 239 432 240 419 240 c 2
 222 240 l 2
 210 240 208 239 203 226 c 2
 161 114 l 2
 150 85 146 67 146 54 c 0
 146 44 148 38 152 34 c 0
 170 15 261 33 261 10 c 0
 261 6 260 2 259 0 c 1
 33 0 l 1
 32 2 30 6 30 10 c 0
 30 29 68 11 93 38 c 0
 101 46 109 60 116 79 c 0
 195 275 285 531 321 625 c 0
 330 649 332 650 345 650 c 2
 355 650 l 2
 366 650 369 648 372 641 c 2
 411 540 l 2
 589 81 566 139 596 74 c 0
 603 59 608 40 627 29 c 0
 644 20 690 27 690 10 c 0
 690 6 689 2 688 0 c 1
 421 0 l 1
 420 2 418 6 418 10 c 0
EndSplineSet
EndChar

StartChar: B
Encoding: 66 66 28
Width: 566
VWidth: 0
Flags: W
HStem: 0 30<216.481 361.581> 332 25<211 318.225> 621 25<215.814 338.315>
VStem: 116 95<31.8904 332 357 615.2> 408 93<430.736 570.005> 435 102<91.3775 254.449>
LayerCount: 3
Fore
SplineSet
408 495 m 0xf8
 408 578 350 621 281 621 c 2
 259 621 l 2
 218 621 211 620 211 570 c 2
 211 357 l 1
 249 357 l 2
 322 357 408 393 408 495 c 0xf8
116 571 m 2
 116 649 28 609 28 636 c 0
 28 640 30 644 31 646 c 1
 268 646 l 2
 374 646 501 641 501 497 c 0xf8
 501 378 342 348 342 348 c 1
 342 348 537 341 537 176 c 0xf4
 537 22 385 0 243 0 c 2
 31 0 l 1
 30 2 28 6 28 10 c 0
 28 37 116 -3 116 75 c 2
 116 571 l 2
435 171 m 0xf4
 435 278 357 332 273 332 c 2
 211 332 l 1
 211 85 l 2
 211 40 220 30 247 30 c 2
 283 30 l 2
 405 30 435 101 435 171 c 0xf4
EndSplineSet
EndChar

StartChar: C
Encoding: 67 67 29
Width: 668
VWidth: 0
Flags: W
HStem: -21 32<299.63 467.271> 637 27<309.747 455.476>
VStem: 20 107<200.731 433.681> 599 20<474.093 507.681>
AnchorPoint: "cedilla" 372 -80 basechar 0
AnchorPoint: "top" 370 740 basechar 0
LayerCount: 3
Fore
SplineSet
574 611 m 0
 579 611 585 633 597 633 c 0
 608 633 608 628 609 613 c 0
 613 548 619 498 619 486 c 0
 619 477 619 476 610 474 c 0
 601 472 600 479 599 482 c 0
 581 549 494 637 381 637 c 0
 229 637 127 491 127 317 c 0
 127 115 252 11 384 11 c 0
 443 11 490 32 523 58 c 0
 568 94 591 140 601 159 c 0
 605 166 607 168 611 168 c 0
 615 168 617 166 617 162 c 2
 609 56 l 2
 607 25 602 29 581 25 c 0
 568 23 552 20 544 16 c 0
 480 -11 424 -21 372 -21 c 0
 139 -21 20 152 20 319 c 0
 20 482 141 664 375 664 c 0
 482 664 572 611 574 611 c 0
EndSplineSet
EndChar

StartChar: D
Encoding: 68 68 30
Width: 722
VWidth: 0
Flags: W
HStem: -0 31<215.731 391.314> 618 28<214.535 399.01>
VStem: 115 95<34.3536 614.11> 581 111<208.686 441.505>
LayerCount: 3
Fore
SplineSet
30 0 m 1
 29 2 27 6 27 10 c 0
 27 37 115 -3 115 75 c 2
 115 571 l 2
 115 649 27 609 27 636 c 0
 27 640 29 644 30 646 c 1
 273 646 l 2
 387 646 452 639 522 610 c 0
 633 563 692 446 692 327 c 0
 692 187 610 44 428 9 c 0
 382 0 312 0 266 -0 c 2
 30 0 l 1
210 573 m 2
 210 85 l 2
 210 32 220 31 280 31 c 0
 528 31 581 212 581 325 c 0
 581 415 545 508 470 569 c 0
 417 612 346 618 286 618 c 0
 212 618 210 613 210 573 c 2
EndSplineSet
EndChar

StartChar: E
Encoding: 69 69 31
Width: 559
VWidth: 0
Flags: W
HStem: 0 27<204.075 463.099> 313 21<203.029 332.259> 619 27<204.617 419.642>
VStem: 108 95<30.7996 312.755 334.021 615.2> 375 21<198.003 258.553 390.241 462.997>
AnchorPoint: "top" 297 740 basechar 0
LayerCount: 3
Fore
SplineSet
391 326 m 0
 391 244 396 220 396 207 c 0
 396 199 394 198 386 198 c 0
 378 198 376 199 375 207 c 0
 369 243 366 313 294 313 c 2
 239 313 l 2
 222 313 203 313 203 302 c 2
 203 49 l 2
 203 39 205 27 236 27 c 2
 426 27 l 2
 456 27 462 38 476 57 c 0
 496 84 512 115 526 139 c 0
 528 143 531 147 537 145 c 0
 543 143 544 143 544 137 c 0
 544 132 542 123 539 110 c 0
 524 41 520 0 507 0 c 2
 23 0 l 1
 22 2 20 6 20 10 c 0
 20 37 108 -3 108 75 c 2
 108 571 l 2
 108 649 20 609 20 636 c 0
 20 640 22 644 23 646 c 1
 375 646 l 2
 423 646 466 650 476 650 c 0
 492 650 485 639 496 572 c 0
 500 545 505 519 505 506 c 0
 505 499 501 498 498 497 c 0
 490 494 485 504 484 505 c 0
 469 527 425 619 399 619 c 2
 222 619 l 2
 210 619 203 609 203 595 c 2
 203 343 l 2
 203 335 213 334 228 334 c 2
 294 334 l 2
 372 334 369 418 375 454 c 0
 376 462 378 463 386 463 c 0
 394 463 396 462 396 454 c 0
 396 441 391 408 391 326 c 0
EndSplineSet
EndChar

StartChar: F
Encoding: 70 70 32
Width: 543
VWidth: 0
Flags: W
HStem: 0 21G<22.5 299.5> 305 21<203.029 330.668> 619 27<204.526 429.174>
VStem: 108 95<32.5851 304.755 326.021 615.2> 375 21<188.003 246.992 376.926 449.997>
LayerCount: 3
Fore
SplineSet
294 305 m 2
 239 305 l 2
 222 305 203 305 203 294 c 2
 203 75 l 2
 203 -1 301 36 301 10 c 0
 301 6 300 2 299 0 c 1
 23 0 l 1
 22 2 20 6 20 10 c 0
 20 37 108 -3 108 75 c 2
 108 571 l 2
 108 649 20 609 20 636 c 0
 20 640 22 644 23 646 c 1
 378 646 l 2
 426 646 478 651 488 651 c 0
 499 651 503 644 506 628 c 0
 510 608 532 526 532 522 c 0
 532 518 524 510 512 525 c 0
 494 547 429 619 400 619 c 2
 220 619 l 2
 208 619 203 608 203 594 c 2
 203 335 l 2
 203 327 213 326 228 326 c 2
 294 326 l 2
 374 326 369 405 375 441 c 0
 376 449 378 450 386 450 c 0
 394 450 396 449 396 441 c 0
 396 428 391 400 391 318 c 0
 391 236 396 210 396 197 c 0
 396 189 394 188 386 188 c 0
 378 188 376 189 375 197 c 0
 369 233 362 305 294 305 c 2
EndSplineSet
EndChar

StartChar: G
Encoding: 71 71 33
Width: 752
VWidth: 0
Flags: W
HStem: -22 33<311.58 497.985> 33 27<655.326 695.99> 636 28<311.752 490.14>
VStem: 23 103<194.494 439.374> 559 85<63.2706 241.476> 637 21<458.093 489.541>
AnchorPoint: "cedilla" 403 -80 basechar 0
AnchorPoint: "top" 389 740 basechar 0
LayerCount: 3
Fore
SplineSet
732 272 m 0xf8
 732 245 644 285 644 207 c 2
 644 124 l 2xf8
 644 61 666 63 679 60 c 0
 694 56 696 57 696 47 c 0
 696 37 693 39 662 33 c 0
 518 7 479 -22 386 -22 c 0
 147 -22 23 136 23 319 c 0
 23 491 148 664 389 664 c 0
 522 664 596 607 598 607 c 0
 603 607 630 618 639 618 c 0
 645 618 651 614 651 599 c 0
 651 591 650 591 650 557 c 0
 650 531 658 476 658 467 c 0
 658 461 658 460 650 458 c 0
 641 456 638 463 637 466 c 0xf4
 603 550 548 636 398 636 c 0
 186 636 126 455 126 323 c 0
 126 130 243 11 403 11 c 0
 462 11 522 32 542 49 c 0
 556 62 559 80 559 99 c 2
 559 187 l 2
 559 224 546 241 524 250 c 0
 485 266 421 253 421 272 c 0
 421 276 422 280 423 282 c 1
 729 282 l 1
 730 280 732 276 732 272 c 0xf8
EndSplineSet
EndChar

StartChar: H
Encoding: 72 72 34
Width: 824
VWidth: 0
Flags: W
HStem: 0 21G<40.5 317.5 503.5 780.5> 311 31<221 599> 626 20G<39.5 316.5 502.5 779.5>
VStem: 126 95<32.5851 311 342 614.11> 599 95<31.8904 311 342 614.11>
AnchorPoint: "top" 411 740 basechar 0
LayerCount: 3
Fore
SplineSet
501 636 m 0
 501 640 502 644 503 646 c 1
 779 646 l 1
 780 644 782 640 782 636 c 0
 782 609 694 649 694 571 c 2
 694 75 l 2
 694 -1 782 36 782 10 c 0
 782 6 781 2 780 0 c 1
 504 0 l 1
 503 2 501 6 501 10 c 0
 501 37 599 -3 599 75 c 2
 599 311 l 1
 221 311 l 1
 221 75 l 2
 221 -1 319 36 319 10 c 0
 319 6 318 2 317 0 c 1
 41 0 l 1
 40 2 38 6 38 10 c 0
 38 37 126 -3 126 75 c 2
 126 571 l 2
 126 647 38 610 38 636 c 0
 38 640 39 644 40 646 c 1
 316 646 l 1
 317 644 319 640 319 636 c 0
 319 609 221 649 221 571 c 2
 221 342 l 1
 599 342 l 1
 599 571 l 2
 599 649 501 610 501 636 c 0
EndSplineSet
EndChar

StartChar: I
Encoding: 73 73 35
Width: 316
VWidth: 0
Flags: W
HStem: 0 21G<19.5 286.5> 626 20G<18.5 285.5>
VStem: 105 95<31.4844 614.516>
AnchorPoint: "top" 154 740 basechar 0
LayerCount: 3
Fore
SplineSet
200 571 m 2
 200 75 l 2
 200 -1 288 36 288 10 c 0
 288 6 287 2 286 0 c 1
 20 0 l 1
 19 2 17 6 17 10 c 0
 17 37 105 -3 105 75 c 2
 105 571 l 2
 105 647 17 610 17 636 c 0
 17 640 18 644 19 646 c 1
 285 646 l 1
 286 644 288 640 288 636 c 0
 288 609 200 649 200 571 c 2
EndSplineSet
EndChar

StartChar: J
Encoding: 74 74 36
Width: 316
VWidth: 0
Flags: W
HStem: -211 76<-37 89> 626 20G<26.5 293.5>
VStem: 113 95<-37.1316 614.516>
AnchorPoint: "top" 161 740 basechar 0
LayerCount: 3
Fore
SplineSet
113 571 m 2
 113 647 25 610 25 636 c 0
 25 640 26 644 27 646 c 1
 293 646 l 1
 294 644 296 640 296 636 c 0
 296 609 208 649 208 571 c 2
 208 126 l 2
 208 38 208 -84 83 -170 c 0
 44 -197 3 -211 -16 -211 c 0
 -58 -211 -84 -175 -84 -143 c 0
 -84 -113 -67 -86 -29 -86 c 0
 26 -86 38 -135 76 -135 c 0
 102 -135 113 -82 113 128 c 2
 113 571 l 2
EndSplineSet
EndChar

StartChar: K
Encoding: 75 75 37
Width: 710
VWidth: 0
Flags: W
HStem: 0 21G<22.5 289.5 392.5 692.5> 309 23<203 254.898> 626 20G<21.5 298.5 410.5 641.5>
VStem: 108 95<31.4844 308 333 614.11>
DStem2: 364 328 287 275 0.651767 -0.758419<-56.757 281.548> 290 372 354 402 0.686957 0.726698<29.1406 296.786>
AnchorPoint: "cedilla" 343 -80 basechar 0
LayerCount: 3
Fore
SplineSet
390 10 m 0
 390 32 466 11 466 44 c 0
 466 53 461 64 446 82 c 2
 287 275 l 2
 263 304 244 309 214 309 c 0
 210 309 203 308 203 308 c 1
 203 75 l 2
 203 -1 291 36 291 10 c 0
 291 6 290 2 289 0 c 1
 23 0 l 1
 22 2 20 6 20 10 c 0
 20 37 108 -3 108 75 c 2
 108 571 l 2
 108 647 20 610 20 636 c 0
 20 640 21 644 22 646 c 1
 298 646 l 1
 299 644 301 640 301 636 c 0
 301 609 203 649 203 571 c 2
 203 333 l 1
 203 333 209 332 216 332 c 0
 232 332 251 334 290 372 c 0
 326 407 307 388 461 553 c 0
 467 560 485 581 485 598 c 0
 485 605 481 612 474 616 c 0
 451 630 409 620 409 636 c 0
 409 640 410 644 411 646 c 1
 641 646 l 1
 642 644 644 640 644 636 c 0
 644 620 620 629 589 619 c 0
 539 603 509 566 475 530 c 2
 354 402 l 2
 339 386 330 380 330 374 c 0
 330 366 340 356 364 328 c 2
 584 72 l 2
 643 3 694 31 694 10 c 0
 694 6 693 2 692 0 c 1
 393 0 l 1
 392 2 390 6 390 10 c 0
EndSplineSet
EndChar

StartChar: L
Encoding: 76 76 38
Width: 601
VWidth: 0
Flags: W
HStem: 0 34<201.528 480.827> 626 20G<19.5 286.5>
VStem: 106 95<35.0577 614.516>
AnchorPoint: "commaright" 318 540 basechar 0
AnchorPoint: "cedilla" 323 -80 basechar 0
AnchorPoint: "top" 155 740 basechar 0
LayerCount: 3
Fore
SplineSet
20 0 m 1
 19 2 18 6 18 10 c 0
 18 36 106 -1 106 75 c 2
 106 571 l 2
 106 647 18 610 18 636 c 0
 18 640 19 644 20 646 c 1
 286 646 l 1
 287 644 289 640 289 636 c 0
 289 609 201 649 201 571 c 2
 201 56 l 2
 201 45 208 34 226 34 c 2
 436 34 l 2
 477 34 487 45 554 168 c 0
 558 176 573 172 573 162 c 0
 573 160 572 138 560 80 c 0
 548 25 546 0 530 0 c 2
 20 0 l 1
EndSplineSet
EndChar

StartChar: N
Encoding: 78 78 39
Width: 802
VWidth: 0
Flags: W
HStem: 0 11G<57.5 284.5 658.5 667.5> 626 20G<40.5 198 538.5 771.5>
VStem: 151 33<41.14 308.716> 652 26<265.316 585.624>
DStem2: 238 617 125 585 0.672589 -0.740016<-57.5798 23.8985 43.2533 616.052>
AnchorPoint: "top" 415 740 basechar 0
LayerCount: 3
Fore
SplineSet
38 636 m 0
 38 640 40 644 41 646 c 1
 198 645 l 2
 215 645 219 639 238 617 c 2
 601 211 l 2
 632 177 648 158 649 158 c 0
 651 158 652 210 652 456 c 0
 652 551 652 600 606 617 c 0
 576 628 537 619 537 636 c 0
 537 640 538 644 539 646 c 1
 771 646 l 1
 772 644 774 640 774 636 c 0
 774 619 739 631 710 615 c 0
 678 597 678 554 678 423 c 2
 677 16 l 2
 677 -10 668 -10 667 -10 c 2
 662 -10 l 2
 655 -10 663 -9 524 146 c 2
 250 450 l 2
 214 490 191 515 190 515 c 0
 188 515 184 226 184 153 c 0
 184 124 185 100 185 85 c 0
 187 50 199 37 207 32 c 0
 230 16 286 30 286 10 c 0
 286 6 285 2 284 0 c 1
 58 0 l 1
 57 2 55 6 55 10 c 0
 55 30 106 13 131 37 c 0
 147 53 150 71 151 110 c 0
 157 235 160 352 160 435 c 2
 160 532 l 2
 160 543 160 549 145 564 c 2
 125 585 l 2
 112 599 100 608 91 614 c 0
 63 631 38 619 38 636 c 0
EndSplineSet
EndChar

StartChar: O
Encoding: 79 79 40
Width: 746
VWidth: 0
Flags: W
HStem: -22 33<310.968 470.399> 632 32<297.944 463.138>
VStem: 42 111<201.09 453.773> 613 98<189.034 459.522>
AnchorPoint: "top" 378 740 basechar 0
LayerCount: 3
Fore
SplineSet
378 632 m 0
 221 632 153 482 153 330 c 0
 153 172 229 11 390 11 c 0
 480 11 613 61 613 326 c 0
 613 509 530 632 378 632 c 0
375 664 m 0
 553 664 711 561 711 325 c 0
 711 90 549 -22 385 -22 c 0
 215 -22 42 98 42 330 c 0
 42 498 153 664 375 664 c 0
EndSplineSet
EndChar

StartChar: P
Encoding: 80 80 41
Width: 555
VWidth: 0
Flags: W
HStem: 0 21G<27.5 304.5> 268 40<223.125 353.954> 621 25<214.381 343.394>
VStem: 113 95<32.5851 294 313 615.2> 434 92<380.663 546.362>
LayerCount: 3
Fore
SplineSet
28 646 m 1
 313 646 l 2
 365 646 526 620 526 458 c 0
 526 345 442 268 334 268 c 0
 264 268 208 294 208 294 c 1
 208 75 l 2
 208 -1 306 36 306 10 c 0
 306 6 305 2 304 0 c 1
 28 0 l 1
 27 2 25 6 25 10 c 0
 25 37 113 -3 113 75 c 2
 113 571 l 2
 113 649 25 609 25 636 c 0
 25 640 27 644 28 646 c 1
434 470 m 0
 434 507 411 621 281 621 c 2
 274 621 l 2
 219 621 208 620 208 572 c 2
 208 313 l 1
 208 313 240 308 263 308 c 0
 363 308 434 361 434 470 c 0
EndSplineSet
EndChar

StartChar: Q
Encoding: 81 81 42
Width: 735
VWidth: 0
Flags: W
HStem: -196 50<629 768.028> -175 34<735.702 789.994> -18 26<277.64 355.996> 636 28<297.625 433.45>
VStem: 17 105<186.223 414.213> 600 106<231.943 461.597>
LayerCount: 3
Fore
SplineSet
774 -141 m 0x7c
 785 -138 790 -147 790 -158 c 0
 790 -166 782 -170 765 -175 c 0x7c
 732 -185 676 -196 658 -196 c 0
 600 -196 567 -171 514 -142 c 24
 448 -106 420 -80 356 -30 c 0
 342 -19 330 -20 312 -18 c 0
 193 -6 17 86 17 308 c 0
 17 480 141 664 372 664 c 0
 555 664 706 540 706 342 c 0
 706 145 525 37 484 14 c 0
 480 12 474 8 474 6 c 0
 474 2 481 -4 484 -6 c 0
 521 -33 674 -146 735 -146 c 0xbc
 750 -146 764 -144 774 -141 c 0x7c
122 276 m 0
 122 95 232 8 356 8 c 0
 518 8 600 167 600 342 c 0
 600 503 504 636 361 636 c 0
 191 636 122 403 122 276 c 0
EndSplineSet
Validated: 1
EndChar

StartChar: R
Encoding: 82 82 43
Width: 660
VWidth: 0
Flags: W
HStem: 0 21G<26.5 303.5 529 643.5> 298 25<207 294.119> 621 25<211.488 339.342>
VStem: 112 95<32.5851 298 323 615.2> 416 95<408.578 561.826>
DStem2: 397 301 319 252 0.574823 -0.818278<-26.0992 318.142>
AnchorPoint: "top" 283 740 basechar 0
LayerCount: 3
Fore
SplineSet
416 491 m 0
 416 560 373 602 320 616 c 0
 303 620 280 621 260 621 c 2
 238 621 l 2
 214 621 207 614 207 574 c 2
 207 323 l 1
 249 323 l 2
 329 323 416 356 416 491 c 0
643 0 m 1
 555 -0 l 2
 503 0 496 0 489 10 c 2
 395 144 l 2
 373 177 344 212 319 252 c 0
 294 291 294 298 250 298 c 2
 207 298 l 1
 207 75 l 2
 207 -1 305 36 305 10 c 0
 305 6 304 2 303 0 c 1
 27 0 l 1
 26 2 24 6 24 10 c 0
 24 37 112 -3 112 75 c 2
 112 571 l 2
 112 649 24 609 24 636 c 0
 24 640 26 644 27 646 c 1
 253 646 l 2
 294 646 339 643 381 633 c 0
 454 615 511 565 511 484 c 0
 511 362 384 337 384 324 c 0
 384 319 389 314 397 301 c 0
 469 192 565 59 587 36 c 0
 611 12 645 30 645 10 c 0
 645 6 644 2 643 0 c 1
EndSplineSet
EndChar

StartChar: S
Encoding: 83 83 44
Width: 458
VWidth: 0
Flags: W
HStem: -17 30<159.203 286.217> 633 28<165.86 288.594>
VStem: 19 26<147.301 179.77> 24 76<466.735 568.485> 362 78<94.7547 211.558>
AnchorPoint: "cedilla" 218 -80 basechar 0
AnchorPoint: "top" 230 740 basechar 0
LayerCount: 3
Fore
SplineSet
218 -17 m 4xd8
 167 -17 146 -13 110 -6 c 0
 41 7 32 14 32 16 c 0
 32 17 33 17 33 17 c 1
 33 41 19 152 19 171 c 0
 19 180 25 181 31 182 c 0
 39 184 43 179 45 174 c 0xe8
 83 92 132 13 218 13 c 0
 318 13 362 92 362 148 c 0
 362 322 24 292 24 483 c 0
 24 592 107 661 230 661 c 0
 308 661 349 628 362 628 c 0
 369 628 392 634 395 634 c 0
 400 634 403 631 404 620 c 0
 406 591 417 522 420 493 c 0
 421 486 420 482 411 480 c 0
 405 479 401 482 395 494 c 0
 373 534 331 633 228 633 c 0
 180 633 100 607 100 519 c 0
 100 375 440 412 440 182 c 0
 440 49 309 -17 218 -17 c 4xd8
EndSplineSet
EndChar

StartChar: T
Encoding: 84 84 45
Width: 700
VWidth: 0
Flags: W
HStem: 0 21G<198.5 500.5> 610 34<82.2109 295.573 402.87 622.61>
VStem: 302 95<32.9031 608.062>
AnchorPoint: "cedilla" 351 -80 basechar 0
AnchorPoint: "top" 351 740 basechar 0
LayerCount: 3
Fore
SplineSet
199 0 m 1
 198 2 197 6 197 10 c 0
 197 36 302 -3 302 75 c 2
 302 513 l 2
 302 607 296 610 260 610 c 2
 162 610 l 2
 95 610 99 608 74 586 c 0
 31 548 15 532 12 532 c 0
 10 532 1 535 1 540 c 0
 1 543 36 635 42 659 c 0
 43 662 45 664 48 664 c 0
 54 664 76 644 90 644 c 2
 613 644 l 2
 621 644 648 660 652 660 c 0
 657 660 659 657 662 647 c 2
 673 605 l 2
 679 581 693 537 693 534 c 0
 693 531 686 528 682 528 c 0
 678 528 651 563 623 593 c 0
 609 608 599 610 578 610 c 2
 437 610 l 2
 398 610 397 595 397 515 c 2
 397 75 l 2
 397 -3 502 36 502 10 c 0
 502 6 501 2 500 0 c 1
 199 0 l 1
EndSplineSet
EndChar

StartChar: U
Encoding: 85 85 46
Width: 750
VWidth: 0
Flags: W
HStem: -20 56<301.739 486.881> 626 20G<20.5 297.5 484.5 712.5>
VStem: 107 95<162.324 614.11> 602 28<214.545 581.544>
AnchorPoint: "top" 395 740 basechar 0
LayerCount: 3
Fore
SplineSet
630 479 m 2
 630 408 l 2
 630 264 628 239 616 183 c 0
 582 31 498 -20 368 -20 c 0
 116 -20 107 166 107 392 c 2
 107 571 l 2
 107 647 19 610 19 636 c 0
 19 640 20 644 21 646 c 1
 297 646 l 1
 298 644 300 640 300 636 c 0
 300 609 202 649 202 571 c 2
 202 359 l 2
 202 211 215 36 386 36 c 0
 514 36 602 91 602 325 c 2
 602 465 l 2
 602 530 597 570 582 594 c 0
 552 641 483 615 483 636 c 0
 483 640 484 644 485 646 c 1
 712 646 l 1
 713 644 715 640 715 636 c 0
 715 611 658 642 641 594 c 0
 634 574 630 539 630 479 c 2
EndSplineSet
EndChar

StartChar: V
Encoding: 86 86 47
Width: 760
VWidth: 0
Flags: W
HStem: -20 21G<332.5 350> 626 20G<41.5 279.5 497.5 739.5>
VStem: 593 149<526 638>
LayerCount: 3
Fore
SplineSet
391 111 m 0
 405 111 593 491 593 561 c 0
 593 582 590 596 585 604 c 0
 566 634 496 614 496 636 c 0
 496 640 497 644 498 646 c 1
 739 646 l 1
 740 644 742 640 742 636 c 0
 742 615 711 636 676 610 c 0
 664 601 651 584 641 565 c 0
 609 505 606 486 571 404 c 2
 536 324 l 2
 505 255 457 158 377 24 c 0
 362 -1 354 -20 346 -20 c 2
 339 -20 l 2
 326 -20 324 -15 218 280 c 0
 127 534 119 581 97 610 c 0
 78 634 40 616 40 636 c 0
 40 640 41 644 42 646 c 1
 279 646 l 1
 280 644 282 640 282 636 c 0
 282 622 258 627 239 621 c 0
 228 617 223 610 223 595 c 0
 223 583 228 567 236 542 c 0
 297 360 342 235 367 168 c 0
 381 130 389 111 391 111 c 0
EndSplineSet
EndChar

StartChar: W
Encoding: 87 87 48
Width: 1069
VWidth: 0
Flags: W
HStem: -20 21G<286.5 301 697.5 712> 626 20G<29.5 290.5 414.5 698.5 850.5 1043.5>
VStem: 28 191<577 638> 925 121<565.5 638>
DStem2: 225 546 164 388 0.272367 -0.962193<-37.5653 445.837> 615 558 531 477 0.304009 -0.952669<-23.8099 72.8814 92.4317 453.149>
AnchorPoint: "top" 560 740 basechar 0
LayerCount: 3
Fore
SplineSet
615 558 m 2
 698 276 l 2
 723 193 746 125 749 125 c 0
 751 125 784 203 822 295 c 0
 886 449 925 546 925 585 c 0
 925 601 915 611 902 617 c 0
 880 627 849 621 849 636 c 0
 849 640 850 644 851 646 c 1
 1043 646 l 1
 1044 644 1046 640 1046 636 c 0
 1046 619 1020 632 996 615 c 0
 961 591 966 558 862 318 c 2
 734 24 l 2
 722 -3 716 -20 708 -20 c 2
 702 -20 l 2
 693 -20 686 -6 681 10 c 2
 543 438 l 1
 510 378 496 320 328 24 c 0
 314 -2 305 -20 297 -20 c 2
 291 -20 l 2
 282 -20 275 -6 271 10 c 2
 164 388 l 2
 110 578 114 592 87 613 c 0
 63 632 28 619 28 636 c 0
 28 640 29 644 30 646 c 1
 290 646 l 1
 291 644 293 640 293 636 c 0
 293 619 257 629 233 612 c 0
 225 606 219 597 219 584 c 0
 219 570 223 556 225 546 c 0
 247 459 294 279 322 182 c 0
 333 142 341 116 343 116 c 0
 352 116 461 340 531 477 c 1
 513 536 507 574 494 596 c 0
 490 603 486 609 480 613 c 0
 455 632 413 617 413 636 c 0
 413 640 414 644 415 646 c 1
 698 646 l 1
 699 644 701 640 701 636 c 0
 701 617 661 629 636 618 c 0
 614 609 611 593 611 582 c 0
 611 576 612 567 615 558 c 2
EndSplineSet
EndChar

StartChar: X
Encoding: 88 88 49
Width: 694
VWidth: 0
Flags: W
HStem: 0 21G<13.5 262.5 386.5 654.5> 626 20G<32.5 310.5 415.5 654.5>
VStem: 11 159<7.5 69.5> 489 168<568 642>
DStem2: 334 434 154 545 0.515493 -0.856894<-189.786 51.2307 127.408 390.925> 190 160 205 128 0.602092 0.798427<-92.9868 166.186 288.032 513.804>
LayerCount: 3
Fore
SplineSet
420 465 m 2
 445 499 489 551 489 585 c 0
 489 644 414 610 414 636 c 0
 414 640 415 644 416 646 c 1
 654 646 l 1
 655 644 657 640 657 636 c 0
 657 617 625 635 581 600 c 0
 562 585 537 560 502 516 c 2
 405 398 l 2
 391 380 381 371 381 361 c 0
 381 355 389 341 406 314 c 2
 537 101 l 2
 554 73 570 49 590 35 c 0
 621 13 656 27 656 10 c 0
 656 6 655 2 654 0 c 1
 387 0 l 1
 386 2 384 6 384 10 c 0
 384 31 444 12 444 43 c 0
 444 63 419 102 382 166 c 2
 334 247 l 2
 326 260 318 274 315 274 c 0
 312 274 302 259 292 246 c 2
 205 128 l 2
 199 119 170 83 170 56 c 0
 170 9 264 33 264 10 c 0
 264 6 263 2 262 0 c 1
 14 0 l 1
 13 2 11 6 11 10 c 0
 11 29 39 10 82 41 c 0
 106 59 139 93 190 160 c 0
 292 295 294 294 294 305 c 0
 294 311 286 322 281 331 c 2
 154 545 l 2
 133 581 118 599 104 609 c 0
 75 629 30 618 30 636 c 0
 30 640 32 644 33 646 c 1
 310 646 l 1
 311 644 312 640 312 636 c 0
 312 617 268 630 250 614 c 0
 247 611 245 608 245 603 c 0
 245 581 274 538 334 434 c 2
 356 396 l 2
 358 393 360 391 362 391 c 0
 363 391 371 399 377 407 c 2
 420 465 l 2
EndSplineSet
EndChar

StartChar: Y
Encoding: 89 89 50
Width: 666
VWidth: 0
Flags: W
HStem: 0 21G<201.5 478.5> 626 20G<13.5 290.5 413.5 637.5>
VStem: 287 95<32.5851 279.453> 505 135<577 638>
DStem2: 254 506 102 553 0.514056 -0.857757<-106.935 231.448> 384 327 405 312 0.454326 0.890835<-25.7513 283.328>
AnchorPoint: "top" 358 740 basechar 0
LayerCount: 3
Fore
SplineSet
572 609 m 0
 545 591 530 551 505 503 c 2
 405 312 l 2
 395 292 382 261 382 251 c 2
 382 75 l 2
 382 -1 480 36 480 10 c 0
 480 6 479 2 478 0 c 1
 202 0 l 1
 201 2 199 6 199 10 c 0
 199 37 287 -3 287 75 c 2
 287 232 l 2
 287 241 279 257 274 266 c 2
 102 553 l 2
 83 585 73 604 58 614 c 0
 38 628 12 620 12 636 c 0
 12 640 13 644 14 646 c 1
 290 646 l 1
 291 644 293 640 293 636 c 0
 293 619 252 627 221 616 c 0
 213 613 207 609 207 603 c 0
 207 593 227 554 254 506 c 2
 356 325 l 2
 363 313 366 305 369 305 c 0
 372 305 376 311 384 327 c 2
 486 527 l 2
 498 551 505 570 505 584 c 0
 505 598 496 607 483 613 c 0
 451 628 412 619 412 636 c 0
 412 640 413 644 414 646 c 1
 637 646 l 1
 638 644 640 640 640 636 c 0
 640 619 606 632 572 609 c 0
EndSplineSet
EndChar

StartChar: Z
Encoding: 90 90 51
Width: 575
VWidth: 0
Flags: W
HStem: 0 35<184.014 409.536> 619 27<170.75 384.995>
DStem2: 67 78 237 146 0.512781 0.85852<36.421 623.08>
AnchorPoint: "top" 303 740 basechar 0
LayerCount: 3
Fore
SplineSet
547 146 m 0
 547 142 543 134 539 127 c 0
 523 95 493 31 478 6 c 0
 475 2 466 0 462 0 c 2
 71 0 l 2
 36 0 35 8 35 19 c 0
 35 22 47 44 67 78 c 2
 331 520 l 2
 363 574 385 611 385 614 c 0
 385 619 378 619 362 619 c 2
 280 619 l 2
 198 619 135 614 87 531 c 0
 66 495 61 474 51 474 c 0
 38 474 35 481 35 486 c 0
 35 489 36 491 36 492 c 0
 38 501 64 603 68 622 c 0
 74 650 76 672 86 672 c 0
 95 672 112 659 135 648 c 0
 138 646 152 646 157 646 c 2
 495 646 l 2
 503 646 509 640 509 630 c 0
 509 619 490 595 460 542 c 2
 237 146 l 2
 233 140 184 60 184 50 c 0
 184 36 203 35 239 35 c 2
 286 35 l 2
 332 35 371 39 392 45 c 0
 414 52 448 73 501 128 c 0
 520 148 528 158 535 158 c 0
 538 158 547 154 547 146 c 0
EndSplineSet
EndChar

StartChar: period
Encoding: 46 46 53
Width: 320
VWidth: 0
Flags: W
LayerCount: 3
Fore
SplineSet
102 39 m 0
 102 69 125 92 155 92 c 0
 185 92 208 69 208 39 c 0
 208 9 185 -14 155 -14 c 0
 125 -14 102 9 102 39 c 0
EndSplineSet
EndChar

StartChar: comma
Encoding: 44 44 54
Width: 306
VWidth: 0
Flags: W
LayerCount: 3
Fore
SplineSet
223 7 m 0
 223 -55 192 -91 165 -120 c 0
 135 -153 115 -155 112 -155 c 0
 105 -155 101 -150 99 -143 c 0
 96 -134 101 -128 109 -121 c 0
 146 -92 171 -51 171 -23 c 0
 171 -4 160 6 132 6 c 0
 98 6 82 27 82 48 c 0
 82 73 106 101 147 101 c 0
 185 101 223 70 223 7 c 0
EndSplineSet
EndChar

StartChar: hyphen
Encoding: 45 45 55
Width: 316
VWidth: 0
Flags: W
LayerCount: 3
Fore
SplineSet
39 235 m 2
 276 235 l 2
 289 235 289 227 289 218 c 2
 289 200 l 2
 289 192 287 177 276 177 c 2
 36 177 l 2
 25 177 23 182 23 196 c 2
 23 217 l 2
 23 230 28 235 39 235 c 2
EndSplineSet
EndChar

StartChar: colon
Encoding: 58 58 56
Width: 320
VWidth: 0
Flags: W
HStem: -14 104<122.515 207.485> 256 104<122.515 207.485>
VStem: 113 104<-4.48471 80.4847 265.515 350.485>
LayerCount: 3
Fore
SplineSet
113 308 m 0
 113 337 136 360 165 360 c 0
 194 360 217 337 217 308 c 0
 217 279 194 256 165 256 c 0
 136 256 113 279 113 308 c 0
113 38 m 0
 113 67 136 90 165 90 c 0
 194 90 217 67 217 38 c 0
 217 9 194 -14 165 -14 c 0
 136 -14 113 9 113 38 c 0
EndSplineSet
EndChar

StartChar: semicolon
Encoding: 59 59 57
Width: 328
VWidth: 0
Flags: W
HStem: 6 95<121.195 195.838> 256 104<121.515 206.485>
VStem: 112 104<265.515 350.485> 197 52<-72.9509 38.5>
LayerCount: 3
Fore
SplineSet
249 7 m 0xd0
 249 -55 218 -91 191 -120 c 0
 161 -153 141 -155 138 -155 c 0
 131 -155 127 -150 125 -143 c 0
 122 -134 127 -128 135 -121 c 0
 172 -92 197 -51 197 -23 c 0
 197 -4 186 6 158 6 c 0
 124 6 108 27 108 48 c 0
 108 73 132 101 173 101 c 0
 211 101 249 70 249 7 c 0xd0
112 308 m 0xe0
 112 337 135 360 164 360 c 0
 193 360 216 337 216 308 c 0
 216 279 193 256 164 256 c 0
 135 256 112 279 112 308 c 0xe0
EndSplineSet
EndChar

StartChar: exclam
Encoding: 33 33 58
Width: 324
VWidth: 0
Flags: W
HStem: -15 96<122.332 201.668>
VStem: 114 96<-6.66797 72.668> 117 102<439.982 638.829> 140 38<185.07 426.809>
LayerCount: 3
Fore
SplineSet
157 185 m 0x90
 142 185 142 194 140 247 c 0x90
 121 618 117 608 117 619 c 0xa0
 117 635 126 640 161 640 c 2
 178 640 l 2x90
 201 640 219 638 219 620 c 0xa0
 219 606 202 500 178 247 c 0
 172 190 170 185 157 185 c 0x90
114 33 m 0xc0
 114 59 136 81 162 81 c 0
 188 81 210 59 210 33 c 0
 210 7 188 -15 162 -15 c 0
 136 -15 114 7 114 33 c 0xc0
EndSplineSet
EndChar

StartChar: question
Encoding: 63 63 59
Width: 352
VWidth: 0
Flags: W
HStem: -16 90<80.301 155.699> 237 68<138 270.125> 526 80<105.732 234.43>
VStem: 73 90<-8.69897 66.699> 103 33<119.718 223.878> 284 29<326.801 464.182>
LayerCount: 3
Fore
SplineSet
95 526 m 2xec
 82 526 75 547 75 598 c 0
 75 628 83 639 90 639 c 0
 98 639 105 628 113 619 c 0
 123 607 122 606 136 606 c 0
 191 606 249 601 283 526 c 0
 299 492 313 445 313 380 c 0
 313 289 291 244 246 237 c 0
 146 223 138 228 136 206 c 0
 130 134 125 119 117 119 c 0
 105 119 103 148 103 149 c 0
 102 218 95 257 95 286 c 0
 95 297 99 305 115 305 c 2
 209 305 l 2
 272 305 284 332 284 390 c 2
 284 398 l 2
 284 432 278 526 149 526 c 2
 95 526 l 2xec
73 29 m 0xf4
 73 53 94 74 118 74 c 0
 142 74 163 53 163 29 c 0
 163 5 142 -16 118 -16 c 0
 94 -16 73 5 73 29 c 0xf4
EndSplineSet
EndChar

StartChar: parenleft
Encoding: 40 40 60
Width: 338
VWidth: 0
Flags: W
VStem: 45 67<64.1188 344.225>
LayerCount: 3
Fore
SplineSet
293 -211 m 0
 293 -213 279 -232 267 -232 c 0
 263 -232 255 -227 241 -212 c 0
 51 -6 45 125 45 209 c 0
 45 420 199 601 262 664 c 0
 268 670 274 673 277 673 c 0
 281 673 298 656 298 648 c 0
 298 641 288 635 265 609 c 0
 167 498 112 359 112 210 c 0
 112 90 157 -61 271 -185 c 0
 285 -200 293 -206 293 -211 c 0
EndSplineSet
Layer: 2
SplineSet
305 -210 m 4
 305 -212 291 -226 279 -226 c 4
 275 -226 267 -221 253 -206 c 4
 63 0 37 131 37 215 c 4
 37 426 211 607 274 670 c 4
 280 676 286 679 289 679 c 4
 293 679 310 667 310 659 c 4
 310 652 300 646 277 620 c 4
 179 509 119 365 119 216 c 4
 119 96 169 -60 283 -184 c 4
 297 -199 305 -205 305 -210 c 4
EndSplineSet
EndChar

StartChar: parenright
Encoding: 41 41 61
Width: 338
VWidth: 0
Flags: W
VStem: 231 67<64.1188 344.225>
LayerCount: 3
Fore
SplineSet
50 -211 m 0
 50 -206 58 -200 72 -185 c 0
 186 -61 231 90 231 210 c 0
 231 359 176 498 78 609 c 0
 55 635 45 641 45 648 c 0
 45 656 62 673 66 673 c 0
 69 673 75 670 81 664 c 0
 144 601 298 420 298 209 c 0
 298 125 292 -6 102 -212 c 0
 88 -227 80 -232 76 -232 c 0
 64 -232 50 -213 50 -211 c 0
EndSplineSet
EndChar

StartChar: bracketleft
Encoding: 91 91 62
Width: 355
VWidth: 0
Flags: W
HStem: -216 38<123 273.994> 625 38<123 273.994>
VStem: 59 64<-184.003 631.003>
LayerCount: 3
Fore
SplineSet
123 -172 m 2
 123 -188 128 -184 143 -184 c 0
 169 -184 220 -180 255 -178 c 0
 263 -178 274 -179 274 -191 c 2
 274 -199 l 2
 274 -207 272 -216 264 -216 c 0
 213 -215 152 -214 106 -214 c 0
 77 -214 59 -211 59 -201 c 2
 59 648 l 2
 59 658 77 661 106 661 c 0
 152 661 213 662 264 663 c 0
 272 663 274 654 274 646 c 2
 274 638 l 2
 274 626 263 625 255 625 c 0
 220 627 169 631 143 631 c 0
 128 631 123 635 123 619 c 2
 123 -172 l 2
EndSplineSet
EndChar

StartChar: bracketright
Encoding: 93 93 63
Width: 355
VWidth: 0
Flags: W
HStem: -216 38<59.006 210> 625 38<59.006 210>
VStem: 210 64<-183.9 630.9>
LayerCount: 3
Fore
SplineSet
210 -172 m 2
 210 619 l 2
 210 635 205 631 190 631 c 0
 164 631 113 627 78 625 c 0
 70 625 59 626 59 638 c 2
 59 646 l 2
 59 654 61 663 69 663 c 0
 120 662 181 661 227 661 c 0
 256 661 274 658 274 648 c 2
 274 -201 l 2
 274 -211 256 -214 227 -214 c 0
 181 -214 120 -215 69 -216 c 0
 61 -216 59 -207 59 -199 c 2
 59 -191 l 2
 59 -179 70 -178 78 -178 c 0
 113 -180 164 -184 190 -184 c 0
 205 -184 210 -188 210 -172 c 2
EndSplineSet
EndChar

StartChar: quoteleft
Encoding: 8216 8216 64
Width: 244
VWidth: 0
Flags: W
HStem: 398 95<105.162 179.805> 634 20G<161.5 166.5>
VStem: 52 52<460.5 571.951>
LayerCount: 3
Fore
SplineSet
52 492 m 0
 52 554 83 590 110 619 c 0
 140 652 160 654 163 654 c 0
 170 654 174 649 176 642 c 0
 179 633 174 627 166 620 c 0
 129 591 104 550 104 522 c 0
 104 503 115 493 143 493 c 0
 177 493 193 472 193 451 c 0
 193 426 169 398 128 398 c 0
 90 398 52 429 52 492 c 0
EndSplineSet
EndChar

StartChar: quoteright
Encoding: 8217 8217 65
Width: 244
VWidth: 0
Flags: W
HStem: 398 21G<78.5 83.5> 559 95<65.1951 139.838>
VStem: 141 52<480.049 591.5>
LayerCount: 3
Fore
SplineSet
193 560 m 0
 193 498 162 462 135 433 c 0
 105 400 85 398 82 398 c 0
 75 398 71 403 69 410 c 0
 66 419 71 425 79 432 c 0
 116 461 141 502 141 530 c 0
 141 549 130 559 102 559 c 0
 68 559 52 580 52 601 c 0
 52 626 76 654 117 654 c 0
 155 654 193 623 193 560 c 0
EndSplineSet
EndChar

StartChar: ampersand
Encoding: 38 38 66
Width: 660
VWidth: 0
Flags: W
HStem: -9 47<530.876 615.131> 0 61<182.788 278.74> 358 20G<414.5 603.5> 603 31<186.79 276.225>
VStem: 24 72<141.327 252.228> 104 54<478.039 574.237> 309 46<466.221 577.786>
DStem2: 226 420 159 377 0.661031 -0.750359<-115.692 -12.0236 30.3895 275.364 323.816 519.287> 226 420 247 398 0.828198 0.560435<-151.36 -79.588 5.0626 99.4615> 363 148 381 125 0.584739 0.811222<-95.7759 -8.13281 83.2305 219.046>
LayerCount: 3
Fore
SplineSet
250 61 m 0x7e
 307 61 363 148 363 148 c 1
 181 355 l 1
 181 355 96 306 96 204 c 0
 96 128 190 61 250 61 c 0x7e
234 603 m 0
 197 603 158 577 158 535 c 0
 158 489 226 420 226 420 c 1
 226 420 245 430 259 440 c 0
 287 461 309 485 309 530 c 0
 309 553 284 603 234 603 c 0
355 535 m 0
 355 452.8 286.718241318 421.830944791 247 398 c 1
 411 216 l 1
 438 253 l 2
 471 299 482 317 482 333 c 0
 482 344 474 351 464 355 c 0
 443 363 413 356 413 370 c 0
 413 373 414 376 415 378 c 1
 603 378 l 1
 604 376 605 373 605 370 c 0
 605 357 585 363 560 354 c 0
 546 349 538 339 523 322 c 0
 493 287 457 232 429 195 c 1
 463 148 513 38 582 38 c 0
 609 38 622 56 629 56 c 0
 637 56 643 48 643 42 c 0
 643 36 608 -9 546 -9 c 0xbe
 434 -9 402 94 381 125 c 1
 338 73 290 0 207 0 c 0
 109 0 24 75 24 174 c 0
 24 247 83 315 126 350 c 2
 159 377 l 1
 131 412 104 445 104 496 c 0
 104 573 156 634 235 634 c 0
 300 634 355 594 355 535 c 0
EndSplineSet
Layer: 2
SplineSet
248 57 m 4x7e
 305 57 366 149 366 149 c 5
 181 359 l 5
 181 359 92 311 92 202 c 4
 92 126 188 57 248 57 c 4x7e
234 603 m 4
 197 603 155 575 155 533 c 4
 155 487 228 418 228 418 c 5
 228 418 247 428 261 438 c 4
 289 459 310 483 310 528 c 4
 310 551 284 603 234 603 c 4
163 377 m 5
 135 412 106 447 106 498 c 4
 106 575 156 634 235 634 c 4
 300 634 355 594 355 535 c 4
 355 502 343 475 326 455 c 4
 303 428 250 403 245 400 c 5
 413 214 l 5
 440 251 l 6
 470 292 482 317 482 332 c 4
 482 353 458 353 423 353 c 5
 423 378 l 5
 595 378 l 5
 595 353 l 5
 562 353 542 352 505 304 c 4
 468 257 465 248 427 197 c 5
 461 150 513 38 582 38 c 4
 609 38 622 56 629 56 c 4
 637 56 643 48 643 42 c 4
 643 36 608 -9 546 -9 c 4xbe
 434 -9 402 99 381 130 c 5
 338 78 290 0 207 0 c 4
 109 0 24 75 24 174 c 4
 24 247 86 312 128 348 c 6
 163 377 l 5
EndSplineSet
EndChar

StartChar: braceleft
Encoding: 123 123 67
Width: 315
Flags: W
HStem: -214 27<217.288 281.994> 634 27<216.826 281.994>
VStem: 43 59<214.085 231.88> 124 64<-167.262 182.191 261.033 615.053>
LayerCount: 3
Fore
SplineSet
124 74 m 2
 124 248 43 192 43 223 c 0
 43 232 47 232 53 234 c 0
 75 240 124 237 124 368 c 2
 124 454 l 2
 124 563 127 604 160 633 c 0
 180 650 220 661 250 661 c 0
 281 661 282 661 282 647 c 0
 282 633 274 635 263 634 c 0
 236 631 188 633 188 537 c 2
 188 397 l 2
 188 289 181 249 118 230 c 0
 107 227 102 226 102 223 c 0
 102 220 107 220 118 216 c 0
 181 195 188 153 188 45 c 2
 188 -90 l 2
 188 -186 236 -184 263 -187 c 0
 274 -188 282 -186 282 -200 c 0
 282 -214 281 -214 250 -214 c 0
 201 -214 161 -189 150 -176 c 0
 126 -146 124 -106 124 -11 c 2
 124 74 l 2
EndSplineSet
EndChar

StartChar: g.ld
Encoding: 65537 -1 96
Width: 447
VWidth: 0
Flags: HW
HStem: -281 56<111.207 259.03> -57 62<102.54 310.228> 97 21<165.002 234.052> 368 37<334.672 410.5> 379 25<162.185 237.31>
VStem: 18 58<-224.5 -124.172> 35 81<163.348 317.91> 36 60<-14 62.4679> 281 81<168.434 329.259> 350 48<-173.08 -89.2601>
AnchorPoint: "r;lo" 407 -200 basechar 0
AnchorPoint: "r;o" 417 200 basechar 0
AnchorPoint: "r;x" 447 385 basechar 0
AnchorPoint: "r;bl" 427 10 basechar 0
AnchorPoint: "l;lo" 0 -200 basechar 0
AnchorPoint: "l;o" 0 200 basechar 0
AnchorPoint: "l;x" 0 385 basechar 0
AnchorPoint: "l;bl" 0 10 basechar 0
AnchorPoint: "top" 202 540 basechar 0
LayerCount: 3
Fore
SplineSet
201 379 m 0xea80
 142 379 116 313 116 249 c 0
 116 184 143 118 200 118 c 0
 256 118 281 183 281 248 c 0
 281 313 256 379 201 379 c 0xea80
124 -57 m 1
 96 -78 76 -114 76 -142 c 0
 76 -185 113 -225 198 -225 c 0
 279 -225 350 -190 350 -133 c 0xe440
 350 -89 318 -59 163 -59 c 0
 152 -59 154 -59 124 -57 c 1
36 2 m 0xf1
 36 62 106 115 106 115 c 1
 76 130 35 174 35 243 c 0
 35 327 110 404 204 404 c 0xea
 249 404 285 390 310 367 c 1
 336 393 369 405 396 405 c 0
 425 405 447 392 447 367 c 0
 447 348 430 330 411 330 c 0
 386 330 373 368 348 368 c 0
 340 368 332 363 325 352 c 1
 349 323 362 285 362 247 c 0
 362 170 309 97 200 97 c 0
 150 97 133 105 128 105 c 0
 115 105 96 73 96 44 c 0xf180
 96 15 119 6 162 5 c 0
 266 3 398 18 398 -102 c 0
 398 -213 256 -281 147 -281 c 0
 75 -281 18 -256 18 -193 c 0xf440
 18 -134 74 -76 94 -58 c 1
 57 -54 36 -30 36 2 c 0xf1
EndSplineSet
EndChar

StartChar: p.ld
Encoding: 65539 -1 98
Width: 471
VWidth: 0
Flags: HW
HStem: -270 21G<16.5 224.5> -13 29<198.028 292.568> 363 41<204.723 301.507> 392 20G<88.5 143.5>
VStem: 77 77<-245.761 12 49.6366 334.742> 362 84<102.097 293.237>
AnchorPoint: "r;o" 471 200 basechar 0
AnchorPoint: "r;x" 451 385 basechar 0
AnchorPoint: "r;bl" 451 10 basechar 0
AnchorPoint: "l;lo" 0 -200 basechar 0
AnchorPoint: "l;o" 0 200 basechar 0
AnchorPoint: "l;x" 0 385 basechar 0
AnchorPoint: "l;bl" 0 10 basechar 0
LayerCount: 3
Fore
SplineSet
154 -208 m 2xec
 154 -230 161 -241 173 -246 c 0
 194 -255 226 -248 226 -262 c 0
 226 -265 225 -268 224 -270 c 1
 17 -270 l 1
 16 -268 15 -265 15 -262 c 0
 15 -240 77 -272 77 -208 c 2
 77 298 l 2
 77 369 16 330 16 355 c 0
 16 386 35 352 142 412 c 1xdc
 145 412 150 410 151 406 c 1
 150 400 148 388 146 340 c 1
 155 349 209 404 282 404 c 0
 393 404 446 303 446 201 c 0
 446 94 377 -13 246 -13 c 0
 219 -13 180 -4 154 12 c 1
 154 -208 l 2xec
242 363 m 0xec
 193 363 152 319 152 291 c 2
 152 112 l 2
 152 69 189 16 243 16 c 0
 324 16 362 103 362 190 c 0
 362 277 324 363 242 363 c 0xec
EndSplineSet
EndChar

StartChar: q.ld
Encoding: 65540 -1 99
Width: 475
VWidth: 0
Flags: HW
HStem: -270 21G<250.5 458.5> -14 35<180.425 304.893> 377 27<169.231 268.573>
VStem: 25 84<96.1264 294.589> 321 77<-245.761 12 34.1356 341.394>
AnchorPoint: "r;lo" 475 -200 basechar 0
AnchorPoint: "r;o" 475 200 basechar 0
AnchorPoint: "r;x" 475 385 basechar 0
AnchorPoint: "r;bl" 475 10 basechar 0
AnchorPoint: "l;o" 0 200 basechar 0
AnchorPoint: "l;x" 20 385 basechar 0
AnchorPoint: "l;bl" 20 10 basechar 0
LayerCount: 3
Fore
SplineSet
400 406 m 1
 398 356 398 307 398 179 c 2
 398 -208 l 2
 398 -272 460 -240 460 -262 c 0
 460 -265 459 -268 458 -270 c 1
 251 -270 l 1
 250 -268 249 -265 249 -262 c 0
 249 -248 281 -255 302 -246 c 0
 314 -241 321 -230 321 -208 c 2
 321 12 l 1
 321 12 285 -14 221 -14 c 0
 88 -14 25 87 25 189 c 0
 25 304 91 404 231 404 c 0
 300 404 358 378 362 378 c 1
 388 407 l 2
 389 408 392 409 394 409 c 0
 397 409 399 408 400 406 c 1
249 21 m 0
 282 21 323 33 323 83 c 2
 323 289 l 2
 323 337 269 377 216 377 c 0
 163 377 109 336 109 214 c 0
 109 57 182 21 249 21 c 0
EndSplineSet
EndChar

StartChar: y.ld
Encoding: 65541 -1 100
Width: 495
VWidth: 0
Flags: HW
HStem: -282 81<41.2939 111.118> 373 20G<16.5 216.5 309.5 478.5>
VStem: 376 104<337 386.5>
AnchorPoint: "l;k;lo" 0 -200 basechar 0
AnchorPoint: "r;bl" 395 10 basechar 0
AnchorPoint: "r;x" 495 385 basechar 0
AnchorPoint: "r;o" 445 200 basechar 0
AnchorPoint: "l;bl" 30 10 basechar 0
AnchorPoint: "l;x" 0 385 basechar 0
AnchorPoint: "l;o" 10 200 basechar 0
AnchorPoint: "top" 256 540 basechar 0
LayerCount: 3
Fore
SplineSet
208 -85 m 0
 119 -268 107 -282 61 -282 c 0
 29 -282 15 -256 15 -233 c 0
 15 -208 31 -184 59 -184 c 0
 89 -184 94 -201 107 -201 c 0
 125 -201 207 -22 207 -6 c 0
 207 15 197 19 106 248 c 0
 73 331 70 341 64 350 c 0
 41 388 15 363 15 385 c 0
 15 388 16 391 17 393 c 1
 216 393 l 1
 217 391 218 388 218 385 c 0
 218 371 200 377 178 371 c 0
 169 368 161 364 161 356 c 0
 161 334 191 236 237 126 c 0
 248 98 252 84 256 84 c 0
 260 84 265 98 279 126 c 0
 343 251 376 327 376 347 c 0
 376 356 373 367 361 370 c 0
 339 377 308 370 308 385 c 0
 308 388 309 391 310 393 c 1
 478 393 l 1
 479 391 480 388 480 385 c 0
 480 369 460 381 440 368 c 0
 415 352 336 180 208 -85 c 0
EndSplineSet
EndChar

StartChar: quotesinglbase
Encoding: 8218 8218 101
Width: 306
VWidth: 0
Flags: W
HStem: 6 95<95.1951 169.838>
VStem: 171 52<-72.9509 38.5>
LayerCount: 3
Fore
SplineSet
223 7 m 0
 223 -55 192 -91 165 -120 c 0
 135 -153 115 -155 112 -155 c 0
 105 -155 101 -150 99 -143 c 0
 96 -134 101 -128 109 -121 c 0
 146 -92 171 -51 171 -23 c 0
 171 -4 160 6 132 6 c 0
 98 6 82 27 82 48 c 0
 82 73 106 101 147 101 c 0
 185 101 223 70 223 7 c 0
EndSplineSet
EndChar

StartChar: quotereversed
Encoding: 8219 8219 102
Width: 244
VWidth: 0
Flags: W
HStem: 398 21G<161.5 166.5> 559 95<105.162 179.805>
VStem: 52 52<480.049 591.5>
LayerCount: 3
Fore
SplineSet
52 560 m 0
 52 623 90 654 128 654 c 0
 169 654 193 626 193 601 c 0
 193 580 177 559 143 559 c 0
 115 559 104 549 104 530 c 0
 104 502 129 461 166 432 c 0
 174 425 179 419 176 410 c 0
 174 403 170 398 163 398 c 0
 160 398 140 400 110 433 c 0
 83 462 52 498 52 560 c 0
EndSplineSet
EndChar

StartChar: quotedblleft
Encoding: 8220 8220 103
Width: 426
VWidth: 0
Flags: W
HStem: 398 95<105.162 179.805 300.162 374.805> 634 20G<161.5 166.5 356.5 361.5>
VStem: 52 52<460.5 571.951> 247 52<460.5 571.951>
LayerCount: 3
Fore
SplineSet
247 492 m 0
 247 554 278 590 305 619 c 0
 335 652 355 654 358 654 c 0
 365 654 369 649 371 642 c 0
 374 633 369 627 361 620 c 0
 324 591 299 550 299 522 c 0
 299 503 310 493 338 493 c 0
 372 493 388 472 388 451 c 0
 388 426 364 398 323 398 c 0
 285 398 247 429 247 492 c 0
52 492 m 0
 52 554 83 590 110 619 c 0
 140 652 160 654 163 654 c 0
 170 654 174 649 176 642 c 0
 179 633 174 627 166 620 c 0
 129 591 104 550 104 522 c 0
 104 503 115 493 143 493 c 0
 177 493 193 472 193 451 c 0
 193 426 169 398 128 398 c 0
 90 398 52 429 52 492 c 0
EndSplineSet
EndChar

StartChar: quotedblright
Encoding: 8221 8221 104
Width: 420
VWidth: 0
Flags: W
HStem: 398 21G<78.5 83.5 273.5 278.5> 559 95<65.1951 139.838 260.195 334.838>
VStem: 141 52<480.049 591.5> 336 52<480.049 591.5>
LayerCount: 3
Fore
SplineSet
193 560 m 0
 193 498 162 462 135 433 c 0
 105 400 85 398 82 398 c 0
 75 398 71 403 69 410 c 0
 66 419 71 425 79 432 c 0
 116 461 141 502 141 530 c 0
 141 549 130 559 102 559 c 0
 68 559 52 580 52 601 c 0
 52 626 76 654 117 654 c 0
 155 654 193 623 193 560 c 0
388 560 m 0
 388 498 357 462 330 433 c 0
 300 400 280 398 277 398 c 0
 270 398 266 403 264 410 c 0
 261 419 266 425 274 432 c 0
 311 461 336 502 336 530 c 0
 336 549 325 559 297 559 c 0
 263 559 247 580 247 601 c 0
 247 626 271 654 312 654 c 0
 350 654 388 623 388 560 c 0
EndSplineSet
EndChar

StartChar: quotedblbase
Encoding: 8222 8222 105
Width: 420
VWidth: 0
Flags: W
HStem: 6 95<65.1951 139.838 260.195 334.838>
VStem: 141 52<-72.9509 38.5> 336 52<-72.9509 38.5>
LayerCount: 3
Fore
SplineSet
193 7 m 0
 193 -55 162 -91 135 -120 c 0
 105 -153 85 -155 82 -155 c 0
 75 -155 71 -150 69 -143 c 0
 66 -134 71 -128 79 -121 c 0
 116 -92 141 -51 141 -23 c 0
 141 -4 130 6 102 6 c 0
 68 6 52 27 52 48 c 0
 52 73 76 101 117 101 c 0
 155 101 193 70 193 7 c 0
388 7 m 0
 388 -55 357 -91 330 -120 c 0
 300 -153 280 -155 277 -155 c 0
 270 -155 266 -150 264 -143 c 0
 261 -134 266 -128 274 -121 c 0
 311 -92 336 -51 336 -23 c 0
 336 -4 325 6 297 6 c 0
 263 6 247 27 247 48 c 0
 247 73 271 101 312 101 c 0
 350 101 388 70 388 7 c 0
EndSplineSet
EndChar

StartChar: uni201F
Encoding: 8223 8223 106
Width: 420
VWidth: 0
Flags: W
HStem: 398 21G<161.5 166.5 356.5 361.5> 559 95<105.162 179.805 300.162 374.805>
VStem: 52 52<480.049 591.5> 247 52<480.049 591.5>
LayerCount: 3
Fore
SplineSet
247 560 m 0
 247 623 285 654 323 654 c 0
 364 654 388 626 388 601 c 0
 388 580 372 559 338 559 c 0
 310 559 299 549 299 530 c 0
 299 502 324 461 361 432 c 0
 369 425 374 419 371 410 c 0
 369 403 365 398 358 398 c 0
 355 398 335 400 305 433 c 0
 278 462 247 498 247 560 c 0
52 560 m 0
 52 623 90 654 128 654 c 0
 169 654 193 626 193 601 c 0
 193 580 177 559 143 559 c 0
 115 559 104 549 104 530 c 0
 104 502 129 461 166 432 c 0
 174 425 179 419 176 410 c 0
 174 403 170 398 163 398 c 0
 160 398 140 400 110 433 c 0
 83 462 52 498 52 560 c 0
EndSplineSet
EndChar

StartChar: emdash
Encoding: 8212 8212 107
Width: 700
VWidth: 0
Flags: W
HStem: 172 53<5 694.986>
LayerCount: 3
Fore
SplineSet
21 225 m 2
 682 225 l 2
 695 225 695 217 695 208 c 2
 695 195 l 2
 695 187 693 172 682 172 c 2
 18 172 l 2
 7 172 5 177 5 191 c 2
 5 207 l 2
 5 220 10 225 21 225 c 2
EndSplineSet
EndChar

StartChar: endash
Encoding: 8211 8211 108
Width: 450
VWidth: 0
Flags: W
HStem: 172 53<5 444.986>
LayerCount: 3
Fore
SplineSet
21 225 m 2
 432 225 l 2
 445 225 445 217 445 208 c 2
 445 195 l 2
 445 187 443 172 432 172 c 2
 18 172 l 2
 7 172 5 177 5 191 c 2
 5 207 l 2
 5 220 10 225 21 225 c 2
EndSplineSet
EndChar

StartChar: afii00208
Encoding: 8213 8213 109
Width: 700
VWidth: 0
Flags: W
HStem: 172 53<5 694.986>
LayerCount: 3
Fore
SplineSet
21 225 m 2
 682 225 l 2
 695 225 695 217 695 208 c 2
 695 195 l 2
 695 187 693 172 682 172 c 2
 18 172 l 2
 7 172 5 177 5 191 c 2
 5 207 l 2
 5 220 10 225 21 225 c 2
EndSplineSet
EndChar

StartChar: bullet
Encoding: 8226 8226 110
Width: 472
VWidth: 1050
Flags: W
HStem: 184 268<162.778 307.222>
VStem: 101 268<246.483 390.222>
LayerCount: 3
Fore
SplineSet
101 318 m 0
 101 392 161 452 235 452 c 0
 309 452 369 393 369 319 c 0
 369 245 309 184 235 184 c 0
 161 184 101 244 101 318 c 0
EndSplineSet
EndChar

StartChar: daggerdbl
Encoding: 8225 8225 111
Width: 562
VWidth: 0
Flags: W
HStem: -220 21G<268.5 314> 40 89<97.2002 228.435 356.069 487.343> 324 89<82.2002 225.873 350.405 482.343> 624 20G<267.5 317>
VStem: 247 91<-219.629 19.9136 394.529 643.856> 256 74<101.977 346.438> 273 39<-126.511 66 384 534.324>
LayerCount: 3
Fore
SplineSet
338 -199 m 0xf8
 338 -219 324 -220 304 -220 c 2
 286 -220 l 2
 251 -220 247 -219 247 -201 c 0xf8
 247 -190 273 67 273 67 c 1
 273 67 123 40 115 40 c 0
 99 40 97 54 97 67 c 2
 97 102 l 2
 97 115 100 129 114 129 c 0
 115 129 273 99 273 99 c 1xf2
 260 159 256 196 256 228 c 0
 256 261 260 294 270 349 c 1
 270 349 110 324 100 324 c 0
 84 324 82 338 82 351 c 2
 82 386 l 2
 82 399 85 413 99 413 c 0
 100 413 270 384 270 384 c 1
 270 384 244 627 244 630 c 0
 244 643 255 644 280 644 c 2
 304 644 l 2
 330 644 340 643 340 630 c 0
 340 629 315 384 315 384 c 1
 315 384 452 412 465 412 c 0
 482 412 483 398 483 375 c 2
 483 359 l 2
 483 342 481 324 465 324 c 0
 441 324 315 349 315 349 c 1
 326 295 330 259 330 228 c 0xf4
 330 195 325 163 312 99 c 1
 312 99 460 128 470 128 c 0
 487 128 488 115 488 92 c 2
 488 75 l 2
 488 58 486 39 470 39 c 0
 452 39 312 66 312 66 c 1xf2
 338 -196 338 -193 338 -199 c 0xf8
EndSplineSet
EndChar

StartChar: dagger
Encoding: 8224 8224 112
Width: 554
VWidth: 0
Flags: W
HStem: -220 21G<248.5 295.5> 324 89<62.2002 205.873 335.87 482.343> 624 20G<247.5 297>
VStem: 227 91<-219.618 45.6052 394.529 643.856> 250 45<145.646 349 384 586.72>
LayerCount: 3
Fore
SplineSet
62 351 m 2xe8
 62 386 l 2
 62 399 65 413 79 413 c 0
 80 413 250 384 250 384 c 1
 250 384 224 627 224 630 c 0
 224 643 235 644 260 644 c 2
 284 644 l 2
 310 644 320 643 320 630 c 0
 320 629 295 384 295 384 c 1
 295 384 452 412 465 412 c 0
 482 412 483 398 483 375 c 2
 483 359 l 2
 483 342 481 324 465 324 c 0
 441 324 295 349 295 349 c 1xe8
 295 349 318 -197 318 -198 c 0
 318 -218 307 -220 284 -220 c 2
 266 -220 l 2
 231 -220 227 -219 227 -201 c 0xf0
 227 -176 250 349 250 349 c 1
 250 349 90 324 80 324 c 0
 64 324 62 338 62 351 c 2xe8
EndSplineSet
EndChar

StartChar: bar
Encoding: 124 124 113
Width: 158
VWidth: 0
Flags: W
HStem: -217 21G<69.5 76.5> 644 20G<69 76>
VStem: 50 46<-216.988 663.974>
LayerCount: 3
Fore
SplineSet
96 -214 m 1
 88 -216 80 -217 73 -217 c 0
 66 -217 58 -216 50 -214 c 1
 50 661 l 1
 59 663 66 664 72 664 c 0
 80 664 87 663 96 661 c 1
 96 -214 l 1
EndSplineSet
EndChar

StartChar: braceright
Encoding: 125 125 114
Width: 315
Flags: W
HStem: -214 27<43.0058 107.712> 634 27<43.0058 108.174>
VStem: 137 64<-167.262 182.191 261.033 615.053> 223 59<214.085 231.88>
LayerCount: 3
Fore
SplineSet
201 74 m 2
 201 -11 l 2
 201 -106 199 -146 175 -176 c 0
 164 -189 124 -214 75 -214 c 0
 44 -214 43 -214 43 -200 c 0
 43 -186 51 -188 62 -187 c 0
 89 -184 137 -186 137 -90 c 2
 137 45 l 2
 137 153 144 195 207 216 c 0
 218 220 223 220 223 223 c 0
 223 226 218 227 207 230 c 0
 144 249 137 289 137 397 c 2
 137 537 l 2
 137 633 89 631 62 634 c 0
 51 635 43 633 43 647 c 0
 43 661 44 661 75 661 c 0
 105 661 145 650 165 633 c 0
 198 604 201 563 201 454 c 2
 201 368 l 2
 201 237 250 240 272 234 c 0
 278 232 282 232 282 223 c 0
 282 192 201 248 201 74 c 2
EndSplineSet
EndChar

StartChar: OE
Encoding: 338 338 115
Width: 1039
VWidth: 0
Flags: W
HStem: -22 33<310.968 472.347> 0 27<585.005 913.099> 313 21<710.898 782.259> 619 27<577.007 869.642> 632 32<297.944 463.265>
VStem: 42 111<201.09 453.773> 613 97<189.745 313 334 462.826> 825 21<198.003 258.553 390.241 462.997>
LayerCount: 3
Fore
SplineSet
378 632 m 0xaf
 221 632 153 482 153 330 c 0
 153 172 229 11 390 11 c 0
 480 11 613 61 613 326 c 0
 613 509 530 632 378 632 c 0xaf
385 -22 m 0
 215 -22 42 98 42 330 c 0
 42 498 153 664 375 664 c 0xaf
 489 664 474 646 582 646 c 2
 825 646 l 2
 873 646 916 650 926 650 c 0
 942 650 935 639 946 572 c 0
 950 545 955 519 955 506 c 0
 955 499 951 498 948 497 c 0
 940 494 935 504 934 505 c 0
 919 527 875 619 849 619 c 2
 600 619 l 2
 587 619 577 619 577 614 c 0
 577 611 582 605 594 596 c 0
 656 548 699 474 709 370 c 0
 712 336 707 334 730 334 c 2
 744 334 l 2
 822 334 819 418 825 454 c 0
 826 462 828 463 836 463 c 0
 844 463 846 462 846 454 c 0
 846 441 841 408 841 326 c 0
 841 244 846 220 846 207 c 0
 846 199 844 198 836 198 c 0
 828 198 826 199 825 207 c 0
 819 243 816 313 744 313 c 2
 731 313 l 2
 707 313 712 311 710 286 c 0
 702 186 662 110 606 60 c 0
 591 46 585 38 585 33 c 0
 585 28 592 27 600 27 c 2
 876 27 l 2
 906 27 912 38 926 57 c 0
 946 84 962 115 976 139 c 0
 978 143 981 147 987 145 c 0
 993 143 994 143 994 137 c 0
 994 132 992 123 989 110 c 0
 974 41 970 0 957 0 c 2
 582 0 l 2x77
 494 0 495 -22 385 -22 c 0
EndSplineSet
EndChar

StartChar: AE
Encoding: 198 198 116
Width: 863
VWidth: 0
Flags: W
HStem: 0 27<615.406 743.099> 240 36<226.001 415.999> 313 21<506.878 612.259> 619 27<387.006 699.642>
VStem: 30 116<8 60.5> 416 90<277.524 310.344> 655 21<198.003 258.553 390.241 462.997>
DStem2: 116 79 161 114 0.346247 0.938143<-12.49 187.742 229.649 502.491> 392 587 333 515 0.369516 -0.929224<18.4048 279.978 332.419 539.818>
LayerCount: 3
Fore
SplineSet
418 10 m 0
 418 35 502 5 502 49 c 0
 502 66 492 94 440 223 c 0
 434 239 432 240 419 240 c 2
 222 240 l 2
 210 240 208 239 203 226 c 2
 161 114 l 2
 150 85 146 67 146 54 c 0
 146 44 148 38 152 34 c 0
 170 15 261 33 261 10 c 0
 261 6 260 2 259 0 c 1
 33 0 l 1
 32 2 30 6 30 10 c 0
 30 29 68 11 93 38 c 0
 101 46 109 60 116 79 c 0
 195 275 285 531 321 625 c 0
 328 644 330 646 337 646 c 2
 655 646 l 2
 703 646 746 650 756 650 c 0
 772 650 765 639 776 572 c 0
 780 545 785 519 785 506 c 0
 785 499 781 498 778 497 c 0
 770 494 765 504 764 505 c 0
 749 527 705 619 679 619 c 2
 417 619 l 2
 395 619 387 616 387 606 c 0
 387 601 389 595 392 587 c 2
 480 362 l 2
 487 345 488 334 528 334 c 2
 574 334 l 2
 652 334 649 418 655 454 c 0
 656 462 658 463 666 463 c 0
 674 463 676 462 676 454 c 0
 676 441 671 408 671 326 c 0
 671 244 676 220 676 207 c 0
 676 199 674 198 666 198 c 0
 658 198 656 199 655 207 c 0
 649 243 646 313 574 313 c 2
 528 313 l 2
 511 313 506 308 506 301 c 0
 506 297 507 292 510 286 c 0
 582 102 573 123 596 74 c 0
 617 30 624 27 649 27 c 2
 706 27 l 2
 736 27 742 38 756 57 c 0
 776 84 792 115 806 139 c 0
 808 143 811 147 817 145 c 0
 823 143 824 143 824 137 c 0
 824 132 822 123 819 110 c 0
 804 41 800 0 787 0 c 2
 421 0 l 1
 420 2 418 6 418 10 c 0
309 515 m 2
 232 304 l 2
 229 296 226 287 226 283 c 0
 226 280 227 276 233 276 c 2
 401 276 l 2
 415 276 416 277 416 280 c 0
 416 283 416 287 414 293 c 2
 333 515 l 2
 326 535 323 539 321 539 c 0
 319 539 316 535 309 515 c 2
EndSplineSet
EndChar

StartChar: oe
Encoding: 339 339 117
Width: 726
VWidth: 0
Flags: W
HStem: -13 58<469.239 601.477> -13 28<168.524 273.175> 251 21<418 595.015> 376 28<181.008 277.595 469.482 565.515>
VStem: 23 88<91.6263 288.9> 339 71<108.394 251> 598 81<272.88 337.101>
LayerCount: 3
Fore
SplineSet
226 376 m 0x7e
 160 376 111 306 111 194 c 0
 111 96 132 15 220 15 c 0
 312 15 339 103 339 194 c 0
 339 328 290 376 226 376 c 0x7e
518 379 m 0
 488 379 432 358 418 272 c 1
 545 272 l 2
 597 272 598 275 598 291 c 0
 598 333 569 379 518 379 c 0
520 404 m 0
 654 404 679 296 679 279 c 0
 679 251 678 251 591 251 c 2
 414 251 l 1
 411 234 410 218 410 202 c 0
 410 113 452 45 546 45 c 0
 573 45 627 48 668 107 c 1
 674 105 682 99 684 94 c 1
 653 29 589 -13 513 -13 c 0xbe
 424 -13 391 34 372 59 c 1
 372 59 333 -13 220 -13 c 0
 118 -13 23 51 23 196 c 0
 23 305 105 404 233 404 c 0
 349 404 380 334 380 334 c 1
 380 334 419 404 520 404 c 0
EndSplineSet
EndChar

StartChar: ae
Encoding: 230 230 118
Width: 642
VWidth: 0
Flags: W
HStem: -13 58<379.955 509.477> -13 40<99.5 215.615> 251 21<326 503.015> 369 35<133.198 226.493> 379 25<382.83 465.018>
VStem: 30 75<255.858 336.696> 36 85<34.394 121.629> 246 72<108.422 187 203.22 251> 506 81<272.88 337.101>
LayerCount: 3
Fore
SplineSet
248 187 m 1x6380
 239 184 215 178 191 167 c 0
 157 151 121 133 121 81 c 0
 121 51 139 27 165 27 c 0
 171 27 201 32 226 47 c 0
 240 56 259 77 261 98 c 1
 253 127 249 156 248 187 c 1x6380
318 202 m 0
 318 142 337 92 379 65 c 0
 380 65 380 64 381 64 c 0
 401 52 425 45 454 45 c 0
 481 45 535 48 576 107 c 1
 582 105 590 99 592 94 c 1
 561 29 497 -13 421 -13 c 0xad80
 369 -13 320 6 280 63 c 1
 272 49 254 25 216 7 c 0
 194 -3 164 -13 124 -13 c 0
 75 -13 36 16 36 71 c 0x6380
 36 125 94 168 246 209 c 1
 246 252 l 2
 246 325 243 369 175 369 c 0
 131 369 105 350 105 333 c 0
 105 328 110 314 110 296 c 0
 110 265 93 250 73 250 c 0
 52 250 30 266 30 297 c 0
 30 346 139 404 214 404 c 0x7580
 262 404 290 381 306 352 c 1
 327 375 380 404 428 404 c 0x2d80
 562 404 587 296 587 279 c 0
 587 251 586 251 499 251 c 2
 322 251 l 1
 318 235 318 207 318 202 c 0
426 379 m 0
 396 379 340 358 326 272 c 1
 453 272 l 2
 505 272 506 275 506 291 c 0
 506 333 477 379 426 379 c 0
EndSplineSet
EndChar

StartChar: zero
Encoding: 48 48 119
Width: 474
VWidth: 0
Flags: W
HStem: -13 30<183.804 278.758> 354 32<176.817 276.722>
VStem: 38 79<89.3917 285.684> 340 83<91.5936 286.457>
LayerCount: 3
Fore
SplineSet
423 190 m 0
 423 56 326 -13 228 -13 c 0
 132 -13 38 52 38 191 c 0
 38 321 134 386 231 386 c 0
 328 386 423 324 423 190 c 0
117 190 m 0
 117 74 173 17 232 17 c 0
 288 17 340 71 340 181 c 0
 340 297 288 354 226 354 c 0
 166 354 117 298 117 190 c 0
EndSplineSet
EndChar

StartChar: slash
Encoding: 47 47 120
Width: 308
VWidth: 488
Flags: W
HStem: -224 21G<11.5 27.302> 644 20G<281.721 296.5>
DStem2: -28 -207 20 -224 0.342955 0.939352<-1.56927 929.742>
LayerCount: 3
Fore
SplineSet
-28 -207 m 1
 289 664 l 1
 304 664 333 654 338 647 c 1
 20 -224 l 1
 3 -222 -20 -213 -28 -207 c 1
EndSplineSet
EndChar

StartChar: one
Encoding: 49 49 121
Width: 239
VWidth: 0
Flags: W
HStem: 0 17<34.0204 74.2824 169.194 208.98> 360 17<34.0204 74.2824 169.194 208.98>
VStem: 83 77<18.6086 358.391>
LayerCount: 3
Fore
SplineSet
83 315 m 2
 83 357 69 358 51 360 c 0
 41 361 34 361 34 369 c 0
 34 372 35 375 36 377 c 1
 207 377 l 1
 208 375 209 372 209 369 c 0
 209 362 202 361 193 360 c 0
 175 358 160 357 160 315 c 2
 160 62 l 2
 160 20 175 19 193 17 c 0
 202 16 209 15 209 8 c 0
 209 5 208 2 207 0 c 1
 36 0 l 1
 35 2 34 5 34 8 c 0
 34 16 41 16 51 17 c 0
 69 19 83 20 83 62 c 2
 83 315 l 2
EndSplineSet
EndChar

StartChar: two
Encoding: 50 50 122
Width: 356
VWidth: 0
Flags: W
HStem: -0 64<131.004 300.966> 333 53<104.35 197.329>
VStem: 216 72<227.476 314.107>
LayerCount: 3
Fore
SplineSet
147 333 m 0
 117 333 94 316 79 316 c 0
 71 316 68 323 67 330 c 0
 67 333 66 334 70 339 c 0
 88 361 142 386 180 386 c 0
 239 386 288 360 288 300 c 0
 288 231 227 172 202 145 c 0
 168 109 131 71 131 68 c 0
 131 64 137 64 148 64 c 2
 258 64 l 2
 291 64 290 66 299 74 c 0
 305 80 311 83 315 83 c 0
 321 83 324 78 324 72 c 0
 324 68 323 63 320 58 c 2
 298 16 l 2
 290 1 287 0 276 0 c 2
 73 -0 l 2
 58 0 58 0 55 9 c 0
 54 13 53 15 53 18 c 0
 53 25 63 35 74 47 c 0
 150 129 216 192 216 258 c 0
 216 303 189 333 147 333 c 0
EndSplineSet
EndChar

StartChar: three
Encoding: 51 51 123
Width: 356
VWidth: 0
Flags: W
HStem: -213 48<83.2748 175.625> 335 51<103.976 203.402>
VStem: 231 62<221.056 306.893> 242 70<-78.5092 36.8873>
LayerCount: 3
Fore
SplineSet
98 -142 m 0xd0
 126 -142 134 -165 151 -165 c 0
 169 -165 184 -150 198 -138 c 0
 227 -112 242 -74 242 -30 c 0xd0
 242 52 176 77 140 83 c 0
 130 85 112 86 112 100 c 0
 112 108 123 115 139 125 c 0
 204 168 231 203 231 256 c 0
 231 281 204 335 154 335 c 0
 103 335 89 313 77 313 c 0
 71 313 67 317 65 323 c 0
 63 328 63 329 67 335 c 0
 82 358 138 386 180 386 c 0
 236 386 293 357 293 293 c 0xe0
 293 232 254 193 202 145 c 1
 226 136 312 91 312 0 c 0
 312 -55 281 -102 241 -140 c 0
 199 -180 154 -213 102 -213 c 0
 81 -213 62 -199 62 -179 c 0
 62 -157 76 -142 98 -142 c 0xd0
EndSplineSet
EndChar

StartChar: four
Encoding: 52 52 124
Width: 514
VWidth: 0
Flags: W
HStem: -215 21G<298.5 331.5> 0 64<80 278 348 472.778> 361 20G<305 340.5>
VStem: 278 70<-214.697 0 64 311>
LayerCount: 3
Fore
SplineSet
80 64 m 1
 278 64 l 1
 278 311 l 1
 228 269 127 137 80 64 c 1
351 344 m 2
 351 250 348 273 348 108 c 2
 348 64 l 1
 446 64 l 2
 472 64 473 63 473 32 c 0
 473 2 470 0 448 0 c 2
 348 0 l 1
 348 -139 l 2
 348 -177 350 -197 350 -203 c 0
 350 -213 346 -215 317 -215 c 0
 280 -215 273 -213 273 -195 c 2
 278 0 l 1
 81 0 l 2
 54 0 41 0 41 34 c 0
 41 42 43 55 46 61 c 0
 111 175 279 381 331 381 c 0
 350 381 351 368 351 352 c 2
 351 344 l 2
EndSplineSet
EndChar

StartChar: five
Encoding: 53 53 125
Width: 398
VWidth: 0
Flags: W
HStem: -213 44<80 171.402> 307 70<146.32 316.645>
VStem: 83 50<156.5 247.548> 226 63<-78.5699 55.3902>
LayerCount: 3
Fore
SplineSet
286 307 m 2
 167 307 l 2
 160 307 153 310 149 295 c 0
 144 275 133 246 133 229 c 0
 133 210 163 209 204 179 c 0
 236 156 289 97 289 13 c 0
 289 -32 273 -84 230 -138 c 0
 185 -193 142 -213 97 -213 c 0
 63 -213 40 -199 40 -175 c 0
 40 -157 50 -136 80 -136 c 0
 112 -136 119 -169 136 -169 c 0
 168 -169 226 -114 226 -26 c 0
 226 40 201 89 99 132 c 0
 84 138 83 151 83 162 c 0
 83 181 106 238 130 354 c 0
 133 370 142 377 162 377 c 2
 294 377 l 2
 308 377 306 398 321 398 c 0
 328 398 336 392 336 384 c 0
 336 372 333 375 319 335 c 0
 311 312 306 307 286 307 c 2
EndSplineSet
EndChar

StartChar: six
Encoding: 54 54 126
Width: 478
VWidth: 0
Flags: W
HStem: -13 27<200.044 287.868> 333 31<181.443 289.641>
VStem: 53 80<101.471 285.883> 344 83<83.3259 267.988>
LayerCount: 3
Fore
SplineSet
252 364 m 0
 392 364 427 241 427 171 c 0
 427 84 364 -13 247 -13 c 0
 133 -13 53 82 53 198 c 0
 53 318 141 425 218 500 c 0
 266 548 326 582 340 582 c 0
 349 582 355 570 355 565 c 0
 355 558 349 554 340 548 c 0
 319 534 280 501 256 474 c 0
 222 436 188 384 166 340 c 1
 166 340 193 364 252 364 c 0
232 333 m 0
 156 333 133 257 133 189 c 0
 133 98 168 14 248 14 c 0
 317 14 344 105 344 180 c 0
 344 252 323 333 232 333 c 0
EndSplineSet
EndChar

StartChar: seven
Encoding: 55 55 127
Width: 398
VWidth: 0
Flags: W
LayerCount: 3
Fore
SplineSet
72 400 m 2
 74 405 76 406 81 406 c 0
 96 406 101 379 128 379 c 2
 323 379 l 2
 333 379 339 375 339 367 c 0
 339 344 263 157 216 18 c 0
 139 -210 149 -211 135 -211 c 0
 118 -211 86 -211 86 -201 c 0
 86 -196 233 145 293 309 c 1
 85 309 l 2
 77 309 69 309 46 274 c 0
 44 272 42 270 39 270 c 0
 35 270 30 273 30 277 c 1
 30 277 33 293 48 333 c 2
 72 400 l 2
EndSplineSet
EndChar

StartChar: eight
Encoding: 56 56 128
Width: 400
VWidth: 0
Flags: W
LayerCount: 3
Fore
SplineSet
210 596 m 0
 286 596 359 543 359 467 c 0
 359 378 262 318 262 318 c 1
 262 318 358 262 358 164 c 0
 358 74 296 -13 200 -13 c 0
 111 -13 40 57 40 146 c 0
 40 244 142 286 142 286 c 1
 142 286 44 341 44 436 c 0
 44 532 118 596 210 596 c 0
164 274 m 1
 164 274 98 232 98 154 c 0
 98 86 126 10 198 10 c 0
 264 10 298 68 298 130 c 0
 298 238 164 274 164 274 c 1
198 568 m 0
 145 568 98 529 98 476 c 0
 98 352 226 332 226 332 c 1
 226 332 304 350 304 462 c 0
 304 538 254 568 198 568 c 0
EndSplineSet
EndChar

StartChar: nine
Encoding: 57 57 129
Width: 456
VWidth: 0
Flags: W
HStem: -218 21G<126 134> 0 27<189.488 282.977> 357 29<182.94 273.153>
VStem: 44 80<104.794 286.291> 342 72<80.9559 272.975>
LayerCount: 3
Fore
SplineSet
131 -218 m 0
 121 -218 120 -211 120 -206 c 0
 120 -199 125 -199 139 -186 c 0
 169 -159 195 -132 221 -100 c 0
 245 -69 285 -16 303 22 c 1
 272 4 254 0 223 0 c 0
 79 0 44 138 44 202 c 0
 44 295 122 386 231 386 c 0
 346 386 414 274 414 175 c 0
 414 -17 238 -145 166 -200 c 0
 146 -215 137 -218 131 -218 c 0
230 357 m 0
 153 357 124 268 124 188 c 0
 124 90 171 27 234 27 c 0
 261 27 293 38 315 71 c 0
 335 102 342 152 342 190 c 0
 342 268 300 357 230 357 c 0
EndSplineSet
EndChar

StartChar: .notdef
Encoding: 65542 -1 130
Width: 425
VWidth: 0
Flags: W
HStem: -56 40<110.54 183.46> 74 45<133.935 156.897> 305 221<124.003 263.43> 606 66<134.732 265.049> 639 33<106.47 138.679>
VStem: 29 103<119.021 284.633> 29 95<119.021 305> 29 73<-8.69897 66.699 526 638.992> 192 204<-8.69897 66.699> 342 54<268.678 507.291>
LayerCount: 3
Fore
SplineSet
29 672 m 25xe940
 396 672 l 25
 396 -56 l 25
 29 -56 l 25
 29 672 l 25xe940
124 526 m 2xea40
 178 526 l 2
 307 526 313 432 313 398 c 2
 313 390 l 2
 313 332 301 305 238 305 c 2
 144 305 l 2
 128 305 124 297 124 286 c 0xea40
 124 257 131 218 132 149 c 0
 132 148 134 119 146 119 c 0
 154 119 159 134 165 206 c 0
 167 228 175 223 275 237 c 0
 320 244 342 289 342 380 c 0
 342 445 328 492 312 526 c 0
 278 601 220 606 165 606 c 0xf440
 151 606 152 607 142 619 c 0
 134 628 127 639 119 639 c 0
 112 639 104 628 104 598 c 0
 104 547 111 526 124 526 c 2xea40
102 29 m 0xe180
 102 5 123 -16 147 -16 c 0
 171 -16 192 5 192 29 c 0
 192 53 171 74 147 74 c 0
 123 74 102 53 102 29 c 0xe180
EndSplineSet
EndChar

StartChar: minute
Encoding: 8242 8242 131
Width: 208
VWidth: 0
Flags: W
HStem: 396 259<36 130>
VStem: 24 63<429.884 480.496>
LayerCount: 3
Fore
SplineSet
24 408 m 4
 24 422 40 466 48 488 c 4
 77 573 79 655 130 655 c 4
 138 655 160 651 160 625 c 4
 160 586 115 526 87 473 c 4
 57 416 52 396 36 396 c 4
 26 396 24 403 24 408 c 4
EndSplineSet
EndChar

StartChar: second
Encoding: 8243 8243 132
Width: 308
VWidth: 0
Flags: W
HStem: 399 256<124 236>
VStem: 24 54<423.057 518.375>
LayerCount: 3
Fore
SplineSet
24 409 m 0
 24 422 56 584 67 625 c 0
 72 645 89 655 109 655 c 0
 130 655 143 636 143 623 c 0
 143 599 104 532 78 474 c 16
 57 428 50 399 35 399 c 0
 29 399 24 403 24 409 c 0
118 412 m 0
 118 424 132 462 146 492 c 16
 181 568 187 654 236 654 c 0
 257 654 268 644 268 627 c 0
 268 601 246 572 184 475 c 0
 151 425 144 400 129 400 c 0
 124 400 118 401 118 412 c 0
EndSplineSet
EndChar

StartChar: quotesingle
Encoding: 39 39 133
Width: 224
VWidth: 0
Flags: W
HStem: 400 255<94.3909 135.288>
VStem: 74 84<422.75 648.85> 87 57<401.856 604.587>
LayerCount: 3
Fore
SplineSet
120 655 m 0xc0
 149 655 158 633 158 606 c 0xc0
 158 576 149 537 144 492 c 0
 138 430 140 400 112 400 c 0
 95 400 92 419 87 491 c 0xa0
 83 547 74 579 74 607 c 0
 74 650 108 655 120 655 c 0xc0
EndSplineSet
EndChar

StartChar: quotedbl
Encoding: 34 34 134
Width: 372
VWidth: 0
Flags: W
HStem: 400 255<94.3909 135.288 244.391 285.288>
VStem: 74 84<422.75 648.85> 87 57<401.856 604.587> 224 84<422.75 648.85> 237 57<401.856 604.587>
LayerCount: 3
Fore
SplineSet
270 655 m 0x90
 299 655 308 633 308 606 c 0x90
 308 576 299 537 294 492 c 0
 288 430 290 400 262 400 c 0
 245 400 242 419 237 491 c 0x88
 233 547 224 579 224 607 c 0
 224 650 258 655 270 655 c 0x90
120 655 m 0
 149 655 158 633 158 606 c 0xc0
 158 576 149 537 144 492 c 0
 138 430 140 400 112 400 c 0
 95 400 92 419 87 491 c 0xa0
 83 547 74 579 74 607 c 0xc0
 74 650 108 655 120 655 c 0
EndSplineSet
EndChar

StartChar: uni2053
Encoding: 8275 8275 135
Width: 996
VWidth: 0
Flags: W
HStem: 107 53<661.48 798.721> 279 60<199.812 332.709>
VStem: 60 32<109.738 160.929> 904 32<293.083 334.625>
LayerCount: 3
Fore
SplineSet
60 113 m 1
 60 113 101 339 291 339 c 0
 470 339 607 160 752 160 c 0
 861 160 904 338 904 338 c 1
 914 338 928 336 936 332 c 1
 920 253 857 107 708 107 c 0
 523 107 386 279 236 279 c 0
 118 279 92 106 92 106 c 1
 80 106 71 107 60 113 c 1
EndSplineSet
EndChar

StartChar: fraction
Encoding: 8260 8260 137
Width: 512
VWidth: 488
Flags: W
DStem2: -19.5 -47 14.5 -71 0.574282 0.818657<-3.40338 902.449>
LayerCount: 3
Fore
SplineSet
-19.5 -47 m 1
 497.5 690 l 1
 508.833333333 685.226648664 521 679 531.5 666 c 1
 14.5 -71 l 1
 0.298482792474 -68.1589108294 -10.6918299882 -59.5419307049 -19.5 -47 c 1
EndSplineSet
EndChar

StartChar: guilsinglleft
Encoding: 8249 8249 138
Width: 280
Flags: W
HStem: 52 298<230 244>
VStem: 38 208
LayerCount: 3
Fore
SplineSet
136 201 m 1
 187 155 246 77 246 61 c 0
 246 56 244 52 238 52 c 0
 230 52 230 54 182 94 c 0
 112 153 38 195 38 201 c 0
 38 207 112 249 182 308 c 0
 230 348 230 350 238 350 c 0
 244 350 246 346 246 341 c 0
 246 325 187 247 136 201 c 1
EndSplineSet
EndChar

StartChar: guilsinglright
Encoding: 8250 8250 139
Width: 280
Flags: W
HStem: 52 298<40 54>
VStem: 38 208
LayerCount: 3
Fore
SplineSet
148 201 m 1
 97 247 38 325 38 341 c 0
 38 346 40 350 46 350 c 0
 54 350 54 348 102 308 c 0
 172 249 246 207 246 201 c 0
 246 195 172 153 102 94 c 0
 54 54 54 52 46 52 c 0
 40 52 38 56 38 61 c 0
 38 77 97 155 148 201 c 1
EndSplineSet
EndChar

StartChar: guillemotright
Encoding: 187 187 140
Width: 460
Flags: W
HStem: 52 298<40 54 210 224>
LayerCount: 3
Fore
SplineSet
148 201 m 1
 97 247 38 325 38 341 c 0
 38 346 40 350 46 350 c 0
 54 350 54 348 102 308 c 0
 172 249 246 207 246 201 c 0
 246 195 172 153 102 94 c 0
 54 54 54 52 46 52 c 0
 40 52 38 56 38 61 c 0
 38 77 97 155 148 201 c 1
318 201 m 1
 267 247 208 325 208 341 c 0
 208 346 210 350 216 350 c 0
 224 350 224 348 272 308 c 0
 342 249 416 207 416 201 c 0
 416 195 342 153 272 94 c 0
 224 54 224 52 216 52 c 0
 210 52 208 56 208 61 c 0
 208 77 267 155 318 201 c 1
EndSplineSet
EndChar

StartChar: ordmasculine
Encoding: 186 186 141
Width: 486
VWidth: 0
Flags: W
HStem: 414 17<209.148 272.362> 648 17<217.313 274.515>
VStem: 111 64<464.56 607.627> 311 64<469.816 616.09>
LayerCount: 3
Fore
SplineSet
375 542 m 0
 375 469 320 414 240 414 c 0
 173 414 111 453 111 540 c 0
 111 605 165 665 248 665 c 0
 332 665 375 610 375 542 c 0
244 648 m 0
 204 648 175 606 175 539 c 0
 175 480 187 431 240 431 c 0
 295 431 311 484 311 539 c 0
 311 619 282 648 244 648 c 0
EndSplineSet
EndChar

StartChar: guillemotleft
Encoding: 171 171 142
Width: 468
Flags: W
HStem: 52 298<230 244 400 414>
LayerCount: 3
Fore
SplineSet
306 201 m 1
 357 155 416 77 416 61 c 0
 416 56 414 52 408 52 c 0
 400 52 400 54 352 94 c 0
 282 153 208 195 208 201 c 0
 208 207 282 249 352 308 c 0
 400 348 400 350 408 350 c 0
 414 350 416 346 416 341 c 0
 416 325 357 247 306 201 c 1
136 201 m 1
 187 155 246 77 246 61 c 0
 246 56 244 52 238 52 c 0
 230 52 230 54 182 94 c 0
 112 153 38 195 38 201 c 0
 38 207 112 249 182 308 c 0
 230 348 230 350 238 350 c 0
 244 350 246 346 246 341 c 0
 246 325 187 247 136 201 c 1
EndSplineSet
EndChar

StartChar: logicalnot
Encoding: 172 172 143
Width: 579
VWidth: 0
Flags: W
HStem: 228 46<59.0264 463>
VStem: 463 47<37 228>
LayerCount: 3
Fore
SplineSet
62 228 m 1
 60 236 59 244 59 252 c 0
 59 260 60 268 62 274 c 1
 510 274 l 1
 510 37 l 1
 504 36 495 35 487 35 c 0
 479 35 470 36 463 37 c 1
 463 228 l 1
 62 228 l 1
EndSplineSet
EndChar

StartChar: backslash
Encoding: 92 92 144
Width: 308
VWidth: 488
Flags: W
HStem: -224 21G<278.698 294.5> 644 20G<9.5 24.279>
DStem2: 17 664 -32 647 0.342955 -0.939352<-2.84978 928.461>
LayerCount: 3
Fore
SplineSet
334 -207 m 1
 326 -213 303 -222 286 -224 c 1
 -32 647 l 1
 -27 654 2 664 17 664 c 1
 334 -207 l 1
EndSplineSet
EndChar

StartChar: underscore
Encoding: 95 95 145
Width: 450
VWidth: 0
Flags: W
HStem: -78 53<25 424.986>
LayerCount: 3
Fore
SplineSet
41 -25 m 2
 412 -25 l 2
 425 -25 425 -33 425 -42 c 2
 425 -55 l 2
 425 -63 423 -78 412 -78 c 2
 38 -78 l 2
 27 -78 25 -73 25 -59 c 2
 25 -43 l 2
 25 -30 30 -25 41 -25 c 2
EndSplineSet
EndChar

StartChar: asciicircum
Encoding: 94 94 146
Width: 402
VWidth: 0
Flags: W
HStem: 311 320
VStem: 41 324
DStem2: 209 631 201 533 0.438202 -0.898876<84.5843 344.906>
LayerCount: 3
Fore
SplineSet
41 311 m 1
 197 631 l 1
 199 632 201 632 203 632 c 0
 205 632 207 632 209 631 c 1
 365 311 l 1
 355 309 345 308 334 308 c 0
 324 308 314 309 303 311 c 1
 201 533 l 1
 103 311 l 1
 91 309 84 308 70 308 c 0
 59 308 50 309 41 311 c 1
EndSplineSet
EndChar

StartChar: numbersign
Encoding: 35 35 147
Width: 429
VWidth: 0
Flags: W
HStem: 235 36<20.0229 112 165 237 289 407.927> 344 36<21.0117 142 195 268 320 409.931>
DStem2: 53 24 96 24 0.268273 0.963343<1.69696 219.093 267.992 332.146 381.045 583.441> 178 24 220 24 0.269888 0.962892<2.17574 219.094 267.792 332.415 381.114 583.484>
LayerCount: 3
Fore
SplineSet
53 24 m 1
 112 235 l 1
 24 235 l 1
 22 241 20 247 20 254 c 0
 20 259 21 265 24 271 c 1
 122 271 l 1
 142 344 l 1
 24 344 l 1
 22 350 21 355 21 361 c 0
 21 367 22 374 24 380 c 1
 152 380 l 1
 207 577 l 1
 214 580 221 581 228 581 c 0
 236 581 243 580 250 577 c 1
 195 380 l 1
 278 380 l 1
 333 577 l 1
 340 580 347 581 353 581 c 0
 360 581 367 579 375 577 c 1
 320 380 l 1
 406 380 l 1
 409 375 410 369 410 364 c 0
 410 357 408 351 406 344 c 1
 310 344 l 1
 289 271 l 1
 405 271 l 1
 407 266 408 261 408 256 c 0
 408 249 407 242 405 235 c 1
 279 235 l 1
 220 24 l 1
 213 22 207 20 200 20 c 0
 194 20 188 21 178 24 c 1
 237 235 l 1
 155 235 l 1
 96 24 l 1
 88 22 80 20 71 20 c 0
 65 20 59 21 53 24 c 1
165 271 m 1
 247 271 l 1
 268 344 l 1
 185 344 l 1
 165 271 l 1
EndSplineSet
EndChar

StartChar: asterisk
Encoding: 42 42 148
Width: 455
VWidth: 0
Flags: W
HStem: 429 58<195.674 212 244.078 260.488> 644 20G<218 239>
VStem: 183 84<267.169 386.359 545.429 656.058> 195 67<444.557 467.078> 212 28<367.208 426.981 487.139 533.725>
LayerCount: 3
Fore
SplineSet
44 376 m 0xc8
 44 429 195 439 195 456 c 0xd0
 195 482 45 469 45 535 c 0
 45 566 76 575 84 575 c 0
 118 575 192 487 212 487 c 0xc8
 216 487 216 491 216 496 c 0
 216 522 185 599 185 615 c 0
 185 646 207 664 229 664 c 0
 249 664 273 652 273 609 c 0
 273 587 244 512 244 490 c 0
 244 485 245 483 249 483 c 0
 270 483 330 571 372 571 c 0
 395 571 411 557 411 539 c 0
 411 470 262 476 262 456 c 0xd0
 262 433 402 435 402 372 c 0
 402 354 392 336 370 336 c 0
 325 336 258 427 245 427 c 0
 244 427 240 426 240 416 c 0xc8
 240 390 267 327 267 303 c 0
 267 278 247 261 226 261 c 0
 205 261 183 279 183 300 c 0xe0
 183 323 212 408 212 425 c 0
 212 427 212 429 210 429 c 0
 196 429 126 339 80 339 c 0
 55 339 44 362 44 376 c 0xc8
EndSplineSet
EndChar

StartChar: less
Encoding: 60 60 149
Width: 761
VWidth: 10
Flags: W
DStem2: 120 214 203 206 0.902342 0.431021<71.4462 564.291> 203 206 120 197 0.903023 -0.429593<0 491.893>
LayerCount: 3
Fore
SplineSet
120 214 m 1
 635 460 l 1
 639 451 640 444 640 435 c 0
 640 426 639 418 635 409 c 1
 203 206 l 1
 635 4 l 1
 637 -5 639 -13 639 -23 c 0
 639 -31 638 -39 635 -48 c 1
 120 197 l 1
 119 199 118 202 118 206 c 0
 118 209 119 212 120 214 c 1
EndSplineSet
EndChar

StartChar: equal
Encoding: 61 61 150
Width: 784
VWidth: 0
Flags: W
HStem: 116 45<147.026 636.993> 249 45<147.047 635.996>
LayerCount: 3
Fore
SplineSet
150 116 m 1
 148 123 147 130 147 137 c 0
 147 145 148 153 150 161 c 1
 634 161 l 1
 636 154 637 147 637 139 c 0
 637 131 636 124 634 116 c 1
 150 116 l 1
150 249 m 1
 148 256 147 262 147 269 c 0
 147 278 148 285 150 294 c 1
 634 294 l 1
 636 287 636 281 636 274 c 0
 636 265 636 258 634 249 c 1
 150 249 l 1
EndSplineSet
EndChar

StartChar: greater
Encoding: 62 62 151
Width: 761
VWidth: 0
Flags: W
DStem2: 123 460 123 409 0.902342 -0.431021<6.44602 499.291> 123 4 123 -48 0.903023 0.429593<-14.8056 476.884>
LayerCount: 3
Fore
SplineSet
638 214 m 1
 639 212 640 209 640 206 c 0
 640 202 639 199 638 197 c 1
 123 -48 l 1
 120 -39 119 -31 119 -23 c 0
 119 -13 121 -5 123 4 c 1
 555 206 l 1
 123 409 l 1
 119 418 118 426 118 435 c 0
 118 444 119 451 123 460 c 1
 638 214 l 1
EndSplineSet
EndChar

StartChar: plus
Encoding: 43 43 152
Width: 621
VWidth: 0
Flags: W
HStem: 197 46<57.0066 282 321 543>
VStem: 278 47<-22 200 240 464.982>
LayerCount: 3
Fore
SplineSet
60 197 m 1
 58 205 57 212 57 220 c 0
 57 228 58 235 60 243 c 1
 259 243 282 240 282 240 c 1
 282 240 278 251 278 462 c 1
 286 464 294 465 301 465 c 0
 310 465 317 464 325 462 c 1
 325 251 321 240 321 240 c 1
 321 240 345 243 543 243 c 1
 545 236 545 230 545 223 c 0
 545 214 544 206 543 197 c 1
 345 197 321 200 321 200 c 1
 321 200 325 176 325 -22 c 1
 320 -23 312 -24 304 -24 c 0
 294 -24 284 -23 278 -22 c 1
 278 176 282 200 282 200 c 1
 282 200 259 197 60 197 c 1
EndSplineSet
EndChar

StartChar: minus
Encoding: 8722 8722 153
Width: 624
VWidth: 0
Flags: W
HStem: 198 46<57.0519 532.973>
LayerCount: 3
Fore
SplineSet
62 198 m 1
 59 206 57 213 57 220 c 0
 57 228 59 236 62 244 c 1
 529 244 l 1
 532 237 533 229 533 222 c 0
 533 214 532 206 529 198 c 1
 62 198 l 1
EndSplineSet
EndChar

StartChar: plusminus
Encoding: 177 177 154
Width: 587
VWidth: 0
Flags: W
HStem: 22 47<59.0519 519.973> 271 47<61.0264 270 310 519.973>
VStem: 266 48<100 274 314 491.911>
LayerCount: 3
Fore
SplineSet
64 22 m 1
 61 30 59 38 59 46 c 0
 59 54 61 61 64 69 c 1
 516 69 l 1
 519 61 520 54 520 46 c 0
 520 38 519 30 516 22 c 1
 64 22 l 1
64 271 m 1
 62 279 61 286 61 294 c 0
 61 302 62 310 64 318 c 1
 238 318 270 314 270 314 c 1
 270 314 266 347 266 489 c 1
 273 491 280 492 288 492 c 0
 299 492 310 490 314 489 c 1
 314 354 310 314 310 314 c 1
 310 314 350 318 516 318 c 1
 519 310 520 302 520 294 c 0
 520 286 519 279 516 271 c 1
 341 271 310 274 310 274 c 1
 310 274 314 243 314 100 c 1
 308 99 301 98 293 98 c 0
 285 98 276 99 266 100 c 1
 266 242 270 274 270 274 c 1
 270 274 238 271 64 271 c 1
EndSplineSet
EndChar

StartChar: divide
Encoding: 247 247 155
Width: 582
VWidth: 0
Flags: W
HStem: 47 97<256.336 335.002> 198 46<57.0519 532.973> 298 97<256.336 335.002>
VStem: 247 97<55.9979 134.664 307.336 386.002>
CounterMasks: 1 e0
LayerCount: 3
Fore
SplineSet
62 198 m 1
 59 206 57 213 57 220 c 0
 57 228 59 236 62 244 c 1
 529 244 l 1
 532 237 533 229 533 222 c 0
 533 214 532 206 529 198 c 1
 62 198 l 1
247 95 m 0
 247 121 270 144 296 144 c 0
 322 144 344 121 344 95 c 0
 344 69 322 47 296 47 c 0
 270 47 247 69 247 95 c 0
247 347 m 0
 247 373 270 395 296 395 c 0
 322 395 344 373 344 347 c 0
 344 321 322 298 296 298 c 0
 270 298 247 321 247 347 c 0
EndSplineSet
EndChar

StartChar: multiply
Encoding: 215 215 156
Width: 464
VWidth: 0
Flags: W
HStem: 373 20G<76.5 101.245 370.503 397>
DStem2: 82 393 48 360 0.708141 -0.706071<-1.99096 220.553 260.917 484.435> 48 52 82 19 0.708141 0.706071<-2.18343 221.329 261.693 484.487>
LayerCount: 3
Fore
SplineSet
48 52 m 1
 207 206 l 1
 48 360 l 1
 59 377 71 387 82 393 c 1
 235 234 l 1
 390 393 l 1
 404 386 417 370 423 360 c 1
 264 206 l 1
 423 52 l 1
 415 35 403 26 390 19 c 1
 235 178 l 1
 82 19 l 1
 64 26 54 39 48 52 c 1
EndSplineSet
EndChar

StartChar: cent
Encoding: 162 162 157
Width: 427
VWidth: 0
Flags: W
HStem: -13 58<168.753 287.183> 379 25<178.037 230>
VStem: 27 79<109.66 293.65>
DStem2: 62 -179 97 -188 0.27881 0.960346<0.234166 193.241 276.394 575.836 614.436 894.211>
LayerCount: 3
Fore
SplineSet
370 94 m 1
 324 6 247 -13 209 -13 c 0
 192 -13 170 -10 148 -3 c 1
 97 -188 l 1
 85 -188 74 -186 62 -179 c 1
 121 8 l 1
 72 34 27 88 27 197 c 0
 27 316 107 404 234 404 c 0
 235 404 236 404 237 404 c 2
 312 674 l 1
 318 675 325 676 331 676 c 0
 339 676 346 674 353 670 c 1
 268 401 l 1
 333 391 370 355 370 325 c 0
 370 310 356 289 334 289 c 0
 292 289 284 339 257 364 c 1
 168 64 l 1
 190 50 214 45 235 45 c 0
 282 45 319 64 354 108 c 1
 363 104 367 100 370 94 c 1
144 85 m 1
 229 374 l 1
 230 378 l 1
 227 378 224 379 221 379 c 0
 163 379 106 322 106 217 c 0
 106 153 122 111 144 85 c 1
EndSplineSet
EndChar

StartChar: sterling
Encoding: 163 163 158
Width: 435
VWidth: 0
Flags: W
HStem: -13 40<293.031 363.073> 100 25<128 209.387> 251 31<25.0255 134 202 323.943> 631 33<243.664 324.382>
VStem: 125 83<283.93 536.078> 134 68<282 394.993> 338 80<532.329 622.376> 370 45<34.5897 109.84>
LayerCount: 3
Fore
SplineSet
17 25 m 0xf5
 17 76 92 96 120 115 c 1
 135 131 141 190 141 219 c 0
 141 221 139 235 138 251 c 1
 27 251 l 1
 26 256 25 260 25 265 c 0
 25 271 26 278 27 282 c 1
 134 282 l 1xf5
 130 323 125 375 125 396 c 0
 125 577 206 664 309 664 c 0
 365 664 418 624 418 573 c 0
 418 545 400 526 380 526 c 0
 362 526 345 538 338 575 c 0
 332 603 328 631 286 631 c 0
 254 631 207 605 207 521 c 0
 207 494 208 448 208 361 c 0xfa
 208 334 205 305 202 282 c 1
 322 282 l 1
 323 278 324 274 324 269 c 0
 324 263 323 257 322 251 c 1
 197 251 l 1
 181 174 153 122 153 122 c 1
 153 122 158 125 165 125 c 0
 251 125 281 27 334 27 c 4
 355 27 370 50 370 71 c 4
 370 104 330 113 330 146 c 4
 330 163 342 183 361 183 c 4
 393 183 415 139 415 100 c 4
 415 40 367 -13 296 -13 c 4
 233 -13 217 28 185 69 c 0
 168 90 156 100 145 100 c 0
 111 100 111 -11 51 -11 c 0
 31 -11 17 6 17 25 c 0xf5
EndSplineSet
EndChar

StartChar: currency
Encoding: 164 164 159
Width: 489
Flags: W
HStem: -16 20G<32 46 423.5 435> 26 50<164.625 303.201> 332 47<165.442 301.85>
VStem: 58 51<131.401 274.404> 360 52<132.711 273.782>
DStem2: 67 406 32 371 0.706152 -0.70806<-30.5846 90.4581 432.397 554.618> 32 35 67 -0 0.706152 0.70806<-30.6985 90.9199 432.146 553.893>
LayerCount: 3
Fore
SplineSet
15 8 m 0
 15 19 24 27 32 35 c 2
 93 97 l 1
 71 127 58 164 58 204 c 0
 58 243 70 280 92 309 c 1
 32 371 l 2
 30 373 15 384 15 398 c 0
 15 412 27 422 39 422 c 0
 50 422 59 414 67 406 c 2
 129 344 l 1
 158 366 195 379 234 379 c 0
 276 379 312 365 340 344 c 1
 402 406 l 2
 404 408 415 422 429 422 c 0
 443 422 454 410 454 398 c 0
 454 387 445 379 437 371 c 2
 375 308 l 1
 397 278 412 242 412 202 c 0
 412 163 397 127 375 98 c 1
 437 35 l 2
 439 33 454 22 454 8 c 0
 454 -6 441 -17 429 -17 c 0
 418 -17 410 -8 402 -0 c 2
 340 62 l 1
 311 40 274 26 234 26 c 0
 195 26 158 39 129 61 c 1
 67 -0 l 2
 65 -2 53 -16 39 -16 c 0
 25 -16 15 -4 15 8 c 0
109 202 m 0
 109 131 166 76 234 76 c 0
 302 76 360 133 360 203 c 0
 360 272 303 332 234 332 c 0
 164 332 109 272 109 202 c 0
EndSplineSet
EndChar

StartChar: exclamdown
Encoding: 161 161 160
Width: 324
VWidth: 0
Flags: W
HStem: -15 21G<143.5 189.5> 544 96<131.332 210.668>
VStem: 114 102<-13.8292 185.018> 123 96<552.332 631.668> 155 38<198.191 439.93>
LayerCount: 3
Fore
SplineSet
176 440 m 0xc8
 191 440 191 431 193 378 c 0xc8
 212 7 216 17 216 6 c 0xe0
 216 -10 207 -15 172 -15 c 2
 155 -15 l 2xc8
 132 -15 114 -13 114 5 c 0xe0
 114 19 131 125 155 378 c 0
 161 435 163 440 176 440 c 0xc8
219 592 m 0xd0
 219 566 197 544 171 544 c 0
 145 544 123 566 123 592 c 0
 123 618 145 640 171 640 c 0
 197 640 219 618 219 592 c 0xd0
EndSplineSet
EndChar

StartChar: questiondown
Encoding: 191 191 161
Width: 352
VWidth: 0
Flags: W
HStem: -16 21G<292 299.5> 17 80<151.57 280.268> 318 68<115.875 248> 549 90<230.301 305.699>
VStem: 73 29<158.818 296.199> 223 90<556.301 631.699> 250 33<399.122 503.282>
LayerCount: 3
Fore
SplineSet
291 97 m 2xfa
 304 97 311 76 311 25 c 0
 311 -5 303 -16 296 -16 c 0
 288 -16 281 -5 273 4 c 0
 263 16 264 17 250 17 c 0
 195 17 137 22 103 97 c 0
 87 131 73 178 73 243 c 0
 73 334 95 379 140 386 c 0
 240 400 248 395 250 417 c 0
 256 489 261 504 269 504 c 0
 281 504 283 475 283 474 c 0
 284 405 291 366 291 337 c 0
 291 326 287 318 271 318 c 2
 177 318 l 2
 114 318 102 291 102 233 c 2
 102 225 l 2
 102 191 108 97 237 97 c 2
 291 97 l 2xfa
313 594 m 0xfc
 313 570 292 549 268 549 c 0
 244 549 223 570 223 594 c 0
 223 618 244 639 268 639 c 0
 292 639 313 618 313 594 c 0xfc
EndSplineSet
EndChar

StartChar: yen
Encoding: 165 165 162
Width: 666
VWidth: 0
Flags: W
HStem: 0 21G<201.5 478.5> 176 31<134.006 287 382 536> 304 31<134.003 233 417 536.974> 626 20G<13.5 290.5 413.5 637.5>
VStem: 287 95<32.5851 176 207 280.299> 505 135<577 638>
DStem2: 254 506 102 553 0.514056 -0.857757<-106.935 135.881 171.725 231.448> 384 327 401 304 0.463175 0.886267<-25.8211 -12.5102 22.3749 283.228>
LayerCount: 3
Fore
SplineSet
572 609 m 0
 545 591 530 551 505 503 c 2
 417 335 l 1
 534 335 l 1
 536 331 537 326 537 321 c 0
 537 315 536 309 534 304 c 1
 401 304 l 1
 392 285 382 260 382 251 c 2
 382 207 l 1
 534 207 l 1
 536 203 536 198 536 192 c 0
 536 186 536 180 534 176 c 1
 382 176 l 1
 382 75 l 2
 382 -1 480 36 480 10 c 0
 480 6 479 2 478 0 c 1
 202 0 l 1
 201 2 199 6 199 10 c 0
 199 37 287 -3 287 75 c 2
 287 176 l 1
 136 176 l 1
 135 181 134 186 134 191 c 0
 134 196 135 202 136 207 c 1
 287 207 l 1
 287 232 l 2
 287 241 279 257 274 266 c 2
 251 304 l 1
 136 304 l 1
 134 309 134 314 134 319 c 0
 134 325 135 331 136 335 c 1
 233 335 l 1
 102 553 l 2
 83 585 73 604 58 614 c 0
 38 628 12 620 12 636 c 0
 12 640 13 644 14 646 c 1
 290 646 l 1
 291 644 293 640 293 636 c 0
 293 619 252 627 221 616 c 0
 213 613 207 609 207 603 c 0
 207 593 227 554 254 506 c 2
 356 325 l 2
 363 313 366 305 369 305 c 0
 372 305 376 311 384 327 c 2
 486 527 l 2
 498 551 505 570 505 584 c 0
 505 598 496 607 483 613 c 0
 451 628 412 619 412 636 c 0
 412 640 413 644 414 646 c 1
 637 646 l 1
 638 644 640 640 640 636 c 0
 640 619 606 632 572 609 c 0
EndSplineSet
EndChar

StartChar: brokenbar
Encoding: 166 166 163
Width: 158
VWidth: 0
Flags: W
HStem: -217 21G<70 77> 644 20G<69 76>
VStem: 50 46<-216.974 119.974 335 663.974>
LayerCount: 3
Fore
SplineSet
96 117 m 1
 96 -214 l 1
 87 -216 80 -217 74 -217 c 0
 66 -217 59 -216 50 -214 c 1
 50 117 l 1
 57 119 65 120 72 120 c 0
 80 120 88 119 96 117 c 1
50 335 m 1
 50 661 l 1
 59 663 66 664 72 664 c 0
 80 664 87 663 96 661 c 1
 96 335 l 1
 91 334 84 333 76 333 c 0
 66 333 55 334 50 335 c 1
EndSplineSet
EndChar

StartChar: section
Encoding: 167 167 164
Width: 449
VWidth: 0
Flags: W
HStem: -222 29<190.067 282.838> 68 20<272.874 328.422> 358 18<134.172 166> 633 31<170.407 258.74>
VStem: 63 45<242.528 344.503> 91 52<501.936 613.61> 94 79<-165.751 -62.951> 256 96<523.805 619.322> 316 53<-168.465 -57.7229> 345 43<97.0712 194.445>
LayerCount: 3
Fore
SplineSet
63 270 m 0xf8
 63 350 112 376 154 376 c 0
 159 376 163 375 166 375 c 1
 164 380 91 453 91 542 c 0
 91 629 159 664 220 664 c 0
 300 664 352 614 352 571 c 0
 352 531 330 516 305 516 c 0
 277 516 256 537 256 559 c 0xf5
 256 588 261 595 261 611 c 0
 261 623 242 633 226 633 c 0
 186 633 143 618 143 557 c 0
 143 448 388 362 388 178 c 0xf440
 388 84 338 68 305 68 c 0
 291 68 282 71 272 73 c 1
 299 48 369 -15 369 -100 c 0
 369 -179 306 -222 241 -222 c 0
 169 -222 94 -177 94 -102 c 0
 94 -70 112 -38 144 -38 c 0
 167 -38 185 -53 185 -76 c 0
 185 -97 173 -124 173 -147 c 0xf280
 173 -170 193 -193 243 -193 c 0
 278 -193 316 -160 316 -117 c 0
 316 -41 219 12 143 91 c 0xf480
 81 155 63 222 63 270 c 0xf8
108 305 m 0xf840
 108 230 245 88 296 88 c 0
 324 88 345 104 345 132 c 0
 345 206 199 358 172 358 c 0
 132 358 108 335 108 305 c 0xf840
EndSplineSet
EndChar

StartChar: paragraph
Encoding: 182 182 165
Width: 599
VWidth: 0
Flags: W
HStem: -217 21G<349.5 356.5 469.5 476.5> 624 20G<349.5 371 469 476>
VStem: 330 41<-216.953 195> 450 41<-216.953 646.974>
LayerCount: 3
Fore
SplineSet
68 425 m 0
 68 654 328 642 371 644 c 1
 371 -214 l 1
 363 -216 360 -217 353 -217 c 0
 346 -217 338 -216 330 -214 c 1
 330 195 l 1
 141 199 68 305 68 425 c 0
491 -214 m 1
 483 -216 480 -217 473 -217 c 0
 466 -217 458 -216 450 -214 c 1
 450 644 l 1
 459 646 466 647 472 647 c 0
 480 647 482 646 491 644 c 1
 491 -214 l 1
EndSplineSet
EndChar

StartChar: registered
Encoding: 174 174 166
Width: 680
VWidth: 0
Flags: W
HStem: 186 31<263.301 416.592> 449 15<299 339.368> 589 20<299 368.388> 669 31<263.301 416.592>
VStem: 81 38<354.992 531.008> 247 52<333.574 449 464 588.859> 393 52<482.617 577.432> 560 38<354.992 531.008>
DStem2: 387 460 349 430 0.594759 -0.803904<0.616897 162.995>
LayerCount: 3
Fore
SplineSet
81 443 m 0
 81 585 198 700 340 700 c 0
 482 700 598 585 598 443 c 0
 598 301 482 186 340 186 c 0
 198 186 81 301 81 443 c 0
119 443 m 0
 119 319 216 217 340 217 c 0
 464 217 560 319 560 443 c 0
 560 567 464 669 340 669 c 0
 216 669 119 567 119 443 c 0
506 322 m 0
 506 321 505 315 504 313 c 1
 439 313 l 2
 431 313 426 315 423 320 c 2
 349 430 l 2
 338 446 333 449 313 449 c 2
 299 449 l 1
 299 352 l 1
 300 321 348 343 348 322 c 0
 348 320 347 317 345 313 c 1
 210 313 l 1
 207 317 207 318 207 322 c 0
 207 343 247 320 247 351 c 2
 247 571 l 2
 247 604 207 581 207 600 c 0
 207 606 210 608 211 609 c 1
 315 609 l 2
 336 609 360 609 382 604 c 0
 412 596 445 575 445 531 c 0
 444 480 399 468 387 460 c 1
 388 459 389 457 392 453 c 0
 424 405 468 347 478 337 c 0
 490 326 506 337 506 322 c 0
304 589 m 2
 300 589 299 585 299 579 c 2
 299 464 l 1
 313 464 l 2
 350 464 393 476 393 535 c 0
 393 563 375 581 349 587 c 0
 343 588 333 589 319 589 c 2
 304 589 l 2
EndSplineSet
EndChar

StartChar: copyright
Encoding: 169 169 167
Width: 735
VWidth: 0
Flags: W
HStem: -22 41<266.752 469.14> 110 58<317.159 444.332> 407 21G<465 504> 502 25<330.44 407.599> 615 41<266.752 469.14>
VStem: 26 50<208.165 425.835> 176 79<238.705 416.65> 659 50<208.165 425.835>
LayerCount: 3
Fore
SplineSet
26 317 m 0
 26 504 181 656 368 656 c 0
 555 656 709 504 709 317 c 0
 709 130 555 -22 368 -22 c 0
 181 -22 26 130 26 317 c 0
76 317 m 0
 76 153 204 19 368 19 c 0
 532 19 659 153 659 317 c 0
 659 481 532 615 368 615 c 0
 204 615 76 481 76 317 c 0
529 217 m 1
 483 129 401 110 363 110 c 0
 303 110 176 141 176 320 c 0
 176 439 261 527 388 527 c 0
 474 527 529 478 529 443 c 0
 529 428 515 407 493 407 c 0
 437 407 436 502 375 502 c 0
 317 502 255 445 255 340 c 0
 255 198 337 168 389 168 c 0
 436 168 478 187 513 231 c 1
 522 227 526 223 529 217 c 1
EndSplineSet
EndChar

StartChar: at
Encoding: 64 64 168
Width: 762
VWidth: 0
Flags: W
HStem: -133 45<267.943 494.837> 22 45<272 384.084> 30 57<491 562.52> 254 25<400.965 437> 426 32<260.575 397.073>
VStem: 53 63<60.5869 277.661> 210 86<76.8885 179.844> 437 83<99.7065 254 274.778 392.862> 669 41<79.7721 296.717>
LayerCount: 3
Fore
SplineSet
546 448 m 1xdf80
 618 420 710 341 710 177 c 0
 710 -78 477 -133 361 -133 c 0
 210 -133 53 -30 53 169 c 0
 53 341 198 458 340 458 c 0
 439 458 520 432 520 293 c 2
 520 176 l 2
 520 121 523 87 544 87 c 0
 569 87 567 110 582 110 c 0
 588 110 590 104 590 96 c 0
 590 58 535 30 505 30 c 0xbf80
 477 30 451 39 441 92 c 1
 418 58 365 22 299 22 c 0
 245 22 210 57 210 117 c 0
 210 188 270 234 437 279 c 1
 437 316 l 2
 437 412 379 426 334 426 c 0
 204 426 116 301 116 181 c 0
 116 -35 274 -88 380 -88 c 0
 505 -88 669 -30 669 197 c 0
 669 275 644 373 536 424 c 1
 532 435 536 446 546 448 c 1xdf80
296 134 m 0
 296 98 313 67 344 67 c 0xdf80
 355 67 437 86 437 147 c 2
 437 254 l 1
 375 235 296 211 296 134 c 0
EndSplineSet
EndChar

StartChar: percent
Encoding: 37 37 169
Width: 771
Flags: W
HStem: -96 26<508.478 580.872> 173 26<510.694 583.064> 197 26<172.478 244.872> 413 31<331.942 472.668> 466 26<174.694 248.101>
VStem: 73 63<262.155 428.485> 284 65<263.893 422.083> 409 63<-30.8445 135.485> 620 65<-29.1071 135.852>
LayerCount: 3
Fore
SplineSet
392 444 m 0xbf80
 527 444 601 564 622 564 c 0
 626 564 636 558 636 553 c 0
 636 546 630 537 627 532 c 0
 168 -155 183 -157 171 -157 c 0
 163 -157 129 -153 129 -132 c 0
 129 -118 138 -107 169 -62 c 2
 334 175 l 2
 462 359 516 423 516 431 c 0
 516 434 514 435 512 435 c 2
 512 435 454 413 394 413 c 0
 371 413 349 413 331 423 c 1
 343 402 349 378 349 347 c 0
 349 251 279 197 209 197 c 0
 140 197 73 248 73 348 c 0
 73 442 141 492 211 492 c 0
 234 492 254 484 275 473 c 0
 316 453 357 444 392 444 c 0xbf80
210 466 m 0
 152 466 136 389 136 335 c 0
 136 264 165 223 209 223 c 0
 251 223 284 267 284 353 c 0
 284 424 256 466 210 466 c 0
546 173 m 0xdf80
 488 173 472 96 472 42 c 0
 472 -29 501 -70 545 -70 c 0
 587 -70 620 -26 620 60 c 0
 620 131 592 173 546 173 c 0xdf80
685 54 m 0
 685 -42 615 -96 545 -96 c 0
 476 -96 409 -45 409 55 c 0
 409 149 477 199 547 199 c 0
 617 199 685 150 685 54 c 0
EndSplineSet
EndChar

StartChar: dollar
Encoding: 36 36 170
Width: 458
Flags: W
HStem: -13 36<136.98 204> 555 37<150.741 205 239 288.402> 634 20G<216 231>
VStem: 35 60<58.5065 133.836> 57 52<406.79 516.815> 204 35<-129.942 -13 26 274 364 555 593 653.985> 346 54<84.7029 220.783>
DStem2: 204 364 204 281 0.965948 -0.258736<-82.7647 0 57.0944 145.239>
LayerCount: 3
Fore
SplineSet
239 593 m 1xee
 274 593 373 571 374 505 c 0
 374 483 363 471 349 471 c 0
 312 471 323 524 270 550 c 0
 261 554 251 556 239 556 c 1
 239 354 l 1
 275 340 400 320 400 177 c 0
 400 27 267 -4 239 -11 c 1
 241 -94 l 2
 241 -126 234 -130 219 -130 c 0
 203 -130 202 -121 202 -112 c 0
 202 -84 204 -13 204 -13 c 5
 125 -13 35 31 35 100 c 4
 35 109 42 136 69 136 c 4
 77 136 90 132 95 124 c 4xf6
 105 107 89 75 129 46 c 4
 162 22 196 24 204 23 c 5
 204 281 l 1
 160 297 57 322 57 437 c 0
 57 506 103 583 205 592 c 1
 205 606 203 620 203 634 c 0
 203 652 209 654 223 654 c 0
 239 654 241 649 241 641 c 0
 241 612 239 598 239 593 c 1xee
109 460 m 0xee
 109 385 204 364 204 364 c 1
 205 555 l 1
 155 555 109 512 109 460 c 0xee
239 26 m 1
 276 26 346 61 346 157 c 0
 346 224 292 255 260 266 c 1
 239 274 l 1
 239 26 l 1
EndSplineSet
EndChar

StartChar: dollar.DONT_KEEP
Encoding: 65543 -1 171
Width: 458
VWidth: 0
Flags: W
HStem: -17 29<190.514 247> 568 30<191.469 247>
VStem: 66 49<396.374 521.412> 158 33<-112.995 -17 29 278 374 550 595 635.996> 247 32<-112.995 -13 24 236 329 557 598 635.996> 334 53<66.8768 203.362>
DStem2: 161 374 161 289 0.884242 -0.467029<-47.7218 0 21.0311 39.6975 69.5936 98.8296 119.837 149.633 167.022 231.384>
LayerCount: 3
Fore
SplineSet
378 519 m 0
 378 497 360 492 354 492 c 0
 343 492 336 496 330 501 c 0
 312 515 308 544 279 557 c 1
 279 504 277 436 277 315 c 1
 286 310 295 305 303 299 c 0
 359 262 387 204 387 148 c 0
 387 84 350 20 278 -6 c 1
 278 -45 279 -66 279 -89 c 0
 279 -107 277 -113 263 -113 c 0
 249 -113 246 -106 246 -93 c 0
 246 -78 246 -56 247 -13 c 1
 230 -17 212 -17 200 -17 c 2
 190 -17 l 1
 190 -49 191 -68 191 -89 c 0
 191 -107 189 -113 175 -113 c 0
 161 -113 158 -106 158 -93 c 0
 158 -78 158 -56 159 -13 c 1
 108 -4 51 34 51 65 c 0
 51 82 69 90 78 90 c 0
 90 90 106 83 125 61 c 0
 143 40 152 35 160 29 c 1
 161 83 161 154 161 244 c 2
 161 289 l 1
 96 324 66 383 66 440 c 0
 66 501 100 560 159 586 c 1
 159 611 l 2
 159 631 161 636 175 636 c 0
 189 636 191 631 191 611 c 2
 191 595 l 1
 206 598 225 598 237 598 c 2
 247 598 l 1
 247 611 l 2
 247 631 249 636 263 636 c 0
 277 636 279 631 279 611 c 2
 279 593 l 1
 339 578 378 546 378 519 c 0
161 374 m 1
 161 454 159 508 159 550 c 1
 131 528 115 492 115 457 c 0
 115 424 130 394 161 374 c 1
190 17 m 1
 201 14 210 12 219 12 c 0
 229 12 238 14 248 16 c 1
 249 72 249 124 249 248 c 1
 227 259 206 271 189 278 c 1
 189 246 l 2
 189 140 189 71 190 17 c 1
189 359 m 1
 249 329 l 1
 249 447 247 515 247 565 c 1
 239 567 231 568 223 568 c 0
 212 568 201 566 191 563 c 1
 191 515 189 461 189 359 c 1
277 236 m 1
 277 143 278 75 278 24 c 1
 300 40 334 78 334 140 c 0
 334 174 320 208 277 236 c 1
EndSplineSet
EndChar

StartChar: longs
Encoding: 383 383 172
Width: 293
VWidth: 0
Flags: W
HStem: 0 21G<32.5 240.5> 623 41<209.527 316>
VStem: 93 77<23.2333 350>
LayerCount: 3
Fore
SplineSet
33 0 m 1
 32 2 31 5 31 8 c 0
 31 30 93 -2 93 62 c 2
 93 350 l 1
 93 350 65 351 51 351 c 0
 43 351 37 352 37 362 c 0
 37 377 77 374 85 401 c 0
 106 467 92 520 161 607 c 0
 190 643 246 664 291 664 c 0
 341 664 381 647 381 613 c 0
 381 591 364 575 343 575 c 0
 292 575 282 623 240 623 c 0
 186 623 170 562 170 474 c 2
 170 62 l 2
 170 -3 242 31 242 8 c 0
 242 5 241 2 240 0 c 1
 33 0 l 1
EndSplineSet
EndChar

StartChar: germandbls
Encoding: 223 223 173
Width: 474
VWidth: 0
Flags: W
HStem: -8 24<284.597 349.438> 0 21G<32.5 220.5> 631 33<208.737 287.474>
VStem: 93 77<22.0046 350> 226 73<26.0182 107.034> 310 76<475.798 614.62> 381 69<77.3906 237.126>
LayerCount: 3
Fore
SplineSet
313 16 m 0xba
 354 16 381 47 381 132 c 0xba
 381 240 326 320 238 367 c 0
 208 383 205 377 205 387 c 2
 205 394 l 2
 205 406 231 411 257 435 c 0
 282 458 310 496 310 541 c 0
 310 600 287 631 249 631 c 0
 226 631 206 617 193 596 c 0
 177 571 170 531 170 474 c 2
 170 62 l 2
 170 -2 222 30 222 8 c 0
 222 5 221 2 220 0 c 1
 33 0 l 1
 32 2 31 5 31 8 c 0
 31 30 93 -2 93 62 c 2
 93 350 l 1
 93 350 65 351 51 351 c 0
 43 351 37 352 37 362 c 0
 37 377 77 374 85 401 c 0
 106 467 92 520 161 607 c 0
 189 642 228 664 272 664 c 0
 352 664 386 604 386 551 c 0x7c
 386 422 242 400 242 400 c 1
 384 384 450 312 450 179 c 0
 450 81 396 -8 312 -8 c 0
 255 -8 226 30 226 65 c 0
 226 90 242 111 262 111 c 0
 286 111 299 96 299 66 c 0
 299 51 284 26 284 26 c 1
 286 24 295 16 313 16 c 0xba
EndSplineSet
EndChar

StartChar: uni0307
Encoding: 775 775 174
Width: 0
VWidth: 0
Flags: W
HStem: 568 93<-268.72 -188.443>
VStem: -277 96<576.49 653.508>
AnchorPoint: "top" -230 540 mark 0
LayerCount: 3
Fore
SplineSet
-231 661 m 0
 -197 661 -181 637 -181 614 c 0
 -181 591 -196 568 -227 568 c 0
 -258 568 -277 592 -277 617 c 0
 -277 637 -264 661 -231 661 c 0
EndSplineSet
EndChar

StartChar: dotlessi
Encoding: 305 305 175
Width: 231
VWidth: 0
Flags: HW
HStem: 0 21G<16.5 214.5> 392 20G<93.5 148.5>
VStem: 77 77<22.8749 341.22>
AnchorPoint: "top" 117 540 basechar 0
AnchorPoint: "l;bl" 0 10 basechar 0
AnchorPoint: "l;x" 0 385 basechar 0
AnchorPoint: "l;o" 0 200 basechar 0
AnchorPoint: "r;bl" 231 10 basechar 0
AnchorPoint: "r;x" 221 385 basechar 0
AnchorPoint: "r;o" 231 200 basechar 0
LayerCount: 3
Fore
SplineSet
154 351 m 2
 154 62 l 2
 154 0 216 30 216 8 c 0
 216 5 215 2 214 0 c 1
 17 0 l 1
 16 2 15 5 15 8 c 0
 15 30 77 -2 77 62 c 2
 77 298 l 2
 77 369 16 330 16 355 c 0
 16 386 40 352 147 412 c 1
 150 412 155 410 156 406 c 0
 156 404 154 355 154 351 c 2
EndSplineSet
EndChar

StartChar: uni0237
Encoding: 567 567 176
Width: 233
VWidth: 0
Flags: HW
HStem: -222 21G<29.5 48> 392 20G<95.5 150.5>
VStem: 79 77<-81.5746 341.22>
AnchorPoint: "top" 104 540 basechar 0
AnchorPoint: "l;bl" 0 10 basechar 0
AnchorPoint: "l;x" 0 385 basechar 0
AnchorPoint: "l;o" 0 200 basechar 0
AnchorPoint: "l;lo" 0 -200 basechar 0
AnchorPoint: "r;bl" 233 10 basechar 0
AnchorPoint: "r;x" 233 385 basechar 0
AnchorPoint: "r;o" 233 200 basechar 0
AnchorPoint: "r;lo" 193 -200 basechar 0
LayerCount: 3
Fore
SplineSet
156 351 m 2
 156 45 l 2
 156 -124 62 -198 34 -222 c 1
 25 -217 18 -212 15 -202 c 1
 74 -142 79 -119 79 48 c 2
 79 298 l 2
 79 369 18 330 18 355 c 0
 18 386 42 352 149 412 c 1
 152 412 157 410 158 406 c 0
 158 404 156 355 156 351 c 2
EndSplineSet
EndChar

StartChar: uni0308
Encoding: 776 776 177
Width: 0
VWidth: 0
Flags: W
HStem: 568 93<-348.72 -268.443 -188.72 -108.443>
VStem: -357 96<576.49 653.508> -197 96<576.49 653.508>
AnchorPoint: "top" -230 540 mark 0
LayerCount: 3
Fore
SplineSet
-151 661 m 0
 -117 661 -101 637 -101 614 c 0
 -101 591 -116 568 -147 568 c 0
 -178 568 -197 592 -197 617 c 0
 -197 637 -184 661 -151 661 c 0
-311 661 m 0
 -277 661 -261 637 -261 614 c 0
 -261 591 -276 568 -307 568 c 0
 -338 568 -357 592 -357 617 c 0
 -357 637 -344 661 -311 661 c 0
EndSplineSet
EndChar

StartChar: eth
Encoding: 240 240 190
Width: 450
VWidth: 0
Flags: W
HStem: -13 29<192.993 276.237> 377 27<177.935 276.853> 629 20G<126 200.5>
VStem: 32 86<96.0497 300.07> 333 78<98.8709 321.19>
DStem2: 125 509 136 480 0.939571 0.342354<-2.16276 99.0201 166.837 265.813>
LayerCount: 3
Fore
SplineSet
234 16 m 0
 274 16 333 49 333 186 c 0
 333 336 291 377 224 377 c 0
 138 377 118 277 118 212 c 0
 118 87 177 16 234 16 c 0
411 210 m 0
 411 79 340 -13 217 -13 c 0
 91 -13 32 92 32 196 c 0
 32 294 85 404 221 404 c 0
 252 404 286 399 312 380 c 1
 301 416 269 471 238 517 c 1
 136 480 l 1
 129 488 126 498 125 509 c 1
 218 543 l 1
 183 594 152 627 126 641 c 0
 122 643 126 649 126 649 c 1
 184 649 l 1
 217 627 240 601 272 563 c 1
 372 599 l 1
 380 592 382 581 383 570 c 1
 292 538 l 1
 376 421 411 305 411 210 c 0
EndSplineSet
EndChar

StartChar: thorn
Encoding: 254 254 191
Width: 468
VWidth: 0
Flags: W
HStem: -211 21G<11.5 219.5> -13 29<193.028 287.568> 363 41<199.796 296.507> 643 20G<88.5 143.5>
VStem: 72 77<-186.761 12 49.6366 334.742 348 594.22> 357 84<102.097 293.237>
LayerCount: 3
Fore
SplineSet
237 363 m 0
 188 363 147 319 147 291 c 2
 147 112 l 2
 147 69 184 16 238 16 c 0
 319 16 357 103 357 190 c 0
 357 277 319 363 237 363 c 0
149 -149 m 2
 149 -171 156 -182 168 -187 c 0
 189 -196 221 -189 221 -203 c 0
 221 -206 220 -209 219 -211 c 1
 12 -211 l 1
 11 -209 10 -206 10 -203 c 0
 10 -181 72 -213 72 -149 c 2
 72 551 l 2
 72 622 11 583 11 608 c 0
 11 639 35 606 142 663 c 1
 145 663 150 661 151 657 c 0
 151 655 149 608 149 604 c 2
 149 348 l 1
 168 366 216 404 277 404 c 0
 388 404 441 303 441 201 c 0
 441 94 372 -13 241 -13 c 0
 214 -13 175 -4 149 12 c 1
 149 -149 l 2
EndSplineSet
AlternateSubs2: "'aalt' Access All Alternates lookup 0 subtable" thorn.ld
AlternateSubs2: "'aalt' Access All Alternates in Latin lookup 0 subtable" thorn.ld
Substitution2: "'ss01' Style Set 1 in Latin lookup 1 subtable" thorn.ld
EndChar

StartChar: acutecomb
Encoding: 769 769 192
Width: 0
VWidth: 0
Flags: W
HStem: 454 207<-238 -170>
VStem: -254 123
AnchorPoint: "top" -230 540 mark 0
LayerCount: 3
Fore
SplineSet
-170 661 m 0
 -143 661 -131 642 -131 629 c 0
 -131 601 -170 554 -194 514 c 0
 -220 471 -223 454 -238 454 c 0
 -244 454 -254 457 -254 467 c 0
 -254 480 -242 512 -236 529 c 0
 -214 595 -218 661 -170 661 c 0
EndSplineSet
EndChar

StartChar: thorn.ld
Encoding: 65544 -1 216
Width: 468
VWidth: 0
Flags: W
HStem: -270 21G<11.5 219.5> -13 29<193.028 287.568> 363 41<199.796 296.507> 643 20G<88.5 143.5>
VStem: 72 77<-245.761 12 49.6366 334.742 348 594.22> 357 84<102.097 293.237>
LayerCount: 3
Fore
SplineSet
237 363 m 0
 188 363 147 319 147 291 c 2
 147 112 l 2
 147 69 184 16 238 16 c 0
 319 16 357 103 357 190 c 0
 357 277 319 363 237 363 c 0
149 -208 m 2
 149 -230 156 -241 168 -246 c 0
 189 -255 221 -248 221 -262 c 0
 221 -265 220 -268 219 -270 c 1
 12 -270 l 1
 11 -268 10 -265 10 -262 c 0
 10 -240 72 -272 72 -208 c 2
 72 551 l 2
 72 622 11 583 11 608 c 0
 11 639 35 606 142 663 c 1
 145 663 150 661 151 657 c 0
 151 655 149 608 149 604 c 2
 149 348 l 1
 168 366 216 404 277 404 c 0
 388 404 441 303 441 201 c 0
 441 94 372 -13 241 -13 c 0
 214 -13 175 -4 149 12 c 1
 149 -208 l 2
EndSplineSet
EndChar

StartChar: oslash
Encoding: 248 248 219
Width: 460
VWidth: 0
Flags: W
HStem: -13 28<166.15 274.38> 376 28<181.008 277.845>
VStem: 23 88<89.4448 288.9> 339 88<101.274 302.831>
DStem2: 63 -59 89 -75 0.499531 0.866296<-2.92383 89.8922 142.887 453.841 513.548 605.429>
LayerCount: 3
Fore
SplineSet
226 376 m 0
 160 376 111 306 111 194 c 0
 111 143 116 98 134 65 c 1
 297 347 l 1
 278 367 253 376 226 376 c 0
427 200 m 0
 427 79 342 -13 220 -13 c 0
 190 -13 160 -7 134 4 c 1
 89 -75 l 1
 78 -72 69 -67 63 -59 c 1
 107 18 l 1
 57 50 23 108 23 196 c 0
 23 305 105 404 233 404 c 0
 266 404 295 398 320 387 c 1
 364 463 l 1
 374 462 386 455 390 447 c 1
 347 372 l 1
 400 336 427 273 427 200 c 0
316 319 m 1
 154 38 l 1
 170 23 192 15 220 15 c 0
 312 15 339 103 339 194 c 0
 339 250 330 290 316 319 c 1
EndSplineSet
EndChar

StartChar: Thorn
Encoding: 222 222 220
Width: 555
VWidth: 0
Flags: W
HStem: 0 21G<27.5 304.5> 133 40<223.125 353.954> 486 25<214.381 343.394> 626 20G<26.5 293.5>
VStem: 113 95<32.5851 159 178 483.152 511 614.516> 434 92<245.663 411.362>
LayerCount: 3
Fore
SplineSet
434 335 m 0
 434 372 411 486 281 486 c 2
 274 486 l 2
 219 486 208 485 208 437 c 2
 208 178 l 1
 208 178 240 173 263 173 c 0
 363 173 434 226 434 335 c 0
208 75 m 2
 208 -1 306 36 306 10 c 0
 306 6 305 2 304 0 c 1
 28 0 l 1
 27 2 25 6 25 10 c 0
 25 37 113 -3 113 75 c 2
 113 571 l 2
 113 647 25 610 25 636 c 0
 25 640 26 644 27 646 c 1
 293 646 l 1
 294 644 296 640 296 636 c 0
 296 609 208 649 208 571 c 2
 208 511 l 1
 313 511 l 2
 365 511 526 485 526 323 c 0
 526 210 442 133 334 133 c 0
 264 133 208 159 208 159 c 1
 208 75 l 2
EndSplineSet
EndChar

StartChar: Eth
Encoding: 208 208 222
Width: 722
VWidth: 0
Flags: W
HStem: -0 31<215.731 391.314> 313 31<27.0029 115 210 371.997> 618 28<214.535 399.01>
VStem: 115 95<34.3536 313 344 614.11> 581 111<208.686 441.505>
LayerCount: 3
Fore
SplineSet
30 0 m 1
 29 2 27 6 27 10 c 0
 27 37 115 -3 115 75 c 2
 115 313 l 5
 30 313 l 5
 28 318 27 323 27 329 c 4
 27 334 28 339 30 344 c 5
 115 344 l 5
 115 571 l 2
 115 649 27 609 27 636 c 0
 27 640 29 644 30 646 c 1
 273 646 l 2
 387 646 452 639 522 610 c 0
 633 563 692 446 692 327 c 0
 692 187 610 44 428 9 c 0
 382 0 312 0 266 -0 c 2
 30 0 l 1
210 313 m 5
 210 85 l 2
 210 32 220 31 280 31 c 0
 528 31 581 212 581 325 c 0
 581 415 545 508 470 569 c 0
 417 612 346 618 286 618 c 0
 212 618 210 613 210 573 c 2
 210 344 l 5
 369 344 l 5
 371 340 372 334 372 328 c 4
 372 322 371 317 369 313 c 5
 210 313 l 5
EndSplineSet
EndChar

StartChar: gravecomb
Encoding: 768 768 223
Width: 0
VWidth: 0
Flags: W
HStem: 454 207<-288 -220>
VStem: -327 123
AnchorPoint: "top" -230 540 mark 0
LayerCount: 3
Fore
SplineSet
-288 661 m 0
 -240 661 -244 595 -222 529 c 0
 -216 512 -204 480 -204 467 c 0
 -204 457 -214 454 -220 454 c 0
 -235 454 -238 471 -264 514 c 0
 -288 554 -327 601 -327 629 c 0
 -327 642 -315 661 -288 661 c 0
EndSplineSet
EndChar

StartChar: uni030B
Encoding: 779 779 233
Width: 0
VWidth: 0
Flags: W
HStem: 454 207<-305 -237 -165 -97>
VStem: -321 263
AnchorPoint: "top" -230 540 mark 0
LayerCount: 3
Fore
SplineSet
-97 661 m 0
 -70 661 -58 642 -58 629 c 0
 -58 601 -97 554 -121 514 c 0
 -147 471 -150 454 -165 454 c 0
 -171 454 -181 457 -181 467 c 0
 -181 480 -169 512 -163 529 c 0
 -141 595 -145 661 -97 661 c 0
-237 661 m 0
 -210 661 -198 642 -198 629 c 0
 -198 601 -237 554 -261 514 c 0
 -287 471 -290 454 -305 454 c 0
 -311 454 -321 457 -321 467 c 0
 -321 480 -309 512 -303 529 c 0
 -281 595 -285 661 -237 661 c 0
EndSplineSet
EndChar

StartChar: uni0302
Encoding: 770 770 250
Width: 0
Flags: W
HStem: 496 160
VStem: -348 234<502 509>
AnchorPoint: "top" -230 540 mark 0
LayerCount: 3
Fore
SplineSet
-231 577 m 1
 -302 519 -327 496 -337 496 c 0
 -340 496 -348 502 -348 505 c 0
 -348 509 -301 562 -249 654 c 1
 -249 654 -236 656 -232 656 c 0
 -225 656 -213 654 -213 654 c 1
 -160 561 -114 510 -114 505 c 0
 -114 502 -122 496 -125 496 c 0
 -135 496 -160 519 -231 577 c 1
EndSplineSet
EndChar

StartChar: tildecomb
Encoding: 771 771 251
Width: 996
VWidth: 0
Flags: W
HStem: 558 60<-219.524 -146.345> 601 60<-312.655 -238.356>
VStem: -352 245
AnchorPoint: "top" -230 540 mark 0
LayerCount: 3
Fore
SplineSet
-185 558 m 0xa0
 -223 558 -255 601 -291 601 c 0
 -321 601 -336 559 -336 559 c 1
 -339 559 -349 560 -352 562 c 1
 -352 562 -324 661 -274 661 c 0x60
 -236 661 -203 618 -168 618 c 0
 -138 618 -123 660 -123 660 c 1
 -120 660 -110 659 -107 657 c 1
 -107 657 -135 558 -185 558 c 0xa0
EndSplineSet
EndChar

StartChar: uni030C
Encoding: 780 780 275
Width: 0
Flags: W
HStem: 496 160
VStem: -348 234<643 650>
AnchorPoint: "top" -230 540 mark 0
LayerCount: 3
Fore
SplineSet
-231 575 m 1
 -160 633 -135 656 -125 656 c 0
 -122 656 -114 650 -114 647 c 0
 -114 643 -161 590 -213 498 c 1
 -213 498 -226 496 -230 496 c 0
 -237 496 -249 498 -249 498 c 1
 -302 591 -348 642 -348 647 c 0
 -348 650 -340 656 -337 656 c 0
 -327 656 -302 633 -231 575 c 1
EndSplineSet
EndChar

StartChar: uni0304
Encoding: 772 772 295
Width: 824
VWidth: 0
Flags: W
HStem: 595 45<-346 -112>
VStem: -346 234<595 640>
AnchorPoint: "top" -230 540 mark 0
LayerCount: 3
Fore
SplineSet
-112 595 m 1
 -346 595 l 1
 -346 640 l 1
 -112 640 l 1
 -112 595 l 1
EndSplineSet
EndChar

StartChar: uni0306
Encoding: 774 774 308
Width: 0
Flags: W
HStem: 526 59<-294.799 -163.201> 636 20G<-333.5 -326.5 -131.5 -124.5>
VStem: -343 25<622.411 655.994> -140 25<622.411 655.994>
AnchorPoint: "top" -230 540 mark 0
LayerCount: 3
Fore
SplineSet
-229 585 m 0
 -148 585 -144 643 -140 654 c 1
 -140 654 -135 656 -128 656 c 0
 -121 656 -115 654 -115 654 c 1
 -115 653 l 2
 -115 639 -122 526 -229 526 c 0
 -336 526 -343 639 -343 653 c 2
 -343 654 l 1
 -343 654 -337 656 -330 656 c 0
 -323 656 -318 654 -318 654 c 1
 -314 643 -310 585 -229 585 c 0
EndSplineSet
EndChar

StartChar: uni030A
Encoding: 778 778 321
Width: 0
VWidth: 0
Flags: W
HStem: 505 37<-262.96 -193.617> 624 37<-263.634 -195.482>
VStem: -310 40<548.865 619.293> -188 40<546.58 617.673>
AnchorPoint: "top" -230 540 mark 0
LayerCount: 3
Fore
SplineSet
-231 661 m 0
 -174 661 -148 621 -148 582 c 0
 -148 543 -177 505 -227 505 c 0
 -277 505 -310 545 -310 587 c 0
 -310 621 -287 661 -231 661 c 0
-231 624 m 0
 -259 624 -270 602 -270 584 c 0
 -270 562 -254 542 -227 542 c 0
 -200 542 -188 562 -188 582 c 0
 -188 602 -202 624 -231 624 c 0
EndSplineSet
EndChar

StartChar: dcroat
Encoding: 273 273 338
Width: 477
VWidth: 0
Flags: W
HStem: -13 40<183.465 277.753> 380 24<181.55 276.95> 488 31<193.003 320 397 457.997> 643 20G<336.5 391.5>
VStem: 26 85<109.904 285.851> 320 77<52.9294 349.5 391 488 519 594.22>
LayerCount: 3
Fore
SplineSet
322 127 m 2
 322 256 l 2
 322 340 291 380 226 380 c 0
 149 380 111 298 111 214 c 0
 111 122 156 27 242 27 c 0
 285 27 322 60 322 127 c 2
248 404 m 0
 277 404 299 396 320 391 c 1
 320 488 l 5
 196 488 l 5
 194 493 193 498 193 504 c 4
 193 509 194 514 196 519 c 5
 320 519 l 5
 320 551 l 2
 320 622 259 583 259 608 c 0
 259 639 283 606 390 663 c 1
 393 663 398 661 399 657 c 0
 399 655 397 608 397 604 c 2
 397 519 l 5
 455 519 l 5
 457 515 458 509 458 503 c 4
 458 497 457 492 455 488 c 5
 397 488 l 5
 397 92 l 2
 397 9 458 60 458 28 c 0
 458 4 427 26 335 -13 c 1
 326 -13 l 1
 326 42 l 1
 295 16 260 -13 200 -13 c 0
 89 -13 26 86 26 188 c 0
 26 295 94 404 248 404 c 0
EndSplineSet
EndChar

StartChar: hbar
Encoding: 295 295 339
Width: 476
VWidth: 0
Flags: W
HStem: 0 21G<13.5 211.5 268.5 466.5> 354 50<205.315 304.907> 488 31<13.0029 74 151 277.997> 643 20G<90.5 145.5>
VStem: 74 77<22.8749 325.642 332 488 519 594.22> 329 77<22.8749 331.235>
LayerCount: 3
Fore
SplineSet
14 0 m 1
 13 2 12 5 12 8 c 0
 12 30 74 -2 74 62 c 2
 74 488 l 5
 16 488 l 5
 14 493 13 498 13 504 c 4
 13 509 14 514 16 519 c 5
 74 519 l 5
 74 551 l 2
 74 622 13 583 13 608 c 0
 13 639 37 606 144 663 c 1
 147 663 152 661 153 657 c 0
 153 655 151 608 151 604 c 2
 151 519 l 5
 275 519 l 5
 277 515 278 509 278 503 c 4
 278 497 277 492 275 488 c 5
 151 488 l 5
 151 332 l 1
 155 338 164 344 170 352 c 0
 190 377 228 404 283 404 c 0
 396 404 406 346 406 227 c 2
 406 62 l 2
 406 0 468 30 468 8 c 0
 468 5 467 2 466 0 c 1
 269 0 l 1
 268 2 267 5 267 8 c 0
 267 30 329 -2 329 62 c 2
 329 221 l 2
 329 318 314 354 247 354 c 0
 190 354 151 314 151 288 c 2
 151 62 l 2
 151 0 213 30 213 8 c 0
 213 5 212 2 211 0 c 1
 14 0 l 1
EndSplineSet
EndChar

StartChar: Hbar
Encoding: 294 294 340
Width: 824
VWidth: 0
Flags: W
HStem: 0 21G<40.5 317.5 503.5 780.5> 311 31<221 599> 460 31<38.0029 126 221 599 694 781.997> 626 20G<39.5 316.5 502.5 779.5>
VStem: 126 95<32.5851 311 342 460 491 614.11> 599 95<31.8904 311 342 460 491 614.11>
LayerCount: 3
Fore
SplineSet
501 636 m 0
 501 640 502 644 503 646 c 1
 779 646 l 1
 780 644 782 640 782 636 c 0
 782 609 694 649 694 571 c 2
 694 491 l 1
 779 491 l 1
 781 487 782 481 782 475 c 0
 782 469 781 464 779 460 c 1
 694 460 l 1
 694 75 l 2
 694 -1 782 36 782 10 c 0
 782 6 781 2 780 0 c 1
 504 0 l 1
 503 2 501 6 501 10 c 0
 501 37 599 -3 599 75 c 2
 599 311 l 1
 221 311 l 1
 221 75 l 2
 221 -1 319 36 319 10 c 0
 319 6 318 2 317 0 c 1
 41 0 l 1
 40 2 38 6 38 10 c 0
 38 37 126 -3 126 75 c 2
 126 460 l 1
 41 460 l 1
 39 465 38 470 38 476 c 0
 38 481 39 486 41 491 c 1
 126 491 l 1
 126 571 l 2
 126 647 38 610 38 636 c 0
 38 640 39 644 40 646 c 1
 316 646 l 1
 317 644 319 640 319 636 c 0
 319 609 221 649 221 571 c 2
 221 491 l 1
 599 491 l 1
 599 571 l 2
 599 649 501 610 501 636 c 0
599 460 m 1
 221 460 l 1
 221 342 l 1
 599 342 l 1
 599 460 l 1
EndSplineSet
EndChar

StartChar: tbar
Encoding: 359 359 341
Width: 330
VWidth: 0
Flags: W
HStem: -12 44<174.491 260.477> 197 31<31.0029 78 155 286.997> 349 44<155 286.993>
VStem: 78 77<51.5977 197 228 344>
LayerCount: 3
Fore
SplineSet
78 228 m 1
 78 344 l 1
 35 345 31 343 31 353 c 0
 31 362 33 361 122 450 c 0
 130 458 136 466 146 466 c 0
 153 466 155 459 155 450 c 2
 155 393 l 1
 276 393 l 2
 287 393 287 389 287 369 c 0
 287 352 277 349 261 349 c 2
 155 349 l 1
 155 228 l 1
 284 228 l 1
 286 224 287 218 287 212 c 0
 287 206 286 201 284 197 c 1
 155 197 l 1
 155 192 l 2
 155 77 162 32 221 32 c 0
 245 32 268 40 287 46 c 1
 294 41 295 34 294 29 c 1
 266 10 221 -12 179 -12 c 0
 88 -12 78 52 78 196 c 2
 78 197 l 1
 34 197 l 1
 32 202 31 207 31 213 c 0
 31 218 32 223 34 228 c 1
 78 228 l 1
EndSplineSet
EndChar

StartChar: Tbar
Encoding: 358 358 342
Width: 706
VWidth: 0
Flags: W
HStem: 0 21G<198.5 500.5> 318 31<149.003 302 397 549.997> 610 34<82.2109 295.573 402.87 622.61>
VStem: 302 95<32.9031 318 349 608.062>
LayerCount: 3
Fore
SplineSet
199 0 m 1
 198 2 197 6 197 10 c 0
 197 36 302 -3 302 75 c 2
 302 318 l 1
 152 318 l 1
 150 323 149 328 149 334 c 0
 149 339 150 344 152 349 c 1
 302 349 l 1
 302 513 l 2
 302 607 296 610 260 610 c 2
 162 610 l 2
 95 610 99 608 74 586 c 0
 31 548 15 532 12 532 c 0
 10 532 1 535 1 540 c 0
 1 543 36 635 42 659 c 0
 43 662 45 664 48 664 c 0
 54 664 76 644 90 644 c 2
 613 644 l 2
 621 644 648 660 652 660 c 0
 657 660 659 657 662 647 c 2
 673 605 l 2
 679 581 693 537 693 534 c 0
 693 531 686 528 682 528 c 0
 678 528 651 563 623 593 c 0
 609 608 599 610 578 610 c 2
 437 610 l 2
 398 610 397 595 397 515 c 2
 397 349 l 1
 547 349 l 1
 549 345 550 339 550 333 c 0
 550 327 549 322 547 318 c 1
 397 318 l 1
 397 75 l 2
 397 -3 502 36 502 10 c 0
 502 6 501 2 500 0 c 1
 199 0 l 1
EndSplineSet
EndChar

StartChar: lslash
Encoding: 322 322 343
Width: 266
VWidth: 0
Flags: W
HStem: 0 21G<22.5 220.5> 389 20G<185.714 222> 643 20G<99.5 154.5>
VStem: 21 139<5 30 267 286 597.629 625.046> 83 77<22.8749 293 330 337 374 594.22>
DStem2: 23 295 23 258 0.865527 0.500863<-10.534 50.9299 158.145 220.542>
LayerCount: 3
Fore
SplineSet
160 337 m 1xe8
 160 62 l 2xe8
 160 0 222 30 222 8 c 0
 222 5 221 2 220 0 c 1
 23 0 l 1
 22 2 21 5 21 8 c 0xf0
 21 30 83 -2 83 62 c 2
 83 293 l 1xe8
 23 258 l 1
 23 258 21 267 21 277 c 0xf0
 21 286 23 295 23 295 c 1
 83 330 l 1
 83 551 l 2xe8
 83 622 22 583 22 608 c 0
 22 639 46 606 153 663 c 1
 156 663 161 661 162 657 c 0
 162 655 160 608 160 604 c 2xf0
 160 374 l 1
 220 409 l 1
 220 409 222 402 222 392 c 0
 222 380 220 372 220 372 c 1
 160 337 l 1xe8
EndSplineSet
EndChar

StartChar: Lslash
Encoding: 321 321 344
Width: 606
VWidth: 0
Flags: W
HStem: 0 34<201.528 480.827> 389 20G<330.559 399> 626 20G<19.5 286.5>
VStem: 106 95<35.0577 286 350 614.516>
DStem2: 20 295 20 260 0.957195 0.289444<-7.00089 79.7138 189.172 390.69>
LayerCount: 3
Fore
SplineSet
20 0 m 1
 19 2 18 6 18 10 c 0
 18 36 106 -1 106 75 c 2
 106 286 l 1
 20 260 l 1
 20 260 18 267 18 277 c 0
 18 286 20 295 20 295 c 1
 106 321 l 1
 106 571 l 2
 106 647 18 610 18 636 c 0
 18 640 19 644 20 646 c 1
 286 646 l 1
 287 644 289 640 289 636 c 0
 289 609 201 649 201 571 c 2
 201 350 l 1
 397 409 l 1
 397 409 399 402 399 392 c 0
 399 380 397 374 397 374 c 1
 201 315 l 1
 201 56 l 2
 201 45 208 34 226 34 c 2
 436 34 l 2
 477 34 487 45 554 168 c 0
 558 176 573 172 573 162 c 0
 573 160 572 138 560 80 c 0
 548 25 546 0 530 0 c 2
 20 0 l 1
EndSplineSet
EndChar

StartChar: ldot
Encoding: 320 320 345
Width: 470
VWidth: 0
Flags: W
HStem: 0 21G<22.5 220.5> 281 93<312.28 392.557> 643 20G<99.5 154.5>
VStem: 83 77<22.8749 594.22> 304 96<289.49 366.508>
AnchorPoint: "cedilla" 123 -80 basechar 0
LayerCount: 3
Fore
SplineSet
83 62 m 2
 83 551 l 2
 83 622 22 583 22 608 c 0
 22 639 46 606 153 663 c 1
 156 663 161 661 162 657 c 0
 162 655 160 608 160 604 c 2
 160 62 l 2
 160 0 222 30 222 8 c 0
 222 5 221 2 220 0 c 1
 23 0 l 1
 22 2 21 5 21 8 c 0
 21 30 83 -2 83 62 c 2
350 374 m 0
 384 374 400 350 400 327 c 0
 400 304 385 281 354 281 c 0
 323 281 304 305 304 330 c 0
 304 350 317 374 350 374 c 0
EndSplineSet
EndChar

StartChar: kgreenlandic
Encoding: 312 312 346
Width: 504
VWidth: 0
Flags: W
HStem: 0 21G<22.5 220.5 262.5 460.5> 170 21<160 204.072> 388 5G<143 154.5 266.5 446.5>
VStem: 83 77<22.8749 169 191.001 354.28>
DStem2: 226 221 271 231 0.654447 0.756108<21.4343 150.214> 269 212 228 135 0.601435 -0.798922<-15.3008 160.981>
LayerCount: 3
Fore
SplineSet
153 408 m 1
 156 408 161 406 162 402 c 0
 162 400 160 355 160 351 c 2
 160 192 l 1
 160 192 164 191 170 191 c 0
 183 191 205 195 226 221 c 2
 292 301 l 2
 309 322 314 336 314 346 c 0
 314 356 309 361 306 364 c 0
 288 381 265 369 265 385 c 0
 265 388 266 391 267 393 c 1
 446 393 l 1
 447 391 448 388 448 385 c 0
 448 365 420 391 374 350 c 0
 365 342 354 330 341 315 c 2
 271 231 l 2
 266 226 264 219 269 212 c 2
 375 68 l 2
 389 49 395 41 403 34 c 0
 427 12 462 25 462 8 c 0
 462 5 461 2 460 0 c 1
 263 0 l 1
 262 2 261 5 261 8 c 0
 261 24 298 13 298 32 c 0
 298 39 292 49 278 68 c 2
 228 135 l 2
 216 150 202 170 176 170 c 0
 171 170 160 169 160 169 c 1
 160 62 l 2
 160 0 222 30 222 8 c 0
 222 5 221 2 220 0 c 1
 23 0 l 1
 22 2 21 5 21 8 c 0
 21 30 83 -2 83 62 c 2
 83 311 l 2
 83 382 22 343 22 369 c 0
 22 383 27 385 41 385 c 0
 83 385 133 396 153 408 c 1
EndSplineSet
EndChar

StartChar: uni0302.cap
Encoding: 65545 -1 347
Width: 0
Flags: W
HStem: 496 135
VStem: -348 234<502 509>
AnchorPoint: "top" -230 540 mark 0
LayerCount: 3
Fore
SplineSet
-231 562 m 1
 -303 514 -327 496 -337 496 c 0
 -340 496 -348 502 -348 505 c 0
 -348 509 -314 537 -249 629 c 1
 -249 629 -237 631 -230 631 c 0
 -226 631 -213 629 -213 629 c 1
 -148 537 -114 509 -114 505 c 0
 -114 502 -122 496 -125 496 c 0
 -135 496 -160 513 -231 562 c 1
EndSplineSet
EndChar

StartChar: uni0237.ld
Encoding: 65546 -1 348
Width: 233
VWidth: 0
Flags: HW
HStem: -281 21G<4.5 21> 392 20G<95.5 150.5>
VStem: 79 77<-128.421 341.22>
AnchorPoint: "r;lo" 193 -200 basechar 0
AnchorPoint: "r;o" 233 200 basechar 0
AnchorPoint: "r;x" 233 385 basechar 0
AnchorPoint: "r;bl" 233 10 basechar 0
AnchorPoint: "l;k;lo" -25 -200 basechar 0
AnchorPoint: "l;o" 0 200 basechar 0
AnchorPoint: "l;x" 0 385 basechar 0
AnchorPoint: "l;bl" 0 10 basechar 0
AnchorPoint: "top" 104 540 basechar 0
LayerCount: 3
Fore
SplineSet
156 351 m 2
 156 -14 l 2
 156 -183 33 -260 9 -281 c 1
 0 -276 -5 -269 -8 -259 c 1
 54 -200 79 -173 79 -11 c 2
 79 298 l 2
 79 369 18 330 18 355 c 0
 18 386 42 352 149 412 c 1
 152 412 157 410 158 406 c 0
 158 404 156 355 156 351 c 2
EndSplineSet
EndChar

StartChar: uni030C.cap
Encoding: 65547 -1 352
Width: 0
Flags: W
HStem: 496 135
VStem: -348 234<618 625>
AnchorPoint: "top" -230 540 mark 0
LayerCount: 3
Fore
SplineSet
-231 565 m 5
 -159 613 -135 631 -125 631 c 4
 -122 631 -114 625 -114 622 c 4
 -114 618 -148 590 -213 498 c 5
 -213 498 -225 496 -232 496 c 4
 -236 496 -249 498 -249 498 c 5
 -314 590 -348 618 -348 622 c 4
 -348 625 -340 631 -337 631 c 4
 -327 631 -302 614 -231 565 c 5
EndSplineSet
EndChar

StartChar: Iogonek
Encoding: 302 302 353
Width: 316
VWidth: 0
Flags: W
HStem: -222 40<147.316 225.294> 626 20G<18.5 285.5>
VStem: 59 64<-160.908 -59.4678> 105 95<31.4844 614.516>
LayerCount: 3
Fore
SplineSet
200 571 m 2xd0
 200 75 l 2xd0
 200 -1 288 36 288 10 c 0
 288 6 287 2 286 0 c 1
 215 0 l 6
 158 0 123 -38 123 -98 c 4
 123 -149 154 -182 190 -182 c 4
 220 -182 242 -170 242 -170 c 5
 246 -173 249 -176 249 -185 c 5
 249 -185 212 -222 157 -222 c 4
 92 -222 59 -175 59 -130 c 4xe0
 59 -64 107 -23 145 0 c 5
 20 0 l 1
 19 2 17 6 17 10 c 0
 17 37 105 -3 105 75 c 2
 105 571 l 2
 105 647 17 610 17 636 c 0
 17 640 18 644 19 646 c 1
 285 646 l 1
 286 644 288 640 288 636 c 0
 288 609 200 649 200 571 c 2xd0
EndSplineSet
EndChar

StartChar: Ldot
Encoding: 319 319 362
Width: 602
VWidth: 0
Flags: W
HStem: 0 34<201.528 480.827> 281 93<412.28 492.557> 626 20G<19.5 286.5>
VStem: 106 95<35.0577 614.516> 404 96<289.49 366.508>
AnchorPoint: "cedilla" 323 -80 basechar 0
LayerCount: 3
Fore
SplineSet
20 0 m 1
 19 2 18 6 18 10 c 0
 18 36 106 -1 106 75 c 2
 106 571 l 2
 106 647 18 610 18 636 c 0
 18 640 19 644 20 646 c 1
 286 646 l 1
 287 644 289 640 289 636 c 0
 289 609 201 649 201 571 c 2
 201 56 l 2
 201 45 208 34 226 34 c 2
 436 34 l 2
 477 34 487 45 554 168 c 0
 558 176 573 172 573 162 c 0
 573 160 572 138 560 80 c 0
 548 25 546 0 530 0 c 2
 20 0 l 1
450 374 m 0
 484 374 500 350 500 327 c 0
 500 304 485 281 454 281 c 0
 423 281 404 305 404 330 c 0
 404 350 417 374 450 374 c 0
EndSplineSet
EndChar

StartChar: uni0308.cap
Encoding: 65548 -1 365
Width: 0
VWidth: 0
Flags: W
HStem: 538 93<-348.72 -268.443 -188.72 -108.443>
VStem: -357 96<546.49 623.508> -197 96<546.49 623.508>
AnchorPoint: "top" -230 540 mark 0
LayerCount: 3
Fore
SplineSet
-151 631 m 0
 -117 631 -101 607 -101 584 c 0
 -101 561 -116 538 -147 538 c 0
 -178 538 -197 562 -197 587 c 0
 -197 607 -184 631 -151 631 c 0
-311 631 m 0
 -277 631 -261 607 -261 584 c 0
 -261 561 -276 538 -307 538 c 0
 -338 538 -357 562 -357 587 c 0
 -357 607 -344 631 -311 631 c 0
EndSplineSet
EndChar

StartChar: uni0306.cap
Encoding: 65549 -1 366
Width: 0
Flags: W
HStem: 501 59<-295.799 -164.201>
VStem: -344 25<597.411 630.994> -141 25<597.411 630.994>
AnchorPoint: "top" -230 540 mark 0
LayerCount: 3
Fore
SplineSet
-230 560 m 0
 -149 560 -145 618 -141 629 c 1
 -141 629 -136 631 -129 631 c 0
 -122 631 -116 629 -116 629 c 1
 -116 628 l 2
 -116 614 -123 501 -230 501 c 0
 -337 501 -344 614 -344 628 c 2
 -344 629 l 1
 -344 629 -338 631 -331 631 c 0
 -324 631 -319 629 -319 629 c 1
 -315 618 -311 560 -230 560 c 0
EndSplineSet
EndChar

StartChar: gravecomb.cap
Encoding: 65550 -1 367
Width: 0
VWidth: 0
Flags: W
HStem: 485 151
VStem: -337 131
AnchorPoint: "top" -230 540 mark 0
LayerCount: 3
Fore
SplineSet
-337 605 m 0
 -337 620 -323 636 -304 636 c 0
 -273 636 -259 590 -234 546 c 0
 -218 518 -206 501 -206 496 c 0
 -206 488 -212 485 -215 485 c 0
 -227 485 -236 493 -268 524 c 0
 -284 539 -337 574 -337 605 c 0
EndSplineSet
EndChar

StartChar: acutecomb.cap
Encoding: 65551 -1 368
Width: 0
VWidth: 0
Flags: W
HStem: 485 151
VStem: -252 131
AnchorPoint: "top" -230 540 mark 0
LayerCount: 3
Fore
SplineSet
-121 605 m 4
 -121 574 -174 539 -190 524 c 4
 -222 493 -231 485 -243 485 c 4
 -246 485 -252 488 -252 496 c 4
 -252 501 -240 518 -224 546 c 4
 -199 590 -185 636 -154 636 c 4
 -135 636 -121 620 -121 605 c 4
EndSplineSet
EndChar

StartChar: tildecomb.cap
Encoding: 65552 -1 369
Width: 996
VWidth: 0
Flags: W
HStem: 528 60<-219.524 -146.345> 571 60<-312.655 -238.356>
VStem: -352 245
AnchorPoint: "top" -230 540 mark 0
LayerCount: 3
Fore
SplineSet
-185 528 m 0xa0
 -223 528 -255 571 -291 571 c 0
 -321 571 -336 529 -336 529 c 1
 -339 529 -349 530 -352 532 c 1
 -352 532 -324 631 -274 631 c 0x60
 -236 631 -203 588 -168 588 c 0
 -138 588 -123 630 -123 630 c 1
 -120 630 -110 629 -107 627 c 1
 -107 627 -135 528 -185 528 c 0xa0
EndSplineSet
EndChar

StartChar: uni030B.cap
Encoding: 65553 -1 371
Width: 0
VWidth: 0
Flags: W
HStem: 485 151
VStem: -325 271
AnchorPoint: "top" -230 540 mark 0
LayerCount: 3
Fore
SplineSet
-54 605 m 0
 -54 574 -107 539 -123 524 c 0
 -155 493 -164 485 -176 485 c 0
 -179 485 -185 488 -185 496 c 0
 -185 501 -173 518 -157 546 c 0
 -132 590 -118 636 -87 636 c 0
 -68 636 -54 620 -54 605 c 0
-194 605 m 0
 -194 574 -247 539 -263 524 c 0
 -295 493 -304 485 -316 485 c 0
 -319 485 -325 488 -325 496 c 0
 -325 501 -313 518 -297 546 c 0
 -272 590 -258 636 -227 636 c 0
 -208 636 -194 620 -194 605 c 0
EndSplineSet
EndChar

StartChar: uni030A.cap
Encoding: 65554 -1 373
Width: 0
VWidth: 0
Flags: W
HStem: 475 37<-262.96 -193.617> 594 37<-263.634 -195.482>
VStem: -310 40<518.865 589.293> -188 40<516.58 587.673>
AnchorPoint: "top" -230 540 mark 0
LayerCount: 3
Fore
SplineSet
-231 631 m 0
 -174 631 -148 591 -148 552 c 0
 -148 513 -177 475 -227 475 c 0
 -277 475 -310 515 -310 557 c 0
 -310 591 -287 631 -231 631 c 0
-231 594 m 0
 -259 594 -270 572 -270 554 c 0
 -270 532 -254 512 -227 512 c 0
 -200 512 -188 532 -188 552 c 0
 -188 572 -202 594 -231 594 c 0
EndSplineSet
EndChar

StartChar: uni0307.cap
Encoding: 65555 -1 374
Width: 0
VWidth: 0
Flags: W
HStem: 538 93<-268.72 -188.443>
VStem: -277 96<546.49 623.508>
AnchorPoint: "top" -230 540 mark 0
LayerCount: 3
Fore
SplineSet
-231 631 m 0
 -197 631 -181 607 -181 584 c 0
 -181 561 -196 538 -227 538 c 0
 -258 538 -277 562 -277 587 c 0
 -277 607 -264 631 -231 631 c 0
EndSplineSet
EndChar

StartChar: uni0304.cap
Encoding: 65556 -1 376
Width: 824
VWidth: 0
Flags: W
HStem: 565 45<-346 -112>
VStem: -346 234<565 610>
AnchorPoint: "top" -230 540 mark 0
LayerCount: 3
Fore
SplineSet
-112 565 m 1
 -346 565 l 1
 -346 610 l 1
 -112 610 l 1
 -112 565 l 1
EndSplineSet
EndChar

StartChar: uni0326
Encoding: 806 806 378
Width: 0
VWidth: 0
Flags: W
HStem: -270 21G<-261.5 -256.5> -138 76<-273.708 -210.103>
VStem: -209 40<-207.747 -114>
AnchorPoint: "cedilla" -230 -80 mark 0
LayerCount: 3
Fore
SplineSet
-169 -138 m 0
 -169 -186 -191 -215 -214 -240 c 0
 -240 -268 -255 -270 -258 -270 c 0
 -265 -270 -268 -267 -270 -260 c 0
 -273 -251 -269 -248 -261 -241 c 0
 -230 -216 -209 -186 -209 -162 c 0
 -209 -146 -218 -138 -242 -138 c 0
 -270 -138 -280 -124 -280 -106 c 0
 -280 -84 -264 -62 -230 -62 c 0
 -199 -62 -169 -90 -169 -138 c 0
EndSplineSet
EndChar

StartChar: uni0327
Encoding: 807 807 386
Width: 0
VWidth: 0
Flags: W
HStem: -270 21G<-261.5 -256.5> -138 76<-273.708 -210.103>
VStem: -209 40<-207.747 -114>
AnchorPoint: "cedilla" -230 -80 mark 0
LayerCount: 3
Fore
SplineSet
-169 -138 m 4
 -169 -186 -191 -215 -214 -240 c 4
 -240 -268 -255 -270 -258 -270 c 4
 -265 -270 -268 -267 -270 -260 c 4
 -273 -251 -269 -248 -261 -241 c 4
 -230 -216 -209 -186 -209 -162 c 4
 -209 -146 -218 -138 -242 -138 c 4
 -270 -138 -280 -124 -280 -106 c 4
 -280 -84 -264 -62 -230 -62 c 4
 -199 -62 -169 -90 -169 -138 c 4
EndSplineSet
EndChar

StartChar: uni0312
Encoding: 786 786 394
Width: 0
VWidth: 0
Flags: W
HStem: 454 76<-249.897 -186.292> 642 20G<-203.5 -198.5>
VStem: -291 40<506 599.747>
AnchorPoint: "top" -230 540 mark 0
LayerCount: 3
Fore
SplineSet
-291 530 m 0
 -291 578 -269 607 -246 632 c 0
 -220 660 -205 662 -202 662 c 0
 -195 662 -192 659 -190 652 c 0
 -187 643 -191 640 -199 633 c 0
 -230 608 -251 578 -251 554 c 0
 -251 538 -242 530 -218 530 c 0
 -190 530 -180 516 -180 498 c 0
 -180 476 -196 454 -230 454 c 0
 -261 454 -291 482 -291 530 c 0
EndSplineSet
EndChar

StartChar: Oslash
Encoding: 216 216 398
Width: 752
VWidth: 0
Flags: W
HStem: -22 33<307.836 470.399> 632 32<297.944 463.078>
VStem: 42 111<199.252 453.773> 613 98<189.034 462.213>
DStem2: 128 -103 154 -118 0.50014 0.865945<-2.0308 150.344 212.349 780.448 839.478 970.388>
LayerCount: 3
Fore
SplineSet
378 632 m 0
 221 632 153 482 153 330 c 0
 153 237 179 143 234 81 c 1
 523 580 l 1
 486 613 437 632 378 632 c 0
203 27 m 1
 110 82 42 184 42 330 c 0
 42 498 153 664 375 664 c 0
 437 664 497 651 548 625 c 1
 612 735 l 1
 624 733 632 727 638 720 c 1
 574 610 l 1
 656 557 711 464 711 325 c 0
 711 90 549 -22 385 -22 c 0
 332 -22 278 -10 230 13 c 1
 154 -118 l 1
 144 -115 135 -111 128 -103 c 1
 203 27 l 1
544 558 m 1
 256 59 l 1
 291 29 336 11 390 11 c 0
 480 11 613 61 613 326 c 0
 613 424 589 504 544 558 c 1
EndSplineSet
EndChar

StartChar: uni0308.narrow
Encoding: 65557 -1 399
Width: 0
VWidth: 0
Flags: W
HStem: 568 93<-348.72 -268.443 -218.72 -138.443>
VStem: -357 96<576.49 653.508> -227 96<576.49 653.508>
AnchorPoint: "top" -230 540 mark 0
LayerCount: 3
Fore
SplineSet
-181 661 m 0
 -147 661 -131 637 -131 614 c 0
 -131 591 -146 568 -177 568 c 0
 -208 568 -227 592 -227 617 c 0
 -227 637 -214 661 -181 661 c 0
-311 661 m 0
 -277 661 -261 637 -261 614 c 0
 -261 591 -276 568 -307 568 c 0
 -338 568 -357 592 -357 617 c 0
 -357 637 -344 661 -311 661 c 0
EndSplineSet
EndChar

StartChar: uni0315
Encoding: 789 789 400
Width: 0
VWidth: 0
Flags: W
HStem: 454 208.086<-202.129 -199>
VStem: -211 71.3037<562.735 652.587>
AnchorPoint: "commaright" -230 540 mark 0
LayerCount: 3
Fore
SplineSet
-169.274414062 662.0859375 m 0
 -156.012695312 662.0859375 -139.696289062 656.364257812 -139.696289062 633.477539062 c 0
 -139.696289062 617.182617188 -148.909179688 591.439453125 -166 552 c 0
 -192 492 -199 454 -207 454 c 0
 -220 454 -222 460 -222 462 c 0
 -222 467 -216 505 -211 561 c 0
 -207.088867188 606.959960938 -202.12890625 662.0859375 -169.274414062 662.0859375 c 0
EndSplineSet
EndChar

StartChar: periodcentered
Encoding: 183 183 404
Width: 244
VWidth: 0
Flags: W
HStem: 281 93<82.2803 162.557>
VStem: 74 96<289.49 366.508>
LayerCount: 3
Fore
SplineSet
120 374 m 0
 154 374 170 350 170 327 c 0
 170 304 155 281 124 281 c 0
 93 281 74 305 74 330 c 0
 74 350 87 374 120 374 c 0
EndSplineSet
EndChar

StartChar: degree
Encoding: 176 176 405
Width: 354
VWidth: 0
Flags: W
HStem: 474 37<131.344 214.241> 628 36<129.879 209.756>
VStem: 73 42<524.677 616.325> 227 42<521.025 614.294>
LayerCount: 3
Fore
SplineSet
169 664 m 0
 238 664 269 614 269 567 c 0
 269 520 233 474 173 474 c 0
 113 474 73 522 73 573 c 0
 73 614 101 664 169 664 c 0
168 628 m 0
 130 628 115 593 115 569 c 0
 115 539 137 511 174 511 c 0
 211 511 227 539 227 567 c 0
 227 595 208 628 168 628 c 0
EndSplineSet
EndChar

StartChar: eng
Encoding: 331 331 406
Width: 494
VWidth: 0
Flags: W
HStem: -222 21G<279.5 298> 0 21G<13.5 211.5> 354 50<207.49 307.861> 392 20G<90.5 145.5>
VStem: 74 77<22.8749 341.22> 329 77<-81.5746 331.802>
LayerCount: 3
Fore
SplineSet
329 221 m 2xec
 329 318 317 354 247 354 c 0xec
 190 354 151 314 151 288 c 2
 151 62 l 2
 151 0 213 30 213 8 c 0
 213 5 212 2 211 0 c 1
 14 0 l 1
 13 2 12 5 12 8 c 0
 12 30 74 -2 74 62 c 2
 74 298 l 2
 74 369 13 330 13 355 c 0
 13 386 37 352 144 412 c 1xdc
 147 412 152 410 153 406 c 1
 152 400 147 371 145 323 c 1
 158 339 l 1
 182 364 218 404 283 404 c 0
 396 404 406 346 406 227 c 2
 406 45 l 6
 406 -124 312 -198 284 -222 c 5
 275 -217 268 -212 265 -202 c 5
 324 -142 329 -119 329 48 c 6
 329 221 l 2xec
EndSplineSet
AlternateSubs2: "'aalt' Access All Alternates lookup 0 subtable" eng.ld
AlternateSubs2: "'aalt' Access All Alternates in Latin lookup 0 subtable" eng.ld
Substitution2: "'ss01' Style Set 1 in Latin lookup 1 subtable" eng.ld
EndChar

StartChar: Eng
Encoding: 330 330 407
Width: 802
VWidth: 0
Flags: W
HStem: -222 21G<550.5 569> 0 21G<57.5 284.5> 626 20G<40.5 198 538.5 771.5>
VStem: 151 33<41.14 308.716> 618 59<-81.5746 64.7601> 652 26<265.316 585.624>
DStem2: 238 617 125 585 0.672673 -0.73994<-57.5917 23.8841 43.2415 616.052>
AnchorPoint: "top" 415 740 basechar 0
LayerCount: 3
Fore
SplineSet
677 45 m 2xf8
 677 -124 583 -198 555 -222 c 1
 546 -217 539 -212 536 -202 c 1
 571 -166 618 -103 618 -17 c 2
 618 11 l 2xf8
 618 43 613 48 545 123 c 2
 250 450 l 2
 214 490 191 515 190 515 c 0
 188 515 184 226 184 153 c 0
 184 124 185 100 185 85 c 0
 187 50 199 37 207 32 c 0
 230 16 286 30 286 10 c 0
 286 6 285 2 284 0 c 1
 58 0 l 1
 57 2 55 6 55 10 c 0
 55 30 106 13 131 37 c 0
 147 53 150 71 151 110 c 0
 157 235 160 352 160 435 c 2
 160 532 l 2
 160 543 160 549 145 564 c 2
 125 585 l 2
 112 599 100 608 91 614 c 0
 63 631 38 619 38 636 c 0
 38 640 40 644 41 646 c 1
 198 645 l 2
 215 645 219 639 238 617 c 2
 601 211 l 2
 632 177 648 158 649 158 c 0
 651 158 652 210 652 456 c 0
 652 551 652 600 606 617 c 0
 576 628 537 619 537 636 c 0
 537 640 538 644 539 646 c 1
 771 646 l 1
 772 644 774 640 774 636 c 0
 774 619 739 631 710 615 c 0
 678 597 678 554 678 423 c 2xf4
 677 45 l 2xf8
EndSplineSet
AlternateSubs2: "'aalt' Access All Alternates lookup 0 subtable" Eng.ld
AlternateSubs2: "'aalt' Access All Alternates in Latin lookup 0 subtable" Eng.ld
Substitution2: "'ss01' Style Set 1 in Latin lookup 1 subtable" Eng.ld
EndChar

StartChar: aogonek
Encoding: 261 261 408
Width: 402
VWidth: 0
Flags: W
HStem: -222 40<254.932 333.294> -13 40<99.5 202.392> 369 35<131.897 274.492>
VStem: 30 75<255.858 336.81> 36 85<34.394 122.745> 173 64<-166.967 -75.2931> 245 77<51.4188 187 203.22 353.691>
LayerCount: 3
Fore
SplineSet
245 187 m 1xee
 236 184 215 178 191 167 c 0
 157 151 121 133 121 81 c 0
 121 51 139 27 165 27 c 0
 175 27 245 40 245 98 c 2
 245 187 l 1xee
265 -222 m 4
 197 -222 173 -177 173 -137 c 4
 173 -89 205 -61 231 -40 c 4
 257 -18 282 -4 282 -4 c 5
 282 -4 254 10 249 48 c 1
 228 17 184 -13 124 -13 c 0
 75 -13 36 16 36 71 c 0xee
 36 125 93 168 245 209 c 1
 245 282 l 2
 245 327 240 369 175 369 c 0
 131 369 105 350 105 333 c 0
 105 328 110 314 110 296 c 0
 110 265 93 250 73 250 c 0
 52 250 30 266 30 297 c 0xf6
 30 341 127 404 223 404 c 0
 322 404 322 357 322 231 c 2
 322 125 l 2
 322 75 323 44 342 44 c 0
 365 44 363 65 377 65 c 0
 382 65 384 59 384 52 c 0
 384 13 341 4 299 -19 c 4
 256 -42 237 -76 237 -109 c 4
 237 -160 268 -182 298 -182 c 4
 328 -182 350 -170 350 -170 c 5
 354 -173 357 -176 357 -185 c 5
 357 -185 320 -222 265 -222 c 4
EndSplineSet
EndChar

StartChar: Eng.ld
Encoding: 65565 -1 409
Width: 802
VWidth: 0
Flags: HW
AnchorPoint: "top" 415 740 basechar 0
LayerCount: 3
Fore
SplineSet
618 -5 m 2xc0
 618 11 l 2
 618 43 613 48 545 123 c 2
 250 450 l 2
 214 490 191 515 190 515 c 0
 188 515 184 226 184 153 c 0
 184 124 185 100 185 85 c 0
 187 50 199 37 207 32 c 0
 230 16 286 30 286 10 c 0
 286 6 285 2 284 0 c 1
 58 0 l 1
 57 2 55 6 55 10 c 0
 55 30 106 13 131 37 c 0
 147 53 150 71 151 110 c 0
 157 235 160 352 160 435 c 2
 160 532 l 2
 160 543 160 549 145 564 c 2
 125 585 l 2
 112 599 100 608 91 614 c 0
 63 631 38 619 38 636 c 0
 38 640 40 644 41 646 c 1
 198 645 l 2
 215 645 219 639 238 617 c 2
 601 211 l 2
 632 177 648 158 649 158 c 0
 651 158 652 210 652 456 c 0xa0
 652 551 652 600 606 617 c 0
 576 628 537 619 537 636 c 0
 537 640 538 644 539 646 c 1
 771 646 l 1
 772 644 774 640 774 636 c 0
 774 619 739 631 710 615 c 0
 678 597 678 554 678 423 c 2
 677 -14 l 2xc0
 677 -183 554 -260 530 -281 c 1
 521 -276 516 -269 513 -259 c 1
 575 -200 618 -167 618 -5 c 2xc0
EndSplineSet
EndChar

StartChar: eng.ld
Encoding: 65566 -1 410
Width: 494
VWidth: 0
Flags: W
HStem: -281 21G<254.5 271> 0 21G<13.5 211.5> 354 50<207.49 307.861> 392 20G<90.5 145.5>
VStem: 74 77<22.8749 341.22> 329 77<-128.421 331.802>
LayerCount: 3
Fore
SplineSet
329 -11 m 6xec
 329 221 l 2
 329 318 317 354 247 354 c 0xec
 190 354 151 314 151 288 c 2
 151 62 l 2
 151 0 213 30 213 8 c 0
 213 5 212 2 211 0 c 1
 14 0 l 1
 13 2 12 5 12 8 c 0
 12 30 74 -2 74 62 c 2
 74 298 l 2
 74 369 13 330 13 355 c 0
 13 386 37 352 144 412 c 1xdc
 147 412 152 410 153 406 c 1
 152 400 147 371 145 323 c 1
 158 339 l 1
 182 364 218 404 283 404 c 0
 396 404 406 346 406 227 c 2
 406 -14 l 6
 406 -183 283 -260 259 -281 c 5
 250 -276 245 -269 242 -259 c 5
 304 -200 329 -173 329 -11 c 6xec
EndSplineSet
EndChar

StartChar: Aogonek
Encoding: 260 260 411
Width: 725
VWidth: 0
Flags: W
HStem: -222 40<459.932 538.294> 0 21G<32.5 259.5> 240 36<226.095 415.999> 630 20G<338.5 360.5>
VStem: 30 116<8 60.5> 378 64<-166.967 -66.9903>
DStem2: 116 79 161 114 0.350043 0.936734<-12.3418 187.917 227.847 502.62> 411 540 333 515 0.367428 -0.930052<-32.101 243.519 281.956 489.332>
AnchorPoint: "top" 346 740 basechar 0
LayerCount: 3
Fore
SplineSet
378 -137 m 0
 378 -70 429 -29 468 -1 c 0
 489 14 502 27 502 49 c 0
 502 66 488 104 464 164 c 2
 440 223 l 2
 434 239 432 240 419 240 c 2
 222 240 l 2
 210 240 208 239 203 226 c 2
 161 114 l 2
 150 85 146 67 146 54 c 0
 146 44 148 38 152 34 c 0
 170 15 261 33 261 10 c 0
 261 6 260 2 259 0 c 1
 33 0 l 1
 32 2 30 6 30 10 c 0
 30 29 68 11 93 38 c 0
 101 46 109 60 116 79 c 0
 195 275 285 531 321 625 c 0
 330 649 332 650 345 650 c 2
 355 650 l 2
 366 650 369 648 372 641 c 2
 411 540 l 2
 589 81 566 139 596 74 c 0
 603 59 608 40 627 29 c 0
 644 20 690 27 690 10 c 0
 690 6 689 2 688 0 c 1
 571 0 l 2
 527 0 489 -3 460 -48 c 0
 449 -65 442 -85 442 -109 c 0
 442 -160 473 -182 503 -182 c 0
 533 -182 555 -170 555 -170 c 1
 559 -173 562 -176 562 -185 c 1
 562 -185 525 -222 470 -222 c 0
 402 -222 378 -177 378 -137 c 0
309 515 m 2
 232 304 l 2
 228 295 225 284 226 281 c 0
 228 275 232 276 237 276 c 2
 401 276 l 2
 415 276 416 277 416 280 c 0
 416 283 416 287 414 293 c 2
 333 515 l 2
 326 535 323 539 321 539 c 0
 319 539 316 535 309 515 c 2
EndSplineSet
EndChar

StartChar: eogonek
Encoding: 281 281 412
Width: 425
VWidth: 0
Flags: W
HStem: -222 40<262.919 343.294> -13 58<173.563 284.439> 251 21<121 298.015> 379 25<179.088 260.018>
VStem: 35 78<111.422 251> 178 64<-163.337 -68.1398> 301 81<272.88 337.101>
LayerCount: 3
Fore
SplineSet
221 379 m 0
 191 379 135 358 121 272 c 1
 248 272 l 2
 300 272 301 275 301 291 c 0
 301 333 272 379 221 379 c 0
178 -136 m 0
 178 -58 260 -8 260 -8 c 1
 260 -8 239 -13 216 -13 c 0
 138 -13 35 30 35 200 c 0
 35 300 102 404 223 404 c 0
 357 404 382 296 382 279 c 0
 382 251 381 251 294 251 c 2
 117 251 l 1
 114 234 113 218 113 202 c 0
 113 113 155 45 249 45 c 0
 276 45 330 48 371 107 c 1
 377 105 385 99 387 94 c 1
 367 54 349 39 313 11 c 0
 301 2 273 -17 258 -42 c 0
 248 -58 242 -78 242 -103 c 0
 242 -154 272 -182 308 -182 c 0
 338 -182 360 -170 360 -170 c 1
 364 -173 367 -176 367 -185 c 1
 367 -185 330 -222 275 -222 c 0
 210 -222 178 -181 178 -136 c 0
EndSplineSet
EndChar

StartChar: Eogonek
Encoding: 280 280 413
Width: 559
VWidth: 0
Flags: W
HStem: -222 40<415.109 493.294> 0 27<204.075 422 435.155 463.099> 313 21<203.029 332.259> 619 27<204.617 419.642>
VStem: 108 95<30.7996 312.755 334.021 615.2> 330 63<-162.719 -66.0211> 375 21<198.003 258.553 390.241 462.997>
AnchorPoint: "top" 297 740 basechar 0
LayerCount: 3
Fore
SplineSet
391 326 m 0xfa
 391 244 396 220 396 207 c 0
 396 199 394 198 386 198 c 0
 378 198 376 199 375 207 c 0xfa
 369 243 366 313 294 313 c 2
 239 313 l 2
 222 313 203 313 203 302 c 2
 203 49 l 2
 203 39 205 27 236 27 c 2
 426 27 l 2
 456 27 462 38 476 57 c 0
 496 84 512 115 526 139 c 0
 528 143 531 147 537 145 c 0
 543 143 544 143 544 137 c 0
 544 132 542 123 539 110 c 0
 524 41 520 0 507 0 c 2
 475 0 l 2
 428 0 393 -50 393 -100 c 0
 393 -151 422 -182 458 -182 c 0
 488 -182 510 -170 510 -170 c 1
 514 -173 517 -176 517 -185 c 1
 517 -185 480 -222 425 -222 c 0
 359 -222 330 -180 330 -133 c 0xfc
 330 -87 366 -28 422 0 c 1
 23 0 l 1
 22 2 20 6 20 10 c 0
 20 37 108 -3 108 75 c 2
 108 571 l 2
 108 649 20 609 20 636 c 0
 20 640 22 644 23 646 c 1
 375 646 l 2
 423 646 466 650 476 650 c 0
 492 650 485 639 496 572 c 0
 500 545 505 519 505 506 c 0
 505 499 501 498 498 497 c 0
 490 494 485 504 484 505 c 0
 469 527 425 619 399 619 c 2
 222 619 l 2
 210 619 203 609 203 595 c 2
 203 343 l 2
 203 335 213 334 228 334 c 2
 294 334 l 2
 372 334 369 418 375 454 c 0
 376 462 378 463 386 463 c 0
 394 463 396 462 396 454 c 0
 396 441 391 408 391 326 c 0xfa
EndSplineSet
EndChar

StartChar: Uogonek
Encoding: 370 370 414
Width: 750
VWidth: 0
Flags: W
HStem: -222 40<407.316 485.294> -20 56<303.339 382 395.916 487.047> 626 20G<20.5 297.5 484.5 712.5>
VStem: 107 95<162.324 614.11> 319 64<-160.908 -62.4964> 602 28<214.545 581.544>
LayerCount: 3
Fore
SplineSet
630 479 m 2
 630 408 l 2
 630 264 628 239 616 183 c 0
 587 51 519 -4 417 -17 c 1
 395 -34 383 -62 383 -98 c 0
 383 -149 414 -182 450 -182 c 0
 480 -182 502 -170 502 -170 c 1
 506 -173 509 -176 509 -185 c 1
 509 -185 472 -222 417 -222 c 0
 352 -222 319 -175 319 -130 c 0
 319 -82 350 -44 382 -20 c 1
 368 -20 l 2
 116 -20 107 166 107 392 c 2
 107 571 l 2
 107 647 19 610 19 636 c 0
 19 640 20 644 21 646 c 1
 297 646 l 1
 298 644 300 640 300 636 c 0
 300 609 202 649 202 571 c 2
 202 359 l 2
 202 211 215 36 386 36 c 0
 514 36 602 91 602 325 c 2
 602 465 l 2
 602 530 597 570 582 594 c 0
 552 641 483 615 483 636 c 0
 483 640 484 644 485 646 c 1
 712 646 l 1
 713 644 715 640 715 636 c 0
 715 611 658 642 641 594 c 0
 634 574 630 539 630 479 c 2
EndSplineSet
EndChar

StartChar: uogonek
Encoding: 371 371 415
Width: 492
VWidth: 0
Flags: W
HStem: -222 40<331.316 409.294> -13 47<195.079 296.33> 372 20G<129.5 158 384.5 413>
VStem: 86 77<69.3069 354.28> 243 64<-160.908 -57.6962> 341 77<54.4961 354.28>
LayerCount: 3
Fore
SplineSet
418 331 m 2
 418 92 l 2
 418 9 479 60 479 28 c 0
 479 8 458 18 398 4 c 0
 370 -3 307 -12 307 -98 c 0
 307 -149 338 -182 374 -182 c 4
 404 -182 426 -170 426 -170 c 5
 430 -173 433 -176 433 -185 c 5
 433 -185 396 -222 341 -222 c 4
 276 -222 243 -175 243 -130 c 0
 243 -53 302 -13 347 6 c 1
 347 49 l 1
 347 49 306 14 295 8 c 0
 274 -4 249 -13 219 -13 c 0
 97 -13 86 86 86 177 c 2
 86 311 l 2
 86 382 25 343 25 369 c 0
 25 383 30 385 44 385 c 0
 112 387 103 383 156 392 c 1
 157 392 l 2
 159 392 163 391 165 386 c 0
 165 384 163 335 163 331 c 2
 163 195 l 2
 163 100 174 34 251 34 c 0
 294 34 341 58 341 83 c 2
 341 311 l 2
 341 382 280 343 280 369 c 0
 280 383 285 385 299 385 c 0
 367 387 358 383 411 392 c 1
 412 392 l 2
 414 392 418 391 420 386 c 0
 420 384 418 335 418 331 c 2
EndSplineSet
EndChar

StartChar: iogonek.dotless
Encoding: 65567 -1 416
Width: 244
VWidth: 0
Flags: W
HStem: -222 40<115.316 193.294> 392 20G<97.5 152.5>
VStem: 27 64<-160.908 -59.4678> 81 77<22.8749 341.22>
AnchorPoint: "top" 121 540 basechar 0
LayerCount: 3
Fore
SplineSet
158 351 m 2xd0
 158 62 l 2xd0
 158 0 220 30 220 8 c 0
 220 5 219 2 218 0 c 1
 178 0 l 2
 126 0 91 -38 91 -98 c 0xe0
 91 -149 122 -182 158 -182 c 0xd0
 188 -182 210 -170 210 -170 c 1
 214 -173 217 -176 217 -185 c 1
 217 -185 180 -222 125 -222 c 0
 60 -222 27 -175 27 -130 c 0xe0
 27 -64 75 -23 113 -0 c 1
 21 0 l 1
 20 2 19 5 19 8 c 0
 19 30 81 -2 81 62 c 2
 81 298 l 2
 81 369 20 330 20 355 c 0
 20 386 44 352 151 412 c 1
 154 412 159 410 160 406 c 0
 160 404 158 355 158 351 c 2xd0
EndSplineSet
EndChar

StartChar: ordfeminine
Encoding: 170 170 417
Width: 435
VWidth: 0
Flags: W
HStem: 414 24<153 219.417> 417 32<280.5 328.897> 644 21<176.116 269.313>
VStem: 107 58<573.028 630.076> 112 61<438.467 502.793> 247 55<449.693 534 542.12 639.925>
LayerCount: 3
Fore
SplineSet
107 598 m 0xb4
 107 629 175 665 236 665 c 0
 302 665 302 637 302 561 c 2
 302 497 l 2
 302 467 303 449 314 449 c 0
 328 449 327 461 335 461 c 0
 338 461 340 457 340 453 c 0
 340 432 307 417 289 417 c 0x74
 272 417 256 422 250 451 c 1
 236 432 208 414 169 414 c 0
 137 414 112 432 112 465 c 0xac
 112 497 149 523 247 548 c 1
 247 591 l 2
 247 618 245 644 205 644 c 0
 178 644 161 633 161 623 c 0
 161 620 165 611 165 600 c 0
 165 580 149 572 135 572 c 0
 120 572 107 582 107 598 c 0xb4
247 534 m 1
 242 532 229 529 215 522 c 0
 195 512 173 502 173 471 c 0
 173 453 183 438 199 438 c 0xac
 205 438 247 446 247 481 c 2
 247 534 l 1
EndSplineSet
EndChar
